<svg width="69" height="81" viewBox="0 0 69 81" fill="none" xmlns="http://www.w3.org/2000/svg">
<path d="M24.1226 42.9866C23.3127 42.6654 22.5028 42.3582 21.6789 42.0649C19.5704 41.3249 17.1825 40.3753 14.9343 40.2776C13.1609 40.1938 11.555 41.1573 10.0189 41.9253C8.23155 42.819 6.56978 43.9641 5.11754 45.3186C4.79635 45.6118 4.47513 45.933 4.32159 46.3379C4.26573 46.4636 4.2378 46.5893 4.22385 46.715C4.168 47.0222 4.20988 47.3015 4.32159 47.5808C4.65672 48.4884 5.62033 49.2844 6.49999 49.829C17.7131 56.9087 27.9489 65.9155 40.4188 70.4258C47.2054 72.8835 54.4109 73.9168 61.5465 74.9362C62.3843 75.0479 63.3898 75.1037 63.9065 74.4474C64.3673 73.8609 64.1996 73.0231 63.9762 72.3109C62.6636 68.0938 60.1082 64.3933 56.9663 61.2514" stroke="#626161" stroke-width="1.5" stroke-linecap="round" stroke-linejoin="round"/>
<path d="M63.6654 74.7623C59.885 76.4693 55.7415 77.1972 51.6258 77.7142C48.1442 78.1514 44.5997 78.4476 41.138 77.874C38.1454 77.3783 35.2952 76.2448 32.5487 74.9571C23.9664 70.9328 10.091 60.1519 7.01113 55.5073C5.96938 52.8348 4.40127 49.5805 4.2207 46.7178" stroke="#626161" stroke-width="1.5" stroke-linecap="round" stroke-linejoin="round"/>
<path d="M20.0996 56.9378C20.1834 56.3792 20.2812 55.7788 20.365 55.2481C20.4208 54.885 20.5465 54.4382 20.9096 54.3544C21.0911 54.3125 21.2727 54.3824 21.4542 54.4522C25.7132 56.1279 31.5083 57.7337 34.3849 61.2806C35.0691 62.1184 36.2561 65.8747 36.7449 67.1454C36.7449 67.1454 38.0295 67.69 38.7556 67.6203C39.8728 67.5085 41.2832 66.8383 42.2607 66.2797C45.0814 64.6459 47.3576 62.8725 49.6756 60.6523" stroke="#626161" stroke-width="1.5" stroke-linecap="round" stroke-linejoin="round"/>
<path d="M30.8952 47.5801H30.8812C27.432 49.7026 24.0807 51.9647 20.7852 54.3387" stroke="#626161" stroke-width="1.5" stroke-linecap="round" stroke-linejoin="round"/>
<path d="M41.7993 56.9355C40.0538 58.1504 38.2105 59.6585 36.87 61.1108C36.7303 61.2505 38.3222 65.3419 38.5597 65.3279C40.766 65.1184 45.0669 61.8229 47.413 59.8121" stroke="#626161" stroke-width="1.5" stroke-linecap="round" stroke-linejoin="round"/>
<path d="M34.3717 6.12207C20.0166 15.6036 22.0693 37.3036 24.122 42.9869C24.3594 43.6711 24.5968 44.118 24.8202 44.2995C26.6914 45.8356 28.7441 46.7293 30.8807 47.581H30.8946C31.6068 47.8603 32.3469 48.1396 33.087 48.4468" stroke="#647B3B" stroke-width="1.6" stroke-linecap="round" stroke-linejoin="round"/>
<path d="M34.2889 10.1953C40.168 24.4881 55.6072 59.0581 57.5989 62.4509C48.6353 61.4561 37.4427 56.4276 32.6719 47.7071L34.2889 10.1953Z" stroke="#647B3B" stroke-width="1.6" stroke-linecap="round" stroke-linejoin="round"/>
<path d="M34.375 10.943C34.4308 9.59334 34.4467 4.23718 34.5161 2.91797" stroke="#647B3B" stroke-width="1.6" stroke-linecap="round" stroke-linejoin="round"/>
<path d="M32.2418 51.1094C32.2274 50.2464 32.2131 49.3763 32.1992 48.5" stroke="#647B3B" stroke-width="1.5" stroke-linecap="round" stroke-linejoin="round"/>
<path d="M7.94727 50.0435C8.90091 49.0473 13.5017 46.0112 14.8753 45.7641C16.1614 45.5329 17.5276 45.9932 18.7332 46.4125C21.5409 47.389 23.8429 48.4016 26.3694 49.9681" stroke="#626161" stroke-width="1.5" stroke-linecap="round" stroke-linejoin="round"/>
<path d="M33.9463 65.42C33.3641 63.9151 32.7496 61.777 30.1449 60.4707C30.0035 61.2944 29.8621 62.1181 29.7207 62.9418C29.7207 62.9418 33.7128 65.2018 33.9463 65.42Z" stroke="#647B3B" stroke-width="1.5" stroke-linecap="round" stroke-linejoin="round"/>
<path d="M22.0351 56.6641C23.5599 56.9875 26.7805 58.2785 28.2766 59.1993C28.6116 59.4055 28.049 61.7982 27.9224 62.0605C27.6149 61.8351 21.8355 58.1532 21.8229 58.1264C21.81 58.099 21.9967 56.6559 22.0351 56.6641Z" stroke="#647B3B" stroke-width="1.5" stroke-linecap="round" stroke-linejoin="round"/>
</svg>
