<svg width="40" height="81" viewBox="0 0 40 81" fill="none" xmlns="http://www.w3.org/2000/svg">
<path d="M19.0988 67.8398C16.9586 68.023 11.2747 68.8746 8.55246 70.9452C7.68599 71.6042 7.11962 72.3867 7.06288 73.3104C6.78155 77.894 16.0874 79.863 19.2328 80.1643C23.5465 80.5775 27.9391 79.6242 31.6339 77.3385C32.6277 76.7238 33.6456 75.892 33.8004 74.7335C34.4316 70.0048 27.9706 68.1963 23.0996 67.8398" stroke="#626161" stroke-width="1.5" stroke-linecap="round" stroke-linejoin="round"/>
<path d="M17.5468 72.4033C19.6019 71.9771 19.5938 68.5036 19.5947 66.4667L19.6021 53.5324C19.6034 50.5888 18.654 47.7236 16.8951 45.3633L5.58203 30.1807" stroke="#626161" stroke-width="1.5" stroke-linecap="round" stroke-linejoin="round"/>
<path d="M24.8126 72.3826C22.5918 71.7391 22.5918 66.5323 22.5918 64.6607C22.5918 62.2584 22.5918 53.8126 22.5918 53.8126C22.5918 50.8817 23.5343 48.0285 25.2801 45.6743L35.9819 31.2227" stroke="#626161" stroke-width="1.5" stroke-linecap="round" stroke-linejoin="round"/>
<path d="M6.51329 26.6152C6.18667 27.008 5.93562 27.4371 5.80113 27.8965C5.46378 29.0489 5.4618 29.9914 6.45157 30.8412C7.65828 31.8775 9.20605 32.3234 10.5178 32.8219" stroke="#626161" stroke-width="1.5" stroke-linecap="round" stroke-linejoin="round"/>
<path d="M21.0996 22.4859C18.3518 22.3423 17.0664 22.4548 14.5996 22.9854" stroke="#626161" stroke-width="1.5" stroke-linecap="round" stroke-linejoin="round"/>
<path d="M24.5996 22.9863C25.7709 23.1395 26.735 23.0492 27.8188 23.3382C27.8188 23.3382 35.23 25.1042 35.9814 31.2209" stroke="#626161" stroke-width="1.5" stroke-linecap="round" stroke-linejoin="round"/>
<path d="M15.5996 18.4863C17.6859 18.4863 19.3243 18.4863 21.5996 18.4863" stroke="#626161" stroke-width="1.5" stroke-linecap="round" stroke-linejoin="round"/>
<path d="M25.364 18.9678C26.8332 19.1527 28.2435 19.4134 29.5386 19.7499C29.5386 19.7499 37.7996 21.3585 38.5644 26.5975C39.0875 30.1817 33.5996 32.6945 33.5996 32.6945C30.9073 34.2351 27.272 34.5523 24.2365 34.6499C17.587 34.8637 10.5067 34.1161 5.09858 29.8533C2.46137 27.7746 2.35584 25.4417 4.03358 23.4202C4.6382 22.6917 4.5669 22.6084 5.59961 21.9873" stroke="#626161" stroke-width="1.5" stroke-linecap="round" stroke-linejoin="round"/>
<path d="M23.7198 28.3877C22.7783 28.9287 21.6691 29.1731 20.5874 29.0778C20.3088 29.0533 20.0065 28.9929 19.8281 28.7775" stroke="#626161" stroke-linecap="round" stroke-linejoin="round"/>
<path d="M13.0854 27.752C12.1807 28.2475 12.3934 29.2083 12.9968 29.7522C13.6001 30.296 14.4406 30.4702 15.2382 30.6236" stroke="#626161" stroke-linecap="round" stroke-linejoin="round"/>
<path d="M29.1189 30.7168C28.5574 30.8352 27.9977 30.8889 27.6406 30.9335" stroke="#626161" stroke-linecap="round" stroke-linejoin="round"/>
<path d="M8.13477 33.6094C10.9975 36.9161 15.8808 37.6846 20.3226 37.7639C24.7513 37.8429 29.4326 37.3759 33.0361 34.8688" stroke="#626161" stroke-width="1.5" stroke-linecap="round" stroke-linejoin="round"/>
<path d="M2.61719 11.4726C3.73974 10.8665 6.48627 9.39662 7.81358 9.62799C9.18301 9.86675 10.4402 10.7898 11.3502 11.6971C13.3496 13.6908 14.3623 16.4453 14.61 19.1051C14.7582 20.6965 14.5985 23.0041 13.3724 24.2819C12.9543 24.7175 11.6578 25.5321 10.2203 26.1339" stroke="#626161" stroke-linecap="round" stroke-linejoin="round"/>
<path d="M3.81175 23.6478C2.35167 21.3395 0.88762 18.7767 0.62306 16.0854C0.36752 13.4859 2.21193 10.2891 5.59284 10.8787C6.97725 11.1201 8.16061 11.9404 9.10826 12.8855C11.1077 14.8792 12.1203 17.6337 12.368 20.2935C12.5162 21.8848 12.3566 24.1925 11.1305 25.4702C10.1369 26.5056 8.13923 26.9685 6.6925 26.6494L6.49711 19.3017L5.9608 21.7774" stroke="#626161" stroke-linecap="round" stroke-linejoin="round"/>
<path d="M4.75111 16.6407C4.02048 15.6911 3.47062 14.6279 3.13281 13.5117" stroke="#626161" stroke-linecap="round" stroke-linejoin="round"/>
<path d="M6.7705 18.8702L6.69186 19.3275C6.51407 19.3728 6.30696 19.2598 6.26827 19.0963C6.22957 18.9327 6.36732 18.7529 6.55006 18.7284C6.5967 18.8529 6.3039 18.8435 6.30111 18.712C6.29831 18.5805 6.45029 18.4964 6.5818 18.4404" stroke="#626161" stroke-width="1.5" stroke-linecap="round" stroke-linejoin="round"/>
<path d="M8.0625 17.0306L8.66612 16.5625" stroke="#626161" stroke-linecap="round" stroke-linejoin="round"/>
<path d="M7.82031 21.7754L8.36953 22.9225" stroke="#626161" stroke-linecap="round" stroke-linejoin="round"/>
<path d="M21.1426 28.8914L22.5253 15.8991C22.8463 13.5221 23.2141 11.0629 24.5139 9.04692C25.6058 7.35349 27.2636 6.11918 28.8851 4.92302C29.9001 4.17417 30.9302 3.44616 31.9468 2.69939C32.6633 2.17306 33.3421 1.56475 34.0958 1.09327C34.6935 0.719383 35.2849 0.771789 35.7756 1.30271C35.8685 1.4032 35.9551 1.51838 35.9771 1.65341C36.0397 2.03668 35.2614 2.44349 35.0131 2.64076C34.542 3.015 34.071 3.38933 33.6 3.76367C32.6433 4.52415 31.6871 5.28509 30.7319 6.04747C29.3629 7.14016 27.9655 8.26461 27.0529 9.75987C26.0109 11.4673 25.6925 13.505 25.3951 15.483C23.8773 25.5796 24.9617 18.3661 23.4439 28.4627" stroke="#647B3B" stroke-linecap="round" stroke-linejoin="round"/>
<path d="M25.8086 7.43448C26.3849 7.22341 27.0878 7.43204 27.4557 7.92319" stroke="#647B3B" stroke-linecap="round" stroke-linejoin="round"/>
<path d="M24.5781 9.56543C25.1772 9.91884 25.8671 10.1167 26.5624 10.1346" stroke="#647B3B" stroke-linecap="round" stroke-linejoin="round"/>
<path d="M23.5801 12.1182C24.163 12.4902 24.8994 12.613 25.5716 12.4505" stroke="#647B3B" stroke-linecap="round" stroke-linejoin="round"/>
<path d="M23.1641 14.6709C23.6871 15.0199 24.3939 15.1533 25.0372 15.0244" stroke="#647B3B" stroke-linecap="round" stroke-linejoin="round"/>
<path d="M22.5352 17.1953C23.233 17.6868 24.1338 17.7859 24.9016 17.4555" stroke="#647B3B" stroke-linecap="round" stroke-linejoin="round"/>
</svg>
