<svg width="971" height="118" viewBox="0 0 971 118" fill="none" xmlns="http://www.w3.org/2000/svg">
<g filter="url(#filter0_d_681_8419)">
<rect x="4" y="58" width="963" height="4" rx="2" fill="#D9DFE7"/>
</g>
<rect x="4" y="58" width="148" height="4" rx="2" fill="url(#paint0_linear_681_8419)"/>
<path d="M492.732 51C491.987 49.7084 490.157 49.6681 489.344 50.8789L489.268 51L481.474 64.5C480.704 65.8333 481.666 67.5 483.206 67.5L498.794 67.5C500.285 67.5 501.236 65.9359 500.594 64.626L500.526 64.5L492.732 51Z" fill="#D9DFE7" stroke="#F3F5F7" stroke-width="2"/>
<path d="M676.268 69C677.013 70.2916 678.843 70.3319 679.656 69.1211L679.732 69L687.526 55.5C688.296 54.1667 687.334 52.5 685.794 52.5H670.206C668.715 52.5 667.764 54.0641 668.406 55.374L668.474 55.5L676.268 69Z" fill="#D9DFE7" stroke="#F3F5F7" stroke-width="2"/>
<path d="M855.732 51C854.987 49.7084 853.157 49.6681 852.344 50.8789L852.268 51L844.474 64.5C843.704 65.8333 844.666 67.5 846.206 67.5L861.794 67.5C863.285 67.5 864.236 65.9359 863.594 64.626L863.526 64.5L855.732 51Z" fill="#D9DFE7" stroke="#F3F5F7" stroke-width="2"/>
<path d="M99 8C99 3.58172 102.582 0 107 0H188C192.418 0 196 3.58172 196 8V28C196 32.4183 192.418 36 188 36H107C102.582 36 99 32.4183 99 28V8Z" fill="#F3F5F7"/>
<path d="M118.492 8.1875C118.576 8.1875 118.698 8.20052 118.859 8.22656C119.021 8.2474 119.172 8.28646 119.312 8.34375L119.148 9.17969C119.044 9.14844 118.93 9.1224 118.805 9.10156C118.685 9.07552 118.581 9.0625 118.492 9.0625C118.154 9.0625 117.885 9.16406 117.688 9.36719C117.495 9.57031 117.398 9.78125 117.398 10C117.398 10.1094 117.411 10.1797 117.438 10.2109C117.469 10.237 117.539 10.25 117.648 10.25H118.375C118.682 10.25 118.917 10.3333 119.078 10.5C119.245 10.6667 119.328 10.875 119.328 11.125C119.328 11.5938 119.208 11.9844 118.969 12.2969C118.729 12.6094 118.401 12.8438 117.984 13C117.573 13.151 117.107 13.2266 116.586 13.2266C116.289 13.2266 116.016 13.1979 115.766 13.1406C115.521 13.0833 115.294 13.0078 115.086 12.9141L115.477 12.0938C115.633 12.1667 115.797 12.2266 115.969 12.2734C116.146 12.3203 116.357 12.3438 116.602 12.3438C116.888 12.3438 117.177 12.3047 117.469 12.2266C117.76 12.1484 118.005 12.0312 118.203 11.875C118.401 11.7188 118.5 11.5208 118.5 11.2812C118.5 11.2344 118.471 11.2005 118.414 11.1797C118.357 11.1536 118.281 11.1406 118.188 11.1406H117.609C117.266 11.1406 116.997 11.0495 116.805 10.8672C116.617 10.6797 116.523 10.4115 116.523 10.0625C116.523 9.67708 116.617 9.34635 116.805 9.07031C116.992 8.78906 117.234 8.57292 117.531 8.42188C117.833 8.26562 118.154 8.1875 118.492 8.1875ZM121.062 22C120.568 22 120.135 21.9323 119.766 21.7969C119.401 21.6562 119.099 21.4479 118.859 21.1719C118.62 20.8906 118.443 20.5417 118.328 20.125C118.021 20.3854 117.701 20.5833 117.367 20.7188C117.039 20.849 116.68 20.9141 116.289 20.9141C115.466 20.9141 114.781 20.6927 114.234 20.25C113.688 19.8021 113.414 19.1589 113.414 18.3203C113.414 17.8516 113.513 17.4297 113.711 17.0547C113.914 16.6797 114.198 16.3411 114.562 16.0391C114.927 15.737 115.354 15.4714 115.844 15.2422C116.339 15.0078 116.875 14.8021 117.453 14.625L117.398 14.25L119.055 13.9141L119.773 18.8516C119.826 19.2161 119.958 19.5078 120.172 19.7266C120.385 19.9453 120.693 20.0547 121.094 20.0547H121.336V22H121.062ZM117.945 17.9062C117.945 17.8281 117.94 17.7474 117.93 17.6641C117.919 17.5807 117.906 17.4922 117.891 17.3984L117.734 16.3984C117.37 16.5286 117.034 16.6641 116.727 16.8047C116.419 16.9401 116.151 17.0833 115.922 17.2344C115.693 17.3854 115.513 17.5469 115.383 17.7188C115.258 17.8854 115.195 18.0599 115.195 18.2422C115.195 18.5078 115.294 18.7161 115.492 18.8672C115.69 19.013 115.953 19.0859 116.281 19.0859C116.547 19.0859 116.807 19.0417 117.062 18.9531C117.318 18.8646 117.529 18.7318 117.695 18.5547C117.862 18.3776 117.945 18.1615 117.945 17.9062ZM125.914 9.84375L127.156 11.0781L125.914 12.3281L124.672 11.0781L125.914 9.84375ZM123.289 9.84375L124.539 11.0781L123.289 12.3281L122.055 11.0781L123.289 9.84375ZM124.875 17.3281C125.089 17.3281 125.302 17.3125 125.516 17.2812C125.729 17.25 125.943 17.2083 126.156 17.1562C126.125 16.9375 126.076 16.7109 126.008 16.4766C125.945 16.237 125.859 16.0182 125.75 15.8203C125.641 15.6172 125.508 15.4531 125.352 15.3281C125.195 15.2031 125.008 15.1406 124.789 15.1406C124.534 15.1406 124.323 15.2188 124.156 15.375C123.99 15.526 123.865 15.7135 123.781 15.9375C123.703 16.1615 123.664 16.3828 123.664 16.6016C123.664 16.9089 123.773 17.1068 123.992 17.1953C124.216 17.2839 124.51 17.3281 124.875 17.3281ZM124 20.0547C124.5 20.0547 124.911 20.0286 125.234 19.9766C125.562 19.9245 125.807 19.8151 125.969 19.6484C126.135 19.4766 126.219 19.2161 126.219 18.8672C126.005 18.9141 125.784 18.9531 125.555 18.9844C125.331 19.0104 125.096 19.0234 124.852 19.0234C123.945 19.0234 123.24 18.8359 122.734 18.4609C122.234 18.0807 121.984 17.487 121.984 16.6797C121.984 16.138 122.096 15.6068 122.32 15.0859C122.549 14.5599 122.875 14.125 123.297 13.7812C123.719 13.4323 124.221 13.2578 124.805 13.2578C125.357 13.2578 125.831 13.3984 126.227 13.6797C126.622 13.9557 126.945 14.3281 127.195 14.7969C127.451 15.2604 127.638 15.7839 127.758 16.3672C127.878 16.9453 127.938 17.5391 127.938 18.1484C127.938 18.9453 127.859 19.5964 127.703 20.1016C127.547 20.6068 127.305 20.9974 126.977 21.2734C126.654 21.5495 126.24 21.7396 125.734 21.8438C125.229 21.9479 124.62 22 123.906 22H121.031V20.0547H124ZM133.781 22C133.5 22 133.25 21.9661 133.031 21.8984C132.812 21.8307 132.633 21.7526 132.492 21.6641C132.378 22.4141 132.135 23.1016 131.766 23.7266C131.401 24.3568 130.898 24.8854 130.258 25.3125C129.617 25.7448 128.828 26.0521 127.891 26.2344L127.234 24.4688C128.021 24.2969 128.68 24.0573 129.211 23.75C129.742 23.4479 130.143 23.0573 130.414 22.5781C130.685 22.1042 130.82 21.5286 130.82 20.8516C130.82 20.388 130.755 19.8802 130.625 19.3281C130.495 18.776 130.344 18.2474 130.172 17.7422L131.969 17.1484L132.406 18.8672C132.505 19.2422 132.654 19.5339 132.852 19.7422C133.055 19.9505 133.336 20.0547 133.695 20.0547H133.992V22H133.781ZM139.047 23.0234L140.352 24.3281L139.047 25.625L137.75 24.3281L139.047 23.0234ZM133.688 20.0547H135.016C135.557 20.0547 136.062 20.013 136.531 19.9297C137.005 19.8411 137.471 19.7161 137.93 19.5547C138.388 19.3932 138.867 19.1979 139.367 18.9688C139.872 18.7344 140.432 18.4714 141.047 18.1797C140.656 18.0339 140.286 17.8932 139.938 17.7578C139.589 17.6172 139.268 17.4922 138.977 17.3828C138.69 17.2682 138.443 17.1771 138.234 17.1094C138.031 17.0417 137.88 17.0078 137.781 17.0078C137.484 17.0078 137.219 17.099 136.984 17.2812C136.755 17.4583 136.557 17.6562 136.391 17.875L136.055 18.2969L134.516 17.5469L134.773 17.1172C135.133 16.5339 135.56 16.0547 136.055 15.6797C136.549 15.3047 137.128 15.1172 137.789 15.1172C138.07 15.1172 138.398 15.1849 138.773 15.3203C139.148 15.4505 139.555 15.6172 139.992 15.8203C140.435 16.0182 140.891 16.2188 141.359 16.4219C141.828 16.6198 142.294 16.7891 142.758 16.9297C143.221 17.0651 143.664 17.138 144.086 17.1484V18.9453C143.758 18.987 143.432 19.0651 143.109 19.1797C142.786 19.2943 142.432 19.4453 142.047 19.6328C141.661 19.8203 141.216 20.0495 140.711 20.3203C140.044 20.6745 139.417 20.9766 138.828 21.2266C138.245 21.4766 137.648 21.6693 137.039 21.8047C136.43 21.9349 135.747 22 134.992 22H133.688V20.0547ZM154.195 15.5L155.5 16.8047L154.195 18.1016L152.898 16.8047L154.195 15.5ZM154.281 24.1016C155.078 24.1016 155.701 23.9714 156.148 23.7109C156.602 23.4557 156.922 23.112 157.109 22.6797C157.297 22.2526 157.391 21.776 157.391 21.25C157.391 20.6667 157.302 20.0755 157.125 19.4766C156.948 18.8776 156.763 18.3359 156.57 17.8516L158.375 17.1641L158.984 19.0391C159.078 19.3307 159.227 19.5729 159.43 19.7656C159.633 19.9583 159.922 20.0547 160.297 20.0547H160.602V22H160.328C160.052 22 159.826 21.9766 159.648 21.9297C159.471 21.8776 159.305 21.7917 159.148 21.6719C159.081 22.5417 158.854 23.3021 158.469 23.9531C158.089 24.6094 157.549 25.1172 156.852 25.4766C156.159 25.8359 155.302 26.0156 154.281 26.0156C153.161 26.0156 152.247 25.8047 151.539 25.3828C150.831 24.9609 150.31 24.3906 149.977 23.6719C149.648 22.9583 149.484 22.1562 149.484 21.2656C149.484 20.6719 149.547 20.0599 149.672 19.4297C149.802 18.7943 149.984 18.1667 150.219 17.5469L151.867 18.1953C151.695 18.7161 151.547 19.237 151.422 19.7578C151.302 20.2734 151.242 20.763 151.242 21.2266C151.242 21.7526 151.336 22.2318 151.523 22.6641C151.711 23.1016 152.023 23.4505 152.461 23.7109C152.904 23.9714 153.51 24.1016 154.281 24.1016ZM160.297 20.0547H161.477V22H160.297V20.0547ZM163.664 23.0938L164.906 24.3281L163.664 25.5781L162.422 24.3281L163.664 23.0938ZM161.039 23.0938L162.289 24.3281L161.039 25.5781L159.805 24.3281L161.039 23.0938ZM163.57 16.9141L165.281 16.7109L165.43 18.7891C165.445 19.0755 165.505 19.3151 165.609 19.5078C165.714 19.6953 165.862 19.8333 166.055 19.9219C166.253 20.0104 166.503 20.0547 166.805 20.0547H166.969V22H166.789C166.43 22 166.109 21.9557 165.828 21.8672C165.547 21.7786 165.299 21.6536 165.086 21.4922C164.878 21.3307 164.695 21.1406 164.539 20.9219C164.242 21.2708 163.87 21.5391 163.422 21.7266C162.979 21.9089 162.51 22 162.016 22H161.266V20.0547H162.016C162.625 20.0547 163.049 19.9401 163.289 19.7109C163.529 19.4766 163.648 19.0807 163.648 18.5234C163.648 18.237 163.641 17.9609 163.625 17.6953C163.615 17.4297 163.596 17.1693 163.57 16.9141ZM166.656 20.0547H167.273C167.846 20.0547 168.221 19.9089 168.398 19.6172C168.576 19.3255 168.664 18.9167 168.664 18.3906V11.1172H170.469V18.5078C170.469 19.6589 170.216 20.5286 169.711 21.1172C169.206 21.7057 168.391 22 167.266 22H166.656V20.0547ZM178.258 20.4141C178.258 21.5547 178.047 22.5156 177.625 23.2969C177.208 24.0833 176.602 24.7161 175.805 25.1953C175.013 25.6745 174.06 26.0208 172.945 26.2344L172.289 24.4609C173.034 24.3151 173.69 24.1224 174.258 23.8828C174.826 23.6484 175.289 23.362 175.648 23.0234C176.008 22.6849 176.245 22.2995 176.359 21.8672C176.203 21.9089 176.031 21.9453 175.844 21.9766C175.656 22.0026 175.49 22.0156 175.344 22.0156C174.375 22.0156 173.622 21.8047 173.086 21.3828C172.555 20.9609 172.289 20.2839 172.289 19.3516C172.289 18.9453 172.349 18.5365 172.469 18.125C172.594 17.7083 172.776 17.3255 173.016 16.9766C173.255 16.6224 173.552 16.3385 173.906 16.125C174.26 15.9062 174.669 15.7969 175.133 15.7969C175.669 15.7969 176.133 15.9271 176.523 16.1875C176.914 16.4479 177.237 16.7995 177.492 17.2422C177.753 17.6797 177.945 18.1745 178.07 18.7266C178.195 19.2734 178.258 19.8359 178.258 20.4141ZM175.336 20.0859C175.56 20.0859 175.773 20.0729 175.977 20.0469C176.18 20.0156 176.362 19.9766 176.523 19.9297C176.497 19.6432 176.451 19.3672 176.383 19.1016C176.32 18.8359 176.234 18.5964 176.125 18.3828C176.016 18.1693 175.878 18.0026 175.711 17.8828C175.544 17.7578 175.346 17.6953 175.117 17.6953C174.831 17.6953 174.607 17.7891 174.445 17.9766C174.284 18.1589 174.169 18.375 174.102 18.625C174.039 18.8698 174.008 19.0885 174.008 19.2812C174.008 19.599 174.128 19.8125 174.367 19.9219C174.607 20.0312 174.93 20.0859 175.336 20.0859ZM181.883 11.1172V21.9922H180.07V11.1172H181.883Z" fill="#485462"/>
<path d="M225 90C225 85.5817 228.582 82 233 82H341C345.418 82 349 85.5817 349 90V110C349 114.418 345.418 118 341 118H233C228.582 118 225 114.418 225 110V90Z" fill="#F3F5F7"/>
<path d="M243.852 101.312C243.852 101.073 243.763 100.828 243.586 100.578C243.414 100.323 243.195 100.07 242.93 99.8203C242.669 99.5651 242.404 99.3203 242.133 99.0859C241.815 99.388 241.542 99.6693 241.312 99.9297C241.083 100.19 240.906 100.443 240.781 100.688C240.661 100.932 240.602 101.188 240.602 101.453C240.602 101.755 240.729 102.018 240.984 102.242C241.24 102.466 241.651 102.578 242.219 102.578C242.792 102.578 243.206 102.474 243.461 102.266C243.721 102.057 243.852 101.74 243.852 101.312ZM241.164 98.2188L240.859 97.9453L241.688 96.875C242.203 97.3021 242.672 97.7057 243.094 98.0859C243.521 98.4661 243.891 98.8359 244.203 99.1953C244.516 99.5547 244.755 99.9141 244.922 100.273C245.094 100.628 245.18 100.995 245.18 101.375C245.18 101.906 245.057 102.367 244.812 102.758C244.568 103.143 244.224 103.443 243.781 103.656C243.339 103.865 242.82 103.969 242.227 103.969C241.32 103.969 240.602 103.747 240.07 103.305C239.539 102.857 239.273 102.289 239.273 101.602C239.273 100.997 239.435 100.435 239.758 99.9141C240.081 99.388 240.549 98.8229 241.164 98.2188ZM251.227 101.156C251.227 101.021 251.195 100.846 251.133 100.633C251.076 100.414 251.005 100.211 250.922 100.023L249.539 96.8906L250.758 96.3203L252.531 100.492C252.771 101.055 252.979 101.487 253.156 101.789C253.339 102.091 253.516 102.299 253.688 102.414C253.865 102.523 254.065 102.578 254.289 102.578H254.617V104H254.289C253.878 104 253.542 103.951 253.281 103.852C253.026 103.753 252.805 103.604 252.617 103.406C252.43 103.208 252.24 102.958 252.047 102.656C251.802 102.964 251.513 103.216 251.18 103.414C250.852 103.612 250.469 103.758 250.031 103.852C249.599 103.945 249.102 103.992 248.539 103.992C248.174 103.992 247.846 103.977 247.555 103.945C247.263 103.909 246.987 103.859 246.727 103.797V102.383C247.044 102.456 247.339 102.51 247.609 102.547C247.885 102.578 248.156 102.594 248.422 102.594C249.052 102.594 249.573 102.539 249.984 102.43C250.401 102.32 250.711 102.159 250.914 101.945C251.122 101.732 251.227 101.469 251.227 101.156ZM254.297 102.578H254.922V104H254.297V102.578ZM257.117 105.242L258.211 106.328L257.117 107.43L256.031 106.328L257.117 105.242ZM254.523 105.242L255.617 106.328L254.523 107.43L253.438 106.328L254.523 105.242ZM256.008 104H254.734V102.578H255.992C256.513 102.578 256.865 102.427 257.047 102.125C257.234 101.823 257.328 101.44 257.328 100.977C257.328 100.638 257.297 100.276 257.234 99.8906C257.172 99.5052 257.104 99.1172 257.031 98.7266L258.391 98.3828C258.479 98.7995 258.549 99.2083 258.602 99.6094C258.654 100.01 258.68 100.393 258.68 100.758C258.68 101.383 258.594 101.94 258.422 102.43C258.25 102.919 257.969 103.305 257.578 103.586C257.188 103.862 256.664 104 256.008 104ZM261.969 93.2422V103.992H260.648V93.2422H261.969ZM272.852 107.945C271.727 107.945 270.826 107.74 270.148 107.328C269.477 106.917 268.99 106.367 268.688 105.68C268.391 104.997 268.242 104.247 268.242 103.43C268.242 102.878 268.299 102.312 268.414 101.734C268.529 101.151 268.685 100.583 268.883 100.031L270.125 100.531C269.974 101.01 269.846 101.503 269.742 102.008C269.638 102.513 269.586 103.003 269.586 103.477C269.586 104.039 269.685 104.552 269.883 105.016C270.086 105.479 270.424 105.849 270.898 106.125C271.372 106.401 272.023 106.539 272.852 106.539C273.404 106.539 273.914 106.484 274.383 106.375C274.857 106.271 275.268 106.128 275.617 105.945C275.966 105.763 276.237 105.555 276.43 105.32C276.628 105.091 276.727 104.854 276.727 104.609C276.727 104.443 276.677 104.286 276.578 104.141C276.479 103.995 276.299 103.922 276.039 103.922H274.773C274.388 103.922 274.06 103.875 273.789 103.781C273.523 103.682 273.31 103.542 273.148 103.359C272.987 103.177 272.87 102.956 272.797 102.695C272.724 102.435 272.688 102.141 272.688 101.812C272.688 101.297 272.768 100.812 272.93 100.359C273.091 99.901 273.323 99.4974 273.625 99.1484C273.927 98.7943 274.292 98.5182 274.719 98.3203C275.146 98.1224 275.628 98.0234 276.164 98.0234C276.435 98.0234 276.719 98.0599 277.016 98.1328C277.318 98.2057 277.62 98.3438 277.922 98.5469L277.477 99.7344C277.263 99.625 277.049 99.5469 276.836 99.5C276.622 99.4479 276.398 99.4219 276.164 99.4219C275.721 99.4219 275.341 99.5286 275.023 99.7422C274.711 99.9557 274.471 100.245 274.305 100.609C274.138 100.969 274.055 101.37 274.055 101.812C274.055 102.057 274.104 102.237 274.203 102.352C274.302 102.461 274.503 102.516 274.805 102.516H276.117C276.596 102.516 276.971 102.604 277.242 102.781C277.513 102.958 277.703 103.203 277.812 103.516C277.927 103.823 277.984 104.177 277.984 104.578C277.984 105.016 277.872 105.435 277.648 105.836C277.424 106.237 277.094 106.596 276.656 106.914C276.224 107.232 275.688 107.482 275.047 107.664C274.411 107.852 273.68 107.945 272.852 107.945ZM281.992 95.9609L283.125 97.0938L281.992 98.2266L280.859 97.0938L281.992 95.9609ZM279.133 108.203L278.672 106.961C279.521 106.779 280.198 106.5 280.703 106.125C281.208 105.755 281.573 105.31 281.797 104.789C282.026 104.268 282.141 103.693 282.141 103.062C282.141 102.62 282.091 102.156 281.992 101.672C281.898 101.182 281.766 100.685 281.594 100.18L282.891 99.7422C283.073 100.263 283.211 100.784 283.305 101.305C283.404 101.826 283.453 102.333 283.453 102.828C283.453 103.698 283.299 104.503 282.992 105.242C282.69 105.987 282.219 106.617 281.578 107.133C280.943 107.654 280.128 108.01 279.133 108.203ZM285.445 93.2422H286.766V100.711C286.766 101.445 286.901 101.94 287.172 102.195C287.443 102.451 287.852 102.578 288.398 102.578H288.594V104H288.398C287.404 104 286.661 103.737 286.172 103.211C285.688 102.68 285.445 101.844 285.445 100.703V93.2422ZM293.727 104C293.128 104 292.664 103.898 292.336 103.695C292.013 103.487 291.755 103.19 291.562 102.805C291.318 103.19 291.005 103.487 290.625 103.695C290.245 103.898 289.703 104 289 104H288.281V102.578H289.016C289.464 102.578 289.828 102.526 290.109 102.422C290.391 102.312 290.599 102.133 290.734 101.883C290.87 101.633 290.938 101.289 290.938 100.852C290.938 100.758 290.935 100.656 290.93 100.547C290.924 100.438 290.917 100.307 290.906 100.156C290.896 100 290.88 99.8125 290.859 99.5938L292.164 99.4297L292.289 101.062C292.32 101.5 292.453 101.862 292.688 102.148C292.927 102.435 293.279 102.578 293.742 102.578C294.294 102.578 294.669 102.43 294.867 102.133C295.065 101.836 295.164 101.409 295.164 100.852C295.164 100.758 295.161 100.656 295.156 100.547C295.151 100.438 295.143 100.307 295.133 100.156C295.122 100 295.107 99.8125 295.086 99.5938L296.391 99.4297L296.516 101.062C296.542 101.484 296.654 101.844 296.852 102.141C297.049 102.432 297.37 102.578 297.812 102.578C298.099 102.578 298.323 102.505 298.484 102.359C298.651 102.208 298.768 102.01 298.836 101.766C298.909 101.516 298.945 101.247 298.945 100.961C298.945 100.701 298.927 100.438 298.891 100.172C298.854 99.9062 298.812 99.6562 298.766 99.4219C298.719 99.1823 298.674 98.9818 298.633 98.8203L299.969 98.4609C300.062 98.8099 300.138 99.1823 300.195 99.5781C300.253 99.9688 300.281 100.359 300.281 100.75C300.281 101.312 300.203 101.841 300.047 102.336C299.891 102.831 299.633 103.232 299.273 103.539C298.919 103.841 298.435 103.995 297.82 104C297.32 104 296.917 103.896 296.609 103.688C296.302 103.479 296.052 103.185 295.859 102.805C295.568 103.227 295.242 103.531 294.883 103.719C294.529 103.906 294.143 104 293.727 104ZM310.711 101.312C310.711 101.073 310.622 100.828 310.445 100.578C310.273 100.323 310.055 100.07 309.789 99.8203C309.529 99.5651 309.263 99.3203 308.992 99.0859C308.674 99.388 308.401 99.6693 308.172 99.9297C307.943 100.19 307.766 100.443 307.641 100.688C307.521 100.932 307.461 101.188 307.461 101.453C307.461 101.755 307.589 102.018 307.844 102.242C308.099 102.466 308.51 102.578 309.078 102.578C309.651 102.578 310.065 102.474 310.32 102.266C310.581 102.057 310.711 101.74 310.711 101.312ZM308.023 98.2188L307.719 97.9453L308.547 96.875C309.062 97.3021 309.531 97.7057 309.953 98.0859C310.38 98.4661 310.75 98.8359 311.062 99.1953C311.375 99.5547 311.615 99.9141 311.781 100.273C311.953 100.628 312.039 100.995 312.039 101.375C312.039 101.906 311.917 102.367 311.672 102.758C311.427 103.143 311.083 103.443 310.641 103.656C310.198 103.865 309.68 103.969 309.086 103.969C308.18 103.969 307.461 103.747 306.93 103.305C306.398 102.857 306.133 102.289 306.133 101.602C306.133 100.997 306.294 100.435 306.617 99.9141C306.94 99.388 307.409 98.8229 308.023 98.2188ZM315.359 102.594C316.036 102.594 316.596 102.536 317.039 102.422C317.482 102.302 317.812 102.128 318.031 101.898C318.25 101.669 318.359 101.383 318.359 101.039C318.359 100.711 318.25 100.372 318.031 100.023C317.812 99.6745 317.466 99.3099 316.992 98.9297C316.518 98.5443 315.896 98.1406 315.125 97.7188L315.742 96.4844C316.409 96.8281 316.99 97.1797 317.484 97.5391C317.984 97.8984 318.396 98.2682 318.719 98.6484C319.047 99.0286 319.292 99.4167 319.453 99.8125C319.615 100.203 319.695 100.604 319.695 101.016C319.695 101.667 319.547 102.214 319.25 102.656C318.953 103.099 318.495 103.432 317.875 103.656C317.255 103.875 316.456 103.984 315.477 103.984C315.138 103.984 314.807 103.969 314.484 103.938C314.167 103.906 313.867 103.859 313.586 103.797V102.383C313.924 102.451 314.24 102.503 314.531 102.539C314.828 102.576 315.104 102.594 315.359 102.594ZM321.664 93.2422H322.984V100.711C322.984 101.445 323.12 101.94 323.391 102.195C323.661 102.451 324.07 102.578 324.617 102.578H324.812V104H324.617C323.622 104 322.88 103.737 322.391 103.211C321.906 102.68 321.664 101.844 321.664 100.703V93.2422ZM324.484 102.578H325.109V104H324.484V102.578ZM327.305 105.242L328.398 106.328L327.305 107.43L326.219 106.328L327.305 105.242ZM324.711 105.242L325.805 106.328L324.711 107.43L323.625 106.328L324.711 105.242ZM327.438 99.3828L328.742 99.2266L328.867 101.055C328.888 101.388 328.961 101.669 329.086 101.898C329.211 102.122 329.385 102.292 329.609 102.406C329.839 102.521 330.12 102.578 330.453 102.578H330.617V104H330.438C330.052 104 329.719 103.953 329.438 103.859C329.156 103.766 328.917 103.63 328.719 103.453C328.521 103.276 328.352 103.06 328.211 102.805C327.93 103.216 327.56 103.518 327.102 103.711C326.643 103.904 326.164 104 325.664 104H324.914V102.578H325.664C326.326 102.578 326.797 102.43 327.078 102.133C327.365 101.836 327.508 101.38 327.508 100.766C327.508 100.516 327.5 100.279 327.484 100.055C327.474 99.8307 327.458 99.6068 327.438 99.3828ZM330.312 102.578H331.492V104H330.312V102.578ZM332.555 104H331.281V102.578H332.539C333.06 102.578 333.411 102.427 333.594 102.125C333.781 101.823 333.875 101.44 333.875 100.977C333.875 100.638 333.844 100.276 333.781 99.8906C333.719 99.5052 333.651 99.1172 333.578 98.7266L334.938 98.3828C335.026 98.7995 335.096 99.2083 335.148 99.6094C335.201 100.01 335.227 100.393 335.227 100.758C335.227 101.383 335.141 101.94 334.969 102.43C334.797 102.919 334.516 103.305 334.125 103.586C333.734 103.862 333.211 104 332.555 104ZM332.336 106.961L333.391 108.016L332.336 109.07L331.281 108.016L332.336 106.961ZM333.672 104.984L334.727 106.039L333.672 107.094L332.617 106.039L333.672 104.984ZM331 104.984L332.055 106.039L331 107.094L329.945 106.039L331 104.984Z" fill="#5D6C7E"/>
<path d="M435.5 8C435.5 3.58172 439.082 0 443.5 0H528.5C532.918 0 536.5 3.58172 536.5 8V28C536.5 32.4183 532.918 36 528.5 36H443.5C439.082 36 435.5 32.4183 435.5 28V8Z" fill="#F3F5F7"/>
<path d="M457.086 22C456.576 22 456.141 21.9193 455.781 21.7578C455.427 21.5964 455.141 21.3646 454.922 21.0625C454.708 20.7552 454.56 20.3932 454.477 19.9766C454.174 20.2786 453.846 20.5104 453.492 20.6719C453.143 20.8333 452.75 20.9141 452.312 20.9141C451.568 20.9141 450.943 20.7135 450.438 20.3125C449.932 19.9115 449.68 19.3568 449.68 18.6484C449.68 18.2474 449.76 17.875 449.922 17.5312C450.083 17.1875 450.331 16.8672 450.664 16.5703C450.997 16.2734 451.419 16 451.93 15.75C452.445 15.4948 453.055 15.2578 453.758 15.0391L453.703 14.6641L454.953 14.4141L455.633 19.2109C455.695 19.6693 455.844 20.013 456.078 20.2422C456.318 20.4661 456.664 20.5781 457.117 20.5781H457.359V22H457.086ZM454.164 18.0703C454.164 17.9922 454.161 17.9167 454.156 17.8438C454.151 17.7708 454.143 17.6927 454.133 17.6094L453.938 16.3047C453.432 16.487 452.995 16.6693 452.625 16.8516C452.26 17.0286 451.961 17.2083 451.727 17.3906C451.492 17.5677 451.318 17.7526 451.203 17.9453C451.094 18.1328 451.039 18.3333 451.039 18.5469C451.039 18.8906 451.156 19.151 451.391 19.3281C451.625 19.5052 451.943 19.5938 452.344 19.5938C452.651 19.5938 452.943 19.5339 453.219 19.4141C453.5 19.2943 453.727 19.1198 453.898 18.8906C454.076 18.6615 454.164 18.388 454.164 18.0703ZM457.031 20.5781H457.656V22H457.031V20.5781ZM459.852 23.2422L460.945 24.3281L459.852 25.4297L458.766 24.3281L459.852 23.2422ZM457.258 23.2422L458.352 24.3281L457.258 25.4297L456.172 24.3281L457.258 23.2422ZM459.984 17.3828L461.289 17.2266L461.414 19.0547C461.435 19.388 461.508 19.6693 461.633 19.8984C461.758 20.1224 461.932 20.2917 462.156 20.4062C462.385 20.5208 462.667 20.5781 463 20.5781H463.164V22H462.984C462.599 22 462.266 21.9531 461.984 21.8594C461.703 21.7656 461.464 21.6302 461.266 21.4531C461.068 21.276 460.898 21.0599 460.758 20.8047C460.477 21.2161 460.107 21.5182 459.648 21.7109C459.19 21.9036 458.711 22 458.211 22H457.461V20.5781H458.211C458.872 20.5781 459.344 20.4297 459.625 20.1328C459.911 19.8359 460.055 19.3802 460.055 18.7656C460.055 18.5156 460.047 18.2786 460.031 18.0547C460.021 17.8307 460.005 17.6068 459.984 17.3828ZM462.859 20.5781H463.516C464.141 20.5781 464.562 20.401 464.781 20.0469C465 19.6927 465.109 19.25 465.109 18.7188V11.2422H466.43V18.7109C466.43 19.7943 466.195 20.6146 465.727 21.1719C465.258 21.724 464.518 22 463.508 22H462.859V20.5781ZM473.961 20.6641C473.961 21.6745 473.773 22.5521 473.398 23.2969C473.029 24.0469 472.471 24.6615 471.727 25.1406C470.987 25.625 470.062 25.974 468.953 26.1875L468.492 24.9453C469.294 24.7891 469.987 24.5677 470.57 24.2812C471.159 23.9948 471.628 23.6406 471.977 23.2188C472.326 22.8021 472.542 22.3255 472.625 21.7891C472.427 21.8516 472.198 21.9062 471.938 21.9531C471.677 22 471.448 22.0234 471.25 22.0234C470.312 22.0234 469.602 21.8229 469.117 21.4219C468.638 21.0208 468.398 20.4141 468.398 19.6016C468.398 19.2161 468.456 18.8307 468.57 18.4453C468.69 18.0547 468.862 17.6979 469.086 17.375C469.315 17.0469 469.594 16.7839 469.922 16.5859C470.25 16.388 470.622 16.2891 471.039 16.2891C471.534 16.2891 471.964 16.4115 472.328 16.6562C472.698 16.901 473.003 17.2318 473.242 17.6484C473.482 18.0651 473.661 18.5339 473.781 19.0547C473.901 19.5755 473.961 20.112 473.961 20.6641ZM471.289 20.6094C471.508 20.6094 471.734 20.5938 471.969 20.5625C472.203 20.526 472.432 20.474 472.656 20.4062C472.63 19.9688 472.576 19.5833 472.492 19.25C472.414 18.9115 472.307 18.6276 472.172 18.3984C472.036 18.1641 471.872 17.9896 471.68 17.875C471.492 17.7552 471.273 17.6953 471.023 17.6953C470.68 17.6953 470.411 17.8021 470.219 18.0156C470.031 18.2292 469.898 18.4818 469.82 18.7734C469.747 19.0599 469.711 19.3203 469.711 19.5547C469.711 19.9349 469.841 20.2057 470.102 20.3672C470.362 20.5286 470.758 20.6094 471.289 20.6094ZM477.25 11.2422V21.9922H475.93V11.2422H477.25ZM488.039 15.3672L489.172 16.5L488.039 17.6328L486.906 16.5L488.039 15.3672ZM488.133 24.0469C489.003 24.0469 489.674 23.9036 490.148 23.6172C490.628 23.3359 490.961 22.9635 491.148 22.5C491.341 22.0417 491.438 21.5495 491.438 21.0234C491.438 20.4036 491.354 19.7917 491.188 19.1875C491.021 18.5833 490.865 18.0885 490.719 17.7031L492.055 17.1641C492.299 17.8359 492.484 18.4896 492.609 19.125C492.74 19.7552 492.805 20.3568 492.805 20.9297C492.805 21.8099 492.641 22.5911 492.312 23.2734C491.99 23.9557 491.484 24.4896 490.797 24.875C490.109 25.2604 489.221 25.4531 488.133 25.4531C487.008 25.4531 486.107 25.2474 485.43 24.8359C484.758 24.4245 484.271 23.875 483.969 23.1875C483.672 22.5052 483.523 21.7552 483.523 20.9375C483.523 20.3854 483.581 19.8203 483.695 19.2422C483.81 18.6589 483.966 18.0911 484.164 17.5391L485.406 18.0391C485.255 18.5182 485.128 19.0104 485.023 19.5156C484.919 20.0208 484.867 20.5104 484.867 20.9844C484.867 21.5469 484.966 22.0599 485.164 22.5234C485.367 22.987 485.706 23.3568 486.18 23.6328C486.654 23.9089 487.305 24.0469 488.133 24.0469ZM496.094 11.2422V21.9922H494.773V11.2422H496.094ZM502.328 22C501.969 22 501.667 21.9531 501.422 21.8594C501.182 21.7604 500.995 21.6562 500.859 21.5469C500.781 22.2292 500.591 22.888 500.289 23.5234C499.992 24.1641 499.544 24.7214 498.945 25.1953C498.346 25.6693 497.555 26.0026 496.57 26.1953L496.109 24.9609C496.958 24.7786 497.635 24.5 498.141 24.125C498.646 23.7552 499.01 23.3099 499.234 22.7891C499.464 22.2682 499.578 21.6927 499.578 21.0625C499.578 20.6198 499.529 20.1562 499.43 19.6719C499.336 19.1823 499.203 18.6849 499.031 18.1797L500.328 17.7422L500.75 19.375C500.865 19.8125 501.047 20.1224 501.297 20.3047C501.547 20.487 501.862 20.5781 502.242 20.5781H502.539V22H502.328ZM502.227 20.5781H502.602V22H502.227V20.5781ZM503.836 23.1953L504.969 24.3281L503.836 25.4609L502.703 24.3281L503.836 23.1953ZM503.664 22H502.391V20.5781H503.648C504.169 20.5781 504.521 20.4271 504.703 20.125C504.891 19.8229 504.984 19.4401 504.984 18.9766C504.984 18.638 504.953 18.276 504.891 17.8906C504.828 17.5052 504.76 17.1172 504.688 16.7266L506.047 16.3828C506.135 16.7995 506.206 17.2083 506.258 17.6094C506.31 18.0104 506.336 18.3932 506.336 18.7578C506.336 19.3828 506.25 19.9401 506.078 20.4297C505.906 20.9193 505.625 21.3047 505.234 21.5859C504.844 21.862 504.32 22 503.664 22ZM507.086 26.2031L506.625 24.9609C507.474 24.7786 508.151 24.5 508.656 24.125C509.161 23.7552 509.526 23.3099 509.75 22.7891C509.979 22.2682 510.094 21.6927 510.094 21.0625C510.094 20.6198 510.044 20.1562 509.945 19.6719C509.852 19.1823 509.719 18.6849 509.547 18.1797L510.844 17.7422C511.026 18.263 511.164 18.7839 511.258 19.3047C511.357 19.8255 511.406 20.3333 511.406 20.8281C511.406 21.6979 511.253 22.5026 510.945 23.2422C510.643 23.987 510.172 24.6172 509.531 25.1328C508.896 25.6536 508.081 26.0104 507.086 26.2031ZM513.398 11.2422H514.719V18.7109C514.719 19.4453 514.854 19.9401 515.125 20.1953C515.396 20.4505 515.805 20.5781 516.352 20.5781H516.547V22H516.352C515.357 22 514.615 21.737 514.125 21.2109C513.641 20.6797 513.398 19.8438 513.398 18.7031V11.2422ZM518.109 14.4219C518.474 14.6771 518.852 14.9427 519.242 15.2188C519.633 15.4948 520.01 15.7839 520.375 16.0859C520.74 16.388 521.068 16.7083 521.359 17.0469C521.656 17.3802 521.891 17.7318 522.062 18.1016C522.234 18.4714 522.32 18.8594 522.32 19.2656C522.32 19.9115 522.172 20.4349 521.875 20.8359C521.583 21.237 521.13 21.5312 520.516 21.7188C519.901 21.9062 519.109 22 518.141 22H516.234V20.5781H518.133C518.81 20.5781 519.354 20.5417 519.766 20.4688C520.182 20.3906 520.484 20.2552 520.672 20.0625C520.865 19.8646 520.961 19.5885 520.961 19.2344C520.961 18.9583 520.88 18.6875 520.719 18.4219C520.562 18.1562 520.349 17.8958 520.078 17.6406C519.812 17.3802 519.516 17.125 519.188 16.875C518.859 16.625 518.521 16.3776 518.172 16.1328C517.828 15.8828 517.503 15.6354 517.195 15.3906C517.029 15.2552 516.901 15.0964 516.812 14.9141C516.724 14.7318 516.68 14.5495 516.68 14.3672C516.68 14.1536 516.737 13.9531 516.852 13.7656C516.971 13.5729 517.156 13.4271 517.406 13.3281L523.023 11.0469V12.4297L518.109 14.4219Z" fill="#5D6C7E"/>
<path d="M758 8C758 3.58172 761.582 0 766 0H927C931.418 0 935 3.58172 935 8V28C935 32.4183 931.418 36 927 36H766C761.582 36 758 32.4183 758 28V8Z" fill="#F3F5F7"/>
<path d="M777.102 19.3125C777.102 19.0729 777.013 18.8281 776.836 18.5781C776.664 18.3229 776.445 18.0703 776.18 17.8203C775.919 17.5651 775.654 17.3203 775.383 17.0859C775.065 17.388 774.792 17.6693 774.562 17.9297C774.333 18.1901 774.156 18.4427 774.031 18.6875C773.911 18.9323 773.852 19.1875 773.852 19.4531C773.852 19.7552 773.979 20.0182 774.234 20.2422C774.49 20.4661 774.901 20.5781 775.469 20.5781C776.042 20.5781 776.456 20.474 776.711 20.2656C776.971 20.0573 777.102 19.7396 777.102 19.3125ZM774.414 16.2188L774.109 15.9453L774.938 14.875C775.453 15.3021 775.922 15.7057 776.344 16.0859C776.771 16.4661 777.141 16.8359 777.453 17.1953C777.766 17.5547 778.005 17.9141 778.172 18.2734C778.344 18.6276 778.43 18.9948 778.43 19.375C778.43 19.9062 778.307 20.3672 778.062 20.7578C777.818 21.1432 777.474 21.4427 777.031 21.6562C776.589 21.8646 776.07 21.9688 775.477 21.9688C774.57 21.9688 773.852 21.7474 773.32 21.3047C772.789 20.8568 772.523 20.2891 772.523 19.6016C772.523 18.9974 772.685 18.4349 773.008 17.9141C773.331 17.388 773.799 16.8229 774.414 16.2188ZM780.398 11.2422H781.719V18.7109C781.719 19.4453 781.854 19.9401 782.125 20.1953C782.396 20.4505 782.805 20.5781 783.352 20.5781H783.547V22H783.352C782.357 22 781.615 21.737 781.125 21.2109C780.641 20.6797 780.398 19.8438 780.398 18.7031V11.2422ZM788.312 17.7812C788.052 17.7812 787.815 17.8698 787.602 18.0469C787.388 18.2188 787.195 18.4427 787.023 18.7188C786.852 18.9948 786.698 19.2812 786.562 19.5781C786.729 19.75 786.893 19.9036 787.055 20.0391C787.216 20.1693 787.375 20.2839 787.531 20.3828C787.75 20.5234 787.956 20.6276 788.148 20.6953C788.346 20.763 788.521 20.7969 788.672 20.7969C789.062 20.7969 789.352 20.6979 789.539 20.5C789.732 20.3021 789.828 20.013 789.828 19.6328C789.828 19.0911 789.693 18.6484 789.422 18.3047C789.156 17.9557 788.786 17.7812 788.312 17.7812ZM788.688 22.1797C788.339 22.1797 788.01 22.1276 787.703 22.0234C787.396 21.9245 787.094 21.7734 786.797 21.5703C786.5 21.3672 786.193 21.1146 785.875 20.8125C785.651 21.0677 785.435 21.2839 785.227 21.4609C785.018 21.638 784.786 21.7734 784.531 21.8672C784.276 21.9557 783.958 22 783.578 22H783.234V20.5781H783.539C783.888 20.5781 784.182 20.4792 784.422 20.2812C784.661 20.0781 784.875 19.8177 785.062 19.5C785.25 19.1823 785.435 18.8464 785.617 18.4922C785.805 18.1328 786.013 17.7943 786.242 17.4766C786.471 17.1589 786.747 16.901 787.07 16.7031C787.398 16.5 787.802 16.3984 788.281 16.3984C788.859 16.3984 789.362 16.5391 789.789 16.8203C790.221 17.0964 790.555 17.4688 790.789 17.9375C791.029 18.4062 791.148 18.9297 791.148 19.5078C791.148 20.0703 791.052 20.5521 790.859 20.9531C790.667 21.349 790.385 21.6536 790.016 21.8672C789.651 22.0755 789.208 22.1797 788.688 22.1797ZM796.586 26.2031L796.125 24.9609C796.974 24.7786 797.651 24.5 798.156 24.125C798.661 23.7552 799.026 23.3099 799.25 22.7891C799.479 22.2682 799.594 21.6927 799.594 21.0625C799.594 20.6198 799.544 20.1562 799.445 19.6719C799.352 19.1823 799.219 18.6849 799.047 18.1797L800.344 17.7422C800.526 18.263 800.664 18.7839 800.758 19.3047C800.857 19.8255 800.906 20.3333 800.906 20.8281C800.906 21.6979 800.753 22.5026 800.445 23.2422C800.143 23.987 799.672 24.6172 799.031 25.1328C798.396 25.6536 797.581 26.0104 796.586 26.2031ZM804.25 20.5938C804.927 20.5938 805.487 20.5365 805.93 20.4219C806.372 20.3021 806.703 20.1276 806.922 19.8984C807.141 19.6693 807.25 19.3828 807.25 19.0391C807.25 18.7109 807.141 18.3724 806.922 18.0234C806.703 17.6745 806.357 17.3099 805.883 16.9297C805.409 16.5443 804.786 16.1406 804.016 15.7188L804.633 14.4844C805.299 14.8281 805.88 15.1797 806.375 15.5391C806.875 15.8984 807.286 16.2682 807.609 16.6484C807.938 17.0286 808.182 17.4167 808.344 17.8125C808.505 18.2031 808.586 18.6042 808.586 19.0156C808.586 19.6667 808.438 20.2135 808.141 20.6562C807.844 21.099 807.385 21.4323 806.766 21.6562C806.146 21.875 805.346 21.9844 804.367 21.9844C804.029 21.9844 803.698 21.9688 803.375 21.9375C803.057 21.9062 802.758 21.8594 802.477 21.7969V20.3828C802.815 20.4505 803.13 20.5026 803.422 20.5391C803.719 20.5755 803.995 20.5938 804.25 20.5938ZM819.781 22C819.422 22 819.12 21.9531 818.875 21.8594C818.635 21.7604 818.448 21.6562 818.312 21.5469C818.234 22.2292 818.044 22.888 817.742 23.5234C817.445 24.1641 816.997 24.7214 816.398 25.1953C815.799 25.6693 815.008 26.0026 814.023 26.1953L813.562 24.9609C814.411 24.7786 815.089 24.5 815.594 24.125C816.099 23.7552 816.464 23.3099 816.688 22.7891C816.917 22.2682 817.031 21.6927 817.031 21.0625C817.031 20.6198 816.982 20.1562 816.883 19.6719C816.789 19.1823 816.656 18.6849 816.484 18.1797L817.781 17.7422L818.203 19.375C818.318 19.8125 818.5 20.1224 818.75 20.3047C819 20.487 819.315 20.5781 819.695 20.5781H819.992V22H819.781ZM819.68 20.5781H820.055V22H819.68V20.5781ZM821.289 23.1953L822.422 24.3281L821.289 25.4609L820.156 24.3281L821.289 23.1953ZM821.117 22H819.844V20.5781H821.102C821.622 20.5781 821.974 20.4271 822.156 20.125C822.344 19.8229 822.438 19.4401 822.438 18.9766C822.438 18.638 822.406 18.276 822.344 17.8906C822.281 17.5052 822.214 17.1172 822.141 16.7266L823.5 16.3828C823.589 16.7995 823.659 17.2083 823.711 17.6094C823.763 18.0104 823.789 18.3932 823.789 18.7578C823.789 19.3828 823.703 19.9401 823.531 20.4297C823.359 20.9193 823.078 21.3047 822.688 21.5859C822.297 21.862 821.773 22 821.117 22ZM824.539 26.2031L824.078 24.9609C824.927 24.7786 825.604 24.5 826.109 24.125C826.615 23.7552 826.979 23.3099 827.203 22.7891C827.432 22.2682 827.547 21.6927 827.547 21.0625C827.547 20.6198 827.497 20.1562 827.398 19.6719C827.305 19.1823 827.172 18.6849 827 18.1797L828.297 17.7422C828.479 18.263 828.617 18.7839 828.711 19.3047C828.81 19.8255 828.859 20.3333 828.859 20.8281C828.859 21.6979 828.706 22.5026 828.398 23.2422C828.096 23.987 827.625 24.6172 826.984 25.1328C826.349 25.6536 825.534 26.0104 824.539 26.2031ZM830.852 11.2422H832.172V18.7109C832.172 19.4453 832.307 19.9401 832.578 20.1953C832.849 20.4505 833.258 20.5781 833.805 20.5781H834V22H833.805C832.81 22 832.068 21.737 831.578 21.2109C831.094 20.6797 830.852 19.8438 830.852 18.7031V11.2422ZM835.562 14.4219C835.927 14.6771 836.305 14.9427 836.695 15.2188C837.086 15.4948 837.464 15.7839 837.828 16.0859C838.193 16.388 838.521 16.7083 838.812 17.0469C839.109 17.3802 839.344 17.7318 839.516 18.1016C839.688 18.4714 839.773 18.8594 839.773 19.2656C839.773 19.9115 839.625 20.4349 839.328 20.8359C839.036 21.237 838.583 21.5312 837.969 21.7188C837.354 21.9062 836.562 22 835.594 22H833.688V20.5781H835.586C836.263 20.5781 836.807 20.5417 837.219 20.4688C837.635 20.3906 837.938 20.2552 838.125 20.0625C838.318 19.8646 838.414 19.5885 838.414 19.2344C838.414 18.9583 838.333 18.6875 838.172 18.4219C838.016 18.1562 837.802 17.8958 837.531 17.6406C837.266 17.3802 836.969 17.125 836.641 16.875C836.312 16.625 835.974 16.3776 835.625 16.1328C835.281 15.8828 834.956 15.6354 834.648 15.3906C834.482 15.2552 834.354 15.0964 834.266 14.9141C834.177 14.7318 834.133 14.5495 834.133 14.3672C834.133 14.1536 834.19 13.9531 834.305 13.7656C834.424 13.5729 834.609 13.4271 834.859 13.3281L840.477 11.0469V12.4297L835.562 14.4219ZM852.797 11.6641C852.812 11.8516 852.826 12.0365 852.836 12.2188C852.846 12.401 852.852 12.5807 852.852 12.7578C852.852 13.4193 852.768 14.013 852.602 14.5391C852.435 15.0651 852.148 15.4818 851.742 15.7891C851.341 16.0911 850.784 16.2422 850.07 16.2422C849.867 16.2422 849.622 16.2292 849.336 16.2031C849.055 16.1719 848.758 16.1094 848.445 16.0156C848.518 16.5365 848.57 17.0365 848.602 17.5156C848.633 17.9948 848.651 18.4609 848.656 18.9141C848.661 19.3672 848.664 19.8125 848.664 20.25V22H847.32V20.2266C847.32 19.0651 847.281 17.9948 847.203 17.0156C847.13 16.0312 847 15.125 846.812 14.2969C846.625 13.4688 846.359 12.7031 846.016 12L847.242 11.5625C847.362 11.8854 847.471 12.1693 847.57 12.4141C847.674 12.6536 847.784 12.9349 847.898 13.2578C848.055 13.6797 848.224 14.0078 848.406 14.2422C848.594 14.4766 848.818 14.6406 849.078 14.7344C849.344 14.8281 849.669 14.875 850.055 14.875C850.466 14.875 850.781 14.7865 851 14.6094C851.219 14.4271 851.37 14.1953 851.453 13.9141C851.536 13.6328 851.578 13.3359 851.578 13.0234C851.578 12.7943 851.565 12.5755 851.539 12.3672C851.513 12.1589 851.484 11.9635 851.453 11.7812L852.797 11.6641ZM854.695 18.2656C854.695 17.8385 854.797 17.4505 855 17.1016C855.208 16.7526 855.487 16.4766 855.836 16.2734C856.185 16.0651 856.573 15.9609 857 15.9609C857.427 15.9609 857.815 16.0651 858.164 16.2734C858.513 16.4766 858.789 16.7526 858.992 17.1016C859.201 17.4505 859.305 17.8385 859.305 18.2656C859.305 18.6927 859.201 19.0807 858.992 19.4297C858.789 19.7786 858.513 20.0573 858.164 20.2656C857.815 20.4688 857.427 20.5703 857 20.5703C856.573 20.5703 856.185 20.4688 855.836 20.2656C855.487 20.0573 855.208 19.7786 855 19.4297C854.797 19.0807 854.695 18.6927 854.695 18.2656ZM855.891 18.2656C855.891 18.5729 855.997 18.8359 856.211 19.0547C856.43 19.2682 856.693 19.375 857 19.375C857.307 19.375 857.568 19.2682 857.781 19.0547C858 18.8359 858.109 18.5729 858.109 18.2656C858.109 17.9583 858 17.6979 857.781 17.4844C857.568 17.2656 857.307 17.1562 857 17.1562C856.693 17.1562 856.43 17.2656 856.211 17.4844C855.997 17.6979 855.891 17.9583 855.891 18.2656ZM861.445 18.2656C861.445 17.8385 861.547 17.4505 861.75 17.1016C861.958 16.7526 862.237 16.4766 862.586 16.2734C862.935 16.0651 863.323 15.9609 863.75 15.9609C864.177 15.9609 864.565 16.0651 864.914 16.2734C865.263 16.4766 865.539 16.7526 865.742 17.1016C865.951 17.4505 866.055 17.8385 866.055 18.2656C866.055 18.6927 865.951 19.0807 865.742 19.4297C865.539 19.7786 865.263 20.0573 864.914 20.2656C864.565 20.4688 864.177 20.5703 863.75 20.5703C863.323 20.5703 862.935 20.4688 862.586 20.2656C862.237 20.0573 861.958 19.7786 861.75 19.4297C861.547 19.0807 861.445 18.6927 861.445 18.2656ZM862.641 18.2656C862.641 18.5729 862.747 18.8359 862.961 19.0547C863.18 19.2682 863.443 19.375 863.75 19.375C864.057 19.375 864.318 19.2682 864.531 19.0547C864.75 18.8359 864.859 18.5729 864.859 18.2656C864.859 17.9583 864.75 17.6979 864.531 17.4844C864.318 17.2656 864.057 17.1562 863.75 17.1562C863.443 17.1562 863.18 17.2656 862.961 17.4844C862.747 17.6979 862.641 17.9583 862.641 18.2656ZM868.195 18.2656C868.195 17.8385 868.297 17.4505 868.5 17.1016C868.708 16.7526 868.987 16.4766 869.336 16.2734C869.685 16.0651 870.073 15.9609 870.5 15.9609C870.927 15.9609 871.315 16.0651 871.664 16.2734C872.013 16.4766 872.289 16.7526 872.492 17.1016C872.701 17.4505 872.805 17.8385 872.805 18.2656C872.805 18.6927 872.701 19.0807 872.492 19.4297C872.289 19.7786 872.013 20.0573 871.664 20.2656C871.315 20.4688 870.927 20.5703 870.5 20.5703C870.073 20.5703 869.685 20.4688 869.336 20.2656C868.987 20.0573 868.708 19.7786 868.5 19.4297C868.297 19.0807 868.195 18.6927 868.195 18.2656ZM869.391 18.2656C869.391 18.5729 869.497 18.8359 869.711 19.0547C869.93 19.2682 870.193 19.375 870.5 19.375C870.807 19.375 871.068 19.2682 871.281 19.0547C871.5 18.8359 871.609 18.5729 871.609 18.2656C871.609 17.9583 871.5 17.6979 871.281 17.4844C871.068 17.2656 870.807 17.1562 870.5 17.1562C870.193 17.1562 869.93 17.2656 869.711 17.4844C869.497 17.6979 869.391 17.9583 869.391 18.2656ZM881.398 13.9609L882.531 15.0938L881.398 16.2266L880.266 15.0938L881.398 13.9609ZM878.539 26.2031L878.078 24.9609C878.927 24.7786 879.604 24.5 880.109 24.125C880.615 23.7552 880.979 23.3099 881.203 22.7891C881.432 22.2682 881.547 21.6927 881.547 21.0625C881.547 20.6198 881.497 20.1562 881.398 19.6719C881.305 19.1823 881.172 18.6849 881 18.1797L882.297 17.7422C882.479 18.263 882.617 18.7839 882.711 19.3047C882.81 19.8255 882.859 20.3333 882.859 20.8281C882.859 21.6979 882.706 22.5026 882.398 23.2422C882.096 23.987 881.625 24.6172 880.984 25.1328C880.349 25.6536 879.534 26.0104 878.539 26.2031ZM886.172 11.2422V21.9922H884.852V11.2422H886.172ZM904.922 11.7266L905.977 12.7812L904.922 13.8359L903.867 12.7812L904.922 11.7266ZM906.258 13.7031L907.312 14.7578L906.258 15.8125L905.203 14.7578L906.258 13.7031ZM903.586 13.7031L904.641 14.7578L903.586 15.8125L902.531 14.7578L903.586 13.7031ZM897.055 24.6172C897.924 24.6172 898.596 24.474 899.07 24.1875C899.549 23.9062 899.883 23.5339 900.07 23.0703C900.263 22.612 900.359 22.1198 900.359 21.5938C900.359 20.974 900.276 20.362 900.109 19.7578C899.943 19.1536 899.786 18.6589 899.641 18.2734L900.977 17.7344L901.445 19.2109C901.591 19.6641 901.81 20.0052 902.102 20.2344C902.393 20.4635 902.779 20.5781 903.258 20.5781C903.81 20.5781 904.185 20.4297 904.383 20.1328C904.581 19.8359 904.68 19.4089 904.68 18.8516C904.68 18.7578 904.677 18.6562 904.672 18.5469C904.667 18.4375 904.659 18.3073 904.648 18.1562C904.638 18 904.622 17.8125 904.602 17.5938L905.906 17.4297L906.031 19.0625C906.057 19.4844 906.169 19.8438 906.367 20.1406C906.565 20.4323 906.885 20.5781 907.328 20.5781C907.589 20.5781 907.802 20.513 907.969 20.3828C908.141 20.2474 908.268 20.0521 908.352 19.7969C908.44 19.5417 908.484 19.2266 908.484 18.8516C908.484 18.6641 908.477 18.4688 908.461 18.2656C908.451 18.0625 908.432 17.7943 908.406 17.4609L909.711 17.3047L909.836 19.0625C909.867 19.5625 910.013 19.9401 910.273 20.1953C910.539 20.4505 910.909 20.5781 911.383 20.5781H911.617V22H911.398C910.852 22 910.396 21.901 910.031 21.7031C909.667 21.5 909.417 21.1979 909.281 20.7969C909.062 21.1823 908.81 21.4792 908.523 21.6875C908.242 21.8958 907.846 22 907.336 22C906.836 22 906.432 21.8958 906.125 21.6875C905.818 21.4792 905.568 21.1849 905.375 20.8047C905.083 21.2266 904.758 21.5312 904.398 21.7188C904.044 21.9062 903.659 22 903.242 22C902.898 22 902.602 21.9583 902.352 21.875C902.102 21.7865 901.893 21.6797 901.727 21.5547C901.721 22.4245 901.555 23.1953 901.227 23.8672C900.898 24.5443 900.391 25.0729 899.703 25.4531C899.021 25.8333 898.138 26.0234 897.055 26.0234C895.93 26.0234 895.029 25.8177 894.352 25.4062C893.68 24.9948 893.193 24.4453 892.891 23.7578C892.594 23.0755 892.445 22.3255 892.445 21.5078C892.445 20.9557 892.503 20.3906 892.617 19.8125C892.732 19.2292 892.888 18.6615 893.086 18.1094L894.328 18.6094C894.177 19.0885 894.049 19.5807 893.945 20.0859C893.841 20.5911 893.789 21.0807 893.789 21.5547C893.789 22.1172 893.888 22.6302 894.086 23.0938C894.289 23.5573 894.628 23.9271 895.102 24.2031C895.576 24.4792 896.227 24.6172 897.055 24.6172ZM911.297 20.5781H911.922V22H911.297V20.5781ZM914.117 23.2422L915.211 24.3281L914.117 25.4297L913.031 24.3281L914.117 23.2422ZM911.523 23.2422L912.617 24.3281L911.523 25.4297L910.438 24.3281L911.523 23.2422ZM914.25 17.3828L915.555 17.2266L915.68 19.0547C915.701 19.388 915.773 19.6693 915.898 19.8984C916.023 20.1224 916.198 20.2917 916.422 20.4062C916.651 20.5208 916.932 20.5781 917.266 20.5781H917.43V22H917.25C916.865 22 916.531 21.9531 916.25 21.8594C915.969 21.7656 915.729 21.6302 915.531 21.4531C915.333 21.276 915.164 21.0599 915.023 20.8047C914.742 21.2161 914.372 21.5182 913.914 21.7109C913.456 21.9036 912.977 22 912.477 22H911.727V20.5781H912.477C913.138 20.5781 913.609 20.4297 913.891 20.1328C914.177 19.8359 914.32 19.3802 914.32 18.7656C914.32 18.5156 914.312 18.2786 914.297 18.0547C914.286 17.8307 914.271 17.6068 914.25 17.3828ZM917.117 20.5781H917.492V22H917.117V20.5781ZM918.727 23.1953L919.859 24.3281L918.727 25.4609L917.594 24.3281L918.727 23.1953ZM918.555 22H917.281V20.5781H918.539C919.06 20.5781 919.411 20.4271 919.594 20.125C919.781 19.8229 919.875 19.4401 919.875 18.9766C919.875 18.638 919.844 18.276 919.781 17.8906C919.719 17.5052 919.651 17.1172 919.578 16.7266L920.938 16.3828C921.026 16.7995 921.096 17.2083 921.148 17.6094C921.201 18.0104 921.227 18.3932 921.227 18.7578C921.227 19.3828 921.141 19.9401 920.969 20.4297C920.797 20.9193 920.516 21.3047 920.125 21.5859C919.734 21.862 919.211 22 918.555 22Z" fill="#5D6C7E"/>
<path d="M628 90C628 85.5817 631.582 82 636 82H730C734.418 82 738 85.5817 738 90V110C738 114.418 734.418 118 730 118H636C631.582 118 628 114.418 628 110V90Z" fill="#F3F5F7"/>
<path d="M646.398 107.945C645.273 107.945 644.372 107.74 643.695 107.328C643.023 106.917 642.536 106.367 642.234 105.68C641.938 104.997 641.789 104.247 641.789 103.43C641.789 102.878 641.846 102.312 641.961 101.734C642.076 101.151 642.232 100.583 642.43 100.031L643.672 100.531C643.521 101.01 643.393 101.503 643.289 102.008C643.185 102.513 643.133 103.003 643.133 103.477C643.133 104.039 643.232 104.552 643.43 105.016C643.633 105.479 643.971 105.849 644.445 106.125C644.919 106.401 645.57 106.539 646.398 106.539C646.951 106.539 647.461 106.484 647.93 106.375C648.404 106.271 648.815 106.128 649.164 105.945C649.513 105.763 649.784 105.555 649.977 105.32C650.174 105.091 650.273 104.854 650.273 104.609C650.273 104.443 650.224 104.286 650.125 104.141C650.026 103.995 649.846 103.922 649.586 103.922H648.32C647.935 103.922 647.607 103.875 647.336 103.781C647.07 103.682 646.857 103.542 646.695 103.359C646.534 103.177 646.417 102.956 646.344 102.695C646.271 102.435 646.234 102.141 646.234 101.812C646.234 101.297 646.315 100.812 646.477 100.359C646.638 99.901 646.87 99.4974 647.172 99.1484C647.474 98.7943 647.839 98.5182 648.266 98.3203C648.693 98.1224 649.174 98.0234 649.711 98.0234C649.982 98.0234 650.266 98.0599 650.562 98.1328C650.865 98.2057 651.167 98.3438 651.469 98.5469L651.023 99.7344C650.81 99.625 650.596 99.5469 650.383 99.5C650.169 99.4479 649.945 99.4219 649.711 99.4219C649.268 99.4219 648.888 99.5286 648.57 99.7422C648.258 99.9557 648.018 100.245 647.852 100.609C647.685 100.969 647.602 101.37 647.602 101.812C647.602 102.057 647.651 102.237 647.75 102.352C647.849 102.461 648.049 102.516 648.352 102.516H649.664C650.143 102.516 650.518 102.604 650.789 102.781C651.06 102.958 651.25 103.203 651.359 103.516C651.474 103.823 651.531 104.177 651.531 104.578C651.531 105.016 651.419 105.435 651.195 105.836C650.971 106.237 650.641 106.596 650.203 106.914C649.771 107.232 649.234 107.482 648.594 107.664C647.958 107.852 647.227 107.945 646.398 107.945ZM652.68 108.203L652.219 106.961C653.068 106.779 653.745 106.5 654.25 106.125C654.755 105.755 655.12 105.31 655.344 104.789C655.573 104.268 655.688 103.693 655.688 103.062C655.688 102.62 655.638 102.156 655.539 101.672C655.445 101.182 655.312 100.685 655.141 100.18L656.438 99.7422C656.62 100.263 656.758 100.784 656.852 101.305C656.951 101.826 657 102.333 657 102.828C657 103.698 656.846 104.503 656.539 105.242C656.237 105.987 655.766 106.617 655.125 107.133C654.49 107.654 653.674 108.01 652.68 108.203ZM660.312 93.2422V103.992H658.992V93.2422H660.312ZM665.461 92.9062L666.594 94.0391L665.461 95.1719L664.328 94.0391L665.461 92.9062ZM666.789 101.156C666.789 101.021 666.758 100.846 666.695 100.633C666.638 100.414 666.568 100.211 666.484 100.023L665.102 96.8906L666.32 96.3203L668.094 100.492C668.333 101.055 668.542 101.487 668.719 101.789C668.901 102.091 669.078 102.299 669.25 102.414C669.427 102.523 669.628 102.578 669.852 102.578H670.18V104H669.852C669.44 104 669.104 103.951 668.844 103.852C668.589 103.753 668.367 103.604 668.18 103.406C667.992 103.208 667.802 102.958 667.609 102.656C667.365 102.964 667.076 103.216 666.742 103.414C666.414 103.612 666.031 103.758 665.594 103.852C665.161 103.945 664.664 103.992 664.102 103.992C663.737 103.992 663.409 103.977 663.117 103.945C662.826 103.909 662.549 103.859 662.289 103.797V102.383C662.607 102.456 662.901 102.51 663.172 102.547C663.448 102.578 663.719 102.594 663.984 102.594C664.615 102.594 665.135 102.539 665.547 102.43C665.964 102.32 666.273 102.159 666.477 101.945C666.685 101.732 666.789 101.469 666.789 101.156ZM670.672 94.5391V93.6797L676.609 91.2734V92.1328L670.672 94.5391ZM671.75 96.4219C672.115 96.6771 672.492 96.9427 672.883 97.2188C673.273 97.4948 673.651 97.7839 674.016 98.0859C674.38 98.388 674.708 98.7083 675 99.0469C675.297 99.3802 675.531 99.7318 675.703 100.102C675.875 100.471 675.961 100.859 675.961 101.266C675.961 101.911 675.812 102.435 675.516 102.836C675.224 103.237 674.771 103.531 674.156 103.719C673.542 103.906 672.75 104 671.781 104H669.875V102.578H671.773C672.451 102.578 672.995 102.542 673.406 102.469C673.823 102.391 674.125 102.255 674.312 102.062C674.505 101.865 674.602 101.589 674.602 101.234C674.602 100.958 674.521 100.688 674.359 100.422C674.203 100.156 673.99 99.8958 673.719 99.6406C673.453 99.3802 673.156 99.125 672.828 98.875C672.5 98.625 672.161 98.3776 671.812 98.1328C671.469 97.8828 671.143 97.6354 670.836 97.3906C670.669 97.2552 670.542 97.0964 670.453 96.9141C670.365 96.7318 670.32 96.5495 670.32 96.3672C670.32 96.1536 670.378 95.9531 670.492 95.7656C670.612 95.5729 670.797 95.4271 671.047 95.3281L676.664 93.0469V94.4297L671.75 96.4219ZM689.617 104C689.107 104 688.672 103.919 688.312 103.758C687.958 103.596 687.672 103.365 687.453 103.062C687.24 102.755 687.091 102.393 687.008 101.977C686.706 102.279 686.378 102.51 686.023 102.672C685.674 102.833 685.281 102.914 684.844 102.914C684.099 102.914 683.474 102.714 682.969 102.312C682.464 101.911 682.211 101.357 682.211 100.648C682.211 100.247 682.292 99.875 682.453 99.5312C682.615 99.1875 682.862 98.8672 683.195 98.5703C683.529 98.2734 683.951 98 684.461 97.75C684.977 97.4948 685.586 97.2578 686.289 97.0391L686.234 96.6641L687.484 96.4141L688.164 101.211C688.227 101.669 688.375 102.013 688.609 102.242C688.849 102.466 689.195 102.578 689.648 102.578H689.891V104H689.617ZM686.695 100.07C686.695 99.9922 686.693 99.9167 686.688 99.8438C686.682 99.7708 686.674 99.6927 686.664 99.6094L686.469 98.3047C685.964 98.487 685.526 98.6693 685.156 98.8516C684.792 99.0286 684.492 99.2083 684.258 99.3906C684.023 99.5677 683.849 99.7526 683.734 99.9453C683.625 100.133 683.57 100.333 683.57 100.547C683.57 100.891 683.688 101.151 683.922 101.328C684.156 101.505 684.474 101.594 684.875 101.594C685.182 101.594 685.474 101.534 685.75 101.414C686.031 101.294 686.258 101.12 686.43 100.891C686.607 100.661 686.695 100.388 686.695 100.07ZM689.562 102.578H690.188V104H689.562V102.578ZM692.383 105.242L693.477 106.328L692.383 107.43L691.297 106.328L692.383 105.242ZM689.789 105.242L690.883 106.328L689.789 107.43L688.703 106.328L689.789 105.242ZM691.273 104H690V102.578H691.258C691.779 102.578 692.13 102.427 692.312 102.125C692.5 101.823 692.594 101.44 692.594 100.977C692.594 100.638 692.562 100.276 692.5 99.8906C692.438 99.5052 692.37 99.1172 692.297 98.7266L693.656 98.3828C693.745 98.7995 693.815 99.2083 693.867 99.6094C693.919 100.01 693.945 100.393 693.945 100.758C693.945 101.383 693.859 101.94 693.688 102.43C693.516 102.919 693.234 103.305 692.844 103.586C692.453 103.862 691.93 104 691.273 104ZM695.914 93.2422H697.234V100.711C697.234 101.445 697.37 101.94 697.641 102.195C697.911 102.451 698.32 102.578 698.867 102.578H699.062V104H698.867C697.872 104 697.13 103.737 696.641 103.211C696.156 102.68 695.914 101.844 695.914 100.703V93.2422ZM703.828 99.7812C703.568 99.7812 703.331 99.8698 703.117 100.047C702.904 100.219 702.711 100.443 702.539 100.719C702.367 100.995 702.214 101.281 702.078 101.578C702.245 101.75 702.409 101.904 702.57 102.039C702.732 102.169 702.891 102.284 703.047 102.383C703.266 102.523 703.471 102.628 703.664 102.695C703.862 102.763 704.036 102.797 704.188 102.797C704.578 102.797 704.867 102.698 705.055 102.5C705.247 102.302 705.344 102.013 705.344 101.633C705.344 101.091 705.208 100.648 704.938 100.305C704.672 99.9557 704.302 99.7812 703.828 99.7812ZM704.203 104.18C703.854 104.18 703.526 104.128 703.219 104.023C702.911 103.924 702.609 103.773 702.312 103.57C702.016 103.367 701.708 103.115 701.391 102.812C701.167 103.068 700.951 103.284 700.742 103.461C700.534 103.638 700.302 103.773 700.047 103.867C699.792 103.956 699.474 104 699.094 104H698.75V102.578H699.055C699.404 102.578 699.698 102.479 699.938 102.281C700.177 102.078 700.391 101.818 700.578 101.5C700.766 101.182 700.951 100.846 701.133 100.492C701.32 100.133 701.529 99.7943 701.758 99.4766C701.987 99.1589 702.263 98.901 702.586 98.7031C702.914 98.5 703.318 98.3984 703.797 98.3984C704.375 98.3984 704.878 98.5391 705.305 98.8203C705.737 99.0964 706.07 99.4688 706.305 99.9375C706.544 100.406 706.664 100.93 706.664 101.508C706.664 102.07 706.568 102.552 706.375 102.953C706.182 103.349 705.901 103.654 705.531 103.867C705.167 104.076 704.724 104.18 704.203 104.18ZM712.312 104C711.953 104 711.651 103.953 711.406 103.859C711.167 103.76 710.979 103.656 710.844 103.547C710.766 104.229 710.576 104.888 710.273 105.523C709.977 106.164 709.529 106.721 708.93 107.195C708.331 107.669 707.539 108.003 706.555 108.195L706.094 106.961C706.943 106.779 707.62 106.5 708.125 106.125C708.63 105.755 708.995 105.31 709.219 104.789C709.448 104.268 709.562 103.693 709.562 103.062C709.562 102.62 709.513 102.156 709.414 101.672C709.32 101.182 709.188 100.685 709.016 100.18L710.312 99.7422L710.734 101.375C710.849 101.812 711.031 102.122 711.281 102.305C711.531 102.487 711.846 102.578 712.227 102.578H712.523V104H712.312ZM717.664 104C717.065 104 716.602 103.898 716.273 103.695C715.951 103.487 715.693 103.19 715.5 102.805C715.255 103.19 714.943 103.487 714.562 103.695C714.182 103.898 713.641 104 712.938 104H712.219V102.578H712.953C713.401 102.578 713.766 102.526 714.047 102.422C714.328 102.312 714.536 102.133 714.672 101.883C714.807 101.633 714.875 101.289 714.875 100.852C714.875 100.758 714.872 100.656 714.867 100.547C714.862 100.438 714.854 100.307 714.844 100.156C714.833 100 714.818 99.8125 714.797 99.5938L716.102 99.4297L716.227 101.062C716.258 101.5 716.391 101.862 716.625 102.148C716.865 102.435 717.216 102.578 717.68 102.578C718.232 102.578 718.607 102.43 718.805 102.133C719.003 101.836 719.102 101.409 719.102 100.852C719.102 100.758 719.099 100.656 719.094 100.547C719.089 100.438 719.081 100.307 719.07 100.156C719.06 100 719.044 99.8125 719.023 99.5938L720.328 99.4297L720.453 101.062C720.479 101.484 720.591 101.844 720.789 102.141C720.987 102.432 721.307 102.578 721.75 102.578C722.036 102.578 722.26 102.505 722.422 102.359C722.589 102.208 722.706 102.01 722.773 101.766C722.846 101.516 722.883 101.247 722.883 100.961C722.883 100.701 722.865 100.438 722.828 100.172C722.792 99.9062 722.75 99.6562 722.703 99.4219C722.656 99.1823 722.612 98.9818 722.57 98.8203L723.906 98.4609C724 98.8099 724.076 99.1823 724.133 99.5781C724.19 99.9688 724.219 100.359 724.219 100.75C724.219 101.312 724.141 101.841 723.984 102.336C723.828 102.831 723.57 103.232 723.211 103.539C722.857 103.841 722.372 103.995 721.758 104C721.258 104 720.854 103.896 720.547 103.688C720.24 103.479 719.99 103.185 719.797 102.805C719.505 103.227 719.18 103.531 718.82 103.719C718.466 103.906 718.081 104 717.664 104Z" fill="#5D6C7E"/>
<defs>
<filter id="filter0_d_681_8419" x="0" y="58" width="971" height="12" filterUnits="userSpaceOnUse" color-interpolation-filters="sRGB">
<feFlood flood-opacity="0" result="BackgroundImageFix"/>
<feColorMatrix in="SourceAlpha" type="matrix" values="0 0 0 0 0 0 0 0 0 0 0 0 0 0 0 0 0 0 127 0" result="hardAlpha"/>
<feOffset dy="4"/>
<feGaussianBlur stdDeviation="2"/>
<feComposite in2="hardAlpha" operator="out"/>
<feColorMatrix type="matrix" values="0 0 0 0 0 0 0 0 0 0 0 0 0 0 0 0 0 0 0.25 0"/>
<feBlend mode="normal" in2="BackgroundImageFix" result="effect1_dropShadow_681_8419"/>
<feBlend mode="normal" in="SourceGraphic" in2="effect1_dropShadow_681_8419" result="shape"/>
</filter>
<linearGradient id="paint0_linear_681_8419" x1="4" y1="60" x2="152" y2="60" gradientUnits="userSpaceOnUse">
<stop stop-color="white"/>
<stop offset="0.245192" stop-color="#AAE1BB"/>
<stop offset="0.557692" stop-color="#6BBE84"/>
<stop offset="1" stop-color="#33FF7E"/>
</linearGradient>
</defs>
</svg>
