<svg width="82" height="55" viewBox="0 0 82 55" fill="none" xmlns="http://www.w3.org/2000/svg">
<path d="M43.3008 6.001C37.9164 8.57882 30.7577 11.327 29.2991 12.2125C27.2886 13.4332 19.6309 26.2773 16.9663 27.0754C13.9703 27.9727 2.98191 31.7406 1.63709 32.242C0.0820915 32.8217 0.992546 34.1445 1.97564 34.8611C10.1866 40.8458 18.3976 46.8307 26.6085 52.8154C27.3381 53.3472 28.107 53.8955 29.0006 54.024C30.0387 54.1734 31.0609 53.7329 32.0172 53.3028C36.476 51.297 45.3886 46.3291 46.5882 45.2244C50.6265 41.5051 54.2439 32.383 56.5871 29.5722C58.2087 27.6269 73.7152 23.0018 80.8008 17.8892C72.5139 13.2912 64.2057 8.73151 55.8768 4.21023C54.5436 3.4865 51.8008 3.50098 51.8008 3.50098" stroke="#626161" stroke-width="1.3" stroke-linecap="round" stroke-linejoin="round"/>
<path d="M27.5915 36.991C27.6599 36.5723 27.8723 36.1586 28.1256 35.9317C28.3083 35.768 28.5356 35.6443 28.7801 35.6243C29.5117 35.5645 29.713 36.3449 29.6233 36.9192C29.564 37.2998 29.4301 37.6833 29.158 37.9561C28.8638 38.2511 28.301 38.3473 27.9495 38.1003C27.6031 37.8571 27.5211 37.4214 27.5915 36.991Z" stroke="#647B3B" stroke-width="1.5" stroke-linecap="round" stroke-linejoin="round"/>
<path d="M44.1822 3.76524C44.4831 2.82206 45.1179 1.99015 46.0483 1.48924C47.2359 0.849878 48.8332 0.92506 49.9598 1.66561C51.532 2.69915 51.3848 4.69498 50.9525 6.29535C50.701 7.22671 50.3333 8.12399 49.9457 9.00572C49.7142 9.53208 49.6204 10.476 49.1518 10.857C48.5769 11.3244 47.956 10.5984 47.4079 10.1931C46.1755 9.28143 44.9893 8.19807 44.3495 6.77579C43.9163 5.81288 43.8742 4.73079 44.1822 3.76524Z" stroke="#647B3B" stroke-width="1.5" stroke-linecap="round" stroke-linejoin="round"/>
<path d="M46.5609 4.87752C46.5531 4.45343 46.6877 4.00834 46.8961 3.73962C47.0465 3.5458 47.2479 3.38334 47.4849 3.31979C48.1939 3.12961 48.532 3.86115 48.5469 4.44224C48.5568 4.82734 48.4939 5.22861 48.2752 5.54589C48.0388 5.88889 47.5024 6.08453 47.1123 5.9048C46.7279 5.72771 46.569 5.31361 46.5609 4.87752Z" stroke="#647B3B" stroke-width="1.5" stroke-linecap="round" stroke-linejoin="round"/>
<path d="M30.8008 44.1061C31.7415 43.6434 32.6455 43.1061 33.5016 42.501" stroke="#626161" stroke-linecap="round" stroke-linejoin="round"/>
<path d="M34.8008 39.3608C35.1587 38.79 35.4192 38.1582 35.5679 37.501" stroke="#626161" stroke-linecap="round" stroke-linejoin="round"/>
<path d="M35.4761 35.9847C35.381 35.4998 35.3754 34.9976 35.4598 34.5107" stroke="#626161" stroke-linecap="round" stroke-linejoin="round"/>
<path d="M36.0957 32.4483C36.3548 31.803 36.735 31.2065 37.2107 30.6992" stroke="#626161" stroke-linecap="round" stroke-linejoin="round"/>
<path d="M38.1602 28.71C38.4242 28.4287 38.5056 27.99 38.3601 27.6328" stroke="#626161" stroke-linecap="round" stroke-linejoin="round"/>
<path d="M37.7529 25.6319C37.5733 25.3312 37.4792 24.9801 37.4846 24.6299" stroke="#626161" stroke-linecap="round" stroke-linejoin="round"/>
<path d="M37.6201 22.2243C37.581 21.8372 37.6496 21.4396 37.8163 21.0879" stroke="#626161" stroke-linecap="round" stroke-linejoin="round"/>
<path d="M38.5527 18.9501L39.0834 18.6104" stroke="#626161" stroke-linecap="round" stroke-linejoin="round"/>
<path d="M41.2246 17.8174C41.6856 17.9141 42.1666 17.9145 42.6278 17.8185" stroke="#626161" stroke-linecap="round" stroke-linejoin="round"/>
<path d="M45.0996 17.4187C45.5649 17.4569 46.0419 17.3323 46.429 17.0713" stroke="#626161" stroke-linecap="round" stroke-linejoin="round"/>
<path d="M48.5742 16.2282C48.9175 16.1854 49.2474 16.0408 49.5115 15.8174" stroke="#626161" stroke-linecap="round" stroke-linejoin="round"/>
<path d="M51.9425 11.9516C51.6027 11.7174 51.209 11.562 50.8008 11.501" stroke="#626161" stroke-linecap="round" stroke-linejoin="round"/>
<path d="M25.8008 41.5889C24.5331 42.6156 23.6809 43.2963 22.0526 43.3976C20.7907 43.4761 19.7435 42.5139 18.642 41.8933C17.4295 41.2101 16.044 40.9163 14.7214 40.4835C13.3988 40.0507 12.0616 39.4222 11.2557 38.2876C10.4498 37.1531 10.3808 35.3998 11.429 34.4844C11.872 34.0976 12.451 33.9027 13.0277 33.7874C14.775 33.4383 16.5852 33.7425 18.361 33.5949C20.143 33.4467 21.618 32.7149 22.6479 31.246C23.7346 29.6961 23.0346 27.5948 23.7287 25.865C23.8121 25.657 23.9192 25.4489 24.0962 25.3114C24.3422 25.1205 24.6739 25.0993 24.9783 25.0338C26.1891 24.773 27.0859 23.7396 27.6744 22.65C28.2631 21.5603 28.6396 20.3575 29.32 19.3227C30.0131 18.2686 31.0142 17.4196 32.1675 16.9081C32.9206 16.5741 33.728 16.3839 34.53 16.1955C36.9264 15.6324 39.3397 15.1163 41.7243 14.5052C42.6383 14.271 43.3431 13.93 44.3064 13.8386C45.5471 13.7208 46.7906 13.6338 48.0355 13.5776C52.907 13.3579 57.7998 13.6108 62.6223 14.3345C64.0396 14.5472 65.6241 14.9135 66.3633 16.1413C66.5737 16.4907 66.6976 16.9218 66.5689 17.3088C66.3555 17.9503 65.5379 18.1983 64.8759 18.0607C64.2139 17.923 63.6465 17.5148 63.0384 17.2191C60.84 16.1505 58.1438 16.6163 56.0143 17.8162C53.8847 19.0161 52.2048 20.8598 50.5641 22.6717C49.9459 23.3543 49.3132 24.061 49.0018 24.9277C48.7342 25.6728 48.7244 26.4821 48.7175 27.2737C48.7056 28.6483 48.6937 30.023 48.6818 31.3975C48.675 32.1825 48.6583 33.0065 48.2706 33.6892C48.0079 34.1519 47.5956 34.5093 47.1742 34.834C45.4156 36.1891 43.3806 37.1305 41.3647 38.0605C39.8432 38.7624 38.3216 39.4643 36.8001 40.1663C36.1557 40.4635 35.4953 40.7652 34.7885 40.8287C33.1761 40.9737 33.3835 40.4297 31.8008 40.0889" stroke="#626161" stroke-width="1.3" stroke-linecap="round" stroke-linejoin="round"/>
<path d="M30.7944 46.7631C29.5891 46.4827 28.2152 46.5854 27.4772 47.3908C26.3387 48.633 27.7583 50.2013 29.0416 50.4878C30.1379 50.7325 31.4348 50.5017 32.3497 49.8397C33.1693 49.2467 33.3717 48.2317 32.5412 47.5555C32.1125 47.2065 31.4808 46.9227 30.7944 46.7631Z" stroke="#647B3B" stroke-width="1.5" stroke-linecap="round" stroke-linejoin="round"/>
<path d="M32.0098 46.6754C32.1915 46.647 32.3609 46.5464 32.4728 46.4004" stroke="#647B3B" stroke-width="1.5" stroke-linecap="round" stroke-linejoin="round"/>
<path d="M27.0605 46.4814L27.5984 46.7411" stroke="#647B3B" stroke-width="1.5" stroke-linecap="round" stroke-linejoin="round"/>
<path d="M27.3301 50.8038L27.8631 50.4678" stroke="#647B3B" stroke-width="1.5" stroke-linecap="round" stroke-linejoin="round"/>
<path d="M32.4062 50.2139L32.8772 50.475" stroke="#647B3B" stroke-width="1.5" stroke-linecap="round" stroke-linejoin="round"/>
</svg>
