<svg width="48" height="67" viewBox="0 0 48 67" fill="none" xmlns="http://www.w3.org/2000/svg">
<g clip-path="url(#clip0_690_16119)">
<path d="M23.6737 24.6538C24.3776 24.4392 23.7864 30.7645 23.5556 33.0047C23.5027 33.5182 23.3352 34.0096 23.0618 34.4475C22.2711 35.7142 20.5495 38.3668 19.7839 38.725C14.7673 41.0728 11.4343 42.1004 11.2324 41.6513" stroke="#626161" stroke-width="1.5" stroke-linecap="round" stroke-linejoin="round"/>
<path d="M11.6319 30.8228C11.8933 29.9318 23.0635 24.4176 26.3316 23.4215C27.1817 23.1624 26.4676 30.801 26.189 33.5064C26.1251 34.1266 25.9228 34.7199 25.5927 35.2488C24.6377 36.7786 22.5586 39.9818 21.6342 40.4145C15.5759 43.2498 11.5508 44.4908 11.3071 43.9484C10.8078 42.8374 11.1689 32.4003 11.6319 30.8228Z" stroke="#626161" stroke-width="1.5" stroke-linecap="round" stroke-linejoin="round"/>
<path d="M32.1699 30.1635C32.2963 30.4728 34.8149 31.7248 35.2503 31.566C37.3645 30.7946 41.3807 28.7617 41.5569 28.4444C42.0826 27.497 42.8623 16.3419 42.2 15.9053" stroke="#626161" stroke-width="1.5" stroke-linecap="round" stroke-linejoin="round"/>
<path d="M32.2326 31.9458C32.3916 32.335 35.5599 33.91 36.1077 33.7101C38.7672 32.7398 43.8192 30.1826 44.0409 29.7833C44.7022 28.5917 45.8269 15.547 44.9936 14.9978C44.4358 14.6302 32.7219 19.617 32.3254 20.4886C31.929 21.3602 32.0737 31.5568 32.2326 31.9458Z" stroke="#626161" stroke-width="1.5" stroke-linecap="round" stroke-linejoin="round"/>
<path d="M4.98633 22.8466C13.1611 18.128 39.1932 7.50195 40.4188 7.50195C41.8773 7.50195 46.0565 10.1615 47.5518 11.3626" stroke="#626161" stroke-width="1.5" stroke-linecap="round" stroke-linejoin="round"/>
<path d="M8.01185 48.5961C7.50938 48.4858 6.22247 47.8117 4.93555 47.0273" stroke="#626161" stroke-width="1.5" stroke-linecap="round" stroke-linejoin="round"/>
<path d="M8.92008 28.7482C9.66058 26.2244 45.9081 10.2737 47.5572 11.3607C48.7348 12.1369 47.2997 29.6356 46.3649 31.3197C46.0518 31.884 41.5203 34.1921 35.9725 36.9657C34.6749 37.6144 31.4397 33.8037 30.0345 34.4854C28.2703 35.3412 24.9282 42.3144 23.1149 43.163C14.1171 47.3741 8.13902 49.2172 7.77702 48.4116C7.03547 46.7616 8.23237 31.0911 8.92008 28.7482Z" stroke="#626161" stroke-width="1.5" stroke-linecap="round" stroke-linejoin="round"/>
<path d="M8.39648 21.0317C8.39648 21.0317 10.048 15.0557 17.7446 12.1357C26.8698 8.67358 33.3588 10.0893 33.3588 10.0893" stroke="#626161" stroke-width="1.5" stroke-linecap="round" stroke-linejoin="round"/>
<path d="M23.8359 57.8984C25.1106 58.7319 26.8877 59.7981 27.5495 60.2026" stroke="#647B3B" stroke-width="1.5" stroke-linecap="round" stroke-linejoin="round"/>
<path d="M22.0469 53.1318C22.0469 52.6906 22.0591 52.3597 22.0836 52.2249C22.1449 51.8572 22.868 50.6806 23.775 49.3202C25.3928 46.8812 27.6234 43.8417 27.795 43.6946C28.0156 43.5108 28.6039 43.2411 29.4864 42.9102C30.8468 42.3955 32.9181 41.7336 35.4796 41.0105C36.0557 40.8512 38.0779 42.2484 39.659 43.4495C40.5415 44.1236 41.289 44.7242 41.5709 44.9693" stroke="#647B3B" stroke-width="1.6" stroke-linecap="round" stroke-linejoin="round"/>
<path d="M26.0142 54.6472C25.9367 55.1174 25.9511 58.7822 26.4146 59.3387C26.8323 59.8399 31.7182 62.6222 32.3397 62.6369C33.6616 62.6681 40.6939 59.5812 40.9737 59.3521C41.2807 59.1009 45.0899 52.6376 45.1637 52.0964C45.2316 51.5991 45.1228 48.3973 44.76 47.7754C44.4953 47.3216 40.301 43.1737 39.4119 43.4272C35.1804 44.6335 32.2849 45.6415 31.7254 46.1068C31.4522 46.3341 26.1849 53.6109 26.0142 54.6472Z" stroke="#647B3B" stroke-width="1.6" stroke-linecap="round" stroke-linejoin="round"/>
<path d="M5.18173 59.4189C5.80682 59.2106 7.08144 58.7571 8.66249 58.1688C13.136 56.5142 20.1464 53.8546 22.0461 53.1315C22.3158 53.0335 22.4874 52.9599 22.5242 52.9477C24.3014 52.2368 25.0245 56.551 23.8356 57.9114C23.7498 58.0217 23.6517 58.1075 23.5414 58.1688C23.5414 58.1688 15.9427 61.5515 9.50821 64.015C7.43691 64.7994 5.50046 65.4857 3.96846 65.9392C2.22811 66.454 0.396387 65.2579 0.291693 63.4513C-0.448587 50.7062 0.465837 1.50673 0.365343 0.994141L4.94902 1.07986H4.96124C5.01029 1.07986 5.01025 11.0195 4.98573 22.859C4.98573 30.8867 4.96123 39.7847 4.93671 47.0403C4.92448 53.8914 4.91217 59.2841 4.91217 61.0858" stroke="#647B3B" stroke-width="1.6" stroke-linecap="round" stroke-linejoin="round"/>
<path d="M9.50369 64.0094C11.2204 62.3528 9.99327 58.1206 8.6582 58.1664" stroke="#647B3B" stroke-width="1.6" stroke-linecap="round" stroke-linejoin="round"/>
<path d="M4.36138 1.40812C3.77439 1.60221 3.14586 1.64406 2.53194 1.60529C1.90198 1.56546 1.26128 1.49145 0.678112 1.23436C0.551895 1.17871 0.423215 1.10522 0.360444 0.982377C0.0722361 0.418486 1.58895 0.163576 1.89981 0.117829C2.8254 -0.0185882 3.81202 0.0306835 4.63442 0.476756C4.73228 0.529853 4.82921 0.58985 4.90045 0.67542C4.9717 0.760989 5.01436 0.876783 4.98916 0.985227C4.95466 1.13394 4.80888 1.22731 4.66939 1.28934C4.56867 1.33411 4.46577 1.37355 4.36138 1.40812Z" stroke="#647B3B" stroke-width="1.5" stroke-linecap="round" stroke-linejoin="round"/>
<path d="M0.0664062 35.5242C0.0664062 35.5242 2.18168 36.956 4.77097 35.2695" stroke="#647B3B" stroke-width="1.5" stroke-linecap="round" stroke-linejoin="round"/>
<path d="M0.0117188 39.1725C0.0117188 39.1725 2.03802 40.6687 4.77153 39.0459" stroke="#647B3B" stroke-width="1.5" stroke-linecap="round" stroke-linejoin="round"/>
<path d="M19.3418 31.1963L17.3066 34.282" stroke="#626161" stroke-width="1.5" stroke-linecap="round" stroke-linejoin="round"/>
<path d="M20.5078 33.2012L18.4727 36.2869" stroke="#626161" stroke-width="1.5" stroke-linecap="round" stroke-linejoin="round"/>
<path d="M38.877 22.6855L36.8418 25.7712" stroke="#626161" stroke-width="1.5" stroke-linecap="round" stroke-linejoin="round"/>
<path d="M40.045 24.6904L38.0098 27.7762" stroke="#626161" stroke-width="1.5" stroke-linecap="round" stroke-linejoin="round"/>
</g>
<defs>
<clipPath id="clip0_690_16119">
<rect width="48.0009" height="66.0087" fill="white" transform="translate(0 0.0507812)"/>
</clipPath>
</defs>
</svg>
