<svg width="60" height="83" viewBox="0 0 60 83" fill="none" xmlns="http://www.w3.org/2000/svg">
<path d="M46.1529 19.8018C37.8937 22.6533 29.8321 26.4936 22.3504 31.0054C20.7928 31.9447 19.2406 32.9545 18.0639 34.3415C15.3297 37.5644 15.2499 43.235 15.3076 47.189C15.4286 55.496 15.7418 64.45 16.942 72.692" stroke="#626161" stroke-width="1.5" stroke-linecap="round" stroke-linejoin="round"/>
<path d="M54.659 31.8929C54.851 34.7346 54.9523 37.5821 54.9864 40.43C55.0524 45.947 54.8624 51.4637 54.5808 56.9728C54.3848 60.8081 52.9974 64.5123 49.9685 66.8733C46.5118 69.5675 42.6711 71.7401 38.696 73.5691C35.0831 75.2314 30.5533 77.6951 26.4814 77.5409C25.9177 77.5196 25.3183 77.4122 24.9106 77.0223C24.1999 76.3424 24.2532 74.9923 24.121 74.0836C23.9134 72.6581 23.8006 71.2191 23.6902 69.7835C23.3336 65.1473 23.1809 60.4922 23.1276 55.8432C23.068 50.6522 22.1184 44.633 24.2808 39.7514C24.6149 38.9972 25.022 38.2594 25.6138 37.6848C26.0641 37.2477 26.6063 36.9191 27.1434 36.5944C33.7733 32.5868 40.8817 29.055 47.9769 25.9015C48.3271 25.7397 48.6779 25.5792 49.0306 25.4229C50.1243 24.9376 51.3192 24.4416 52.4824 24.7239C55.2986 25.4081 54.5252 29.9121 54.659 31.8929Z" stroke="#626161" stroke-width="1.5" stroke-linecap="round" stroke-linejoin="round"/>
<path d="M27.6527 77.69C26.8916 77.8492 24.5529 77.3394 23.9112 77.0199C21.7405 75.939 19.6936 74.5878 17.698 73.2165C16.5993 72.4615 15.516 71.6834 14.4529 70.8789C13.9849 70.5247 13.4669 70.2002 13.011 69.8525C12.4734 69.4426 12.5147 68.7503 12.5622 68.1208C12.6756 66.6197 12.6291 65.1066 12.4237 63.6155C12.3241 62.8924 12.1858 62.1694 11.9159 61.4913C11.2837 59.9027 9.98491 58.6832 8.66469 57.5969C7.7842 56.8724 7.57226 56.3018 7.47824 55.1966C7.37843 54.0242 7.29518 52.8504 7.22544 51.6759C7.0864 49.3334 7.0019 46.9878 6.95244 44.6417C6.86073 40.2911 5.78732 35.798 7.302 31.5681C7.93386 29.8036 9.10233 28.1893 10.7295 27.2592C11.8977 26.5914 13.3252 26.1606 14.5645 25.5907C15.9392 24.9585 17.3271 24.3555 18.7011 23.7217C23.1028 21.6912 27.5179 19.6868 31.9968 17.8314C32.9786 17.4247 34.048 17.2791 35.0251 16.8602C39.3503 15.0069 51.1275 22.0045 53.9957 25.8599" stroke="#626161" stroke-width="1.5" stroke-linecap="round" stroke-linejoin="round"/>
<path d="M24.8877 19.8981C24.8781 15.954 24.7184 9.62362 24.4687 5.68745C24.3982 4.57477 24.149 3.22698 23.0983 2.85425C22.4612 2.62821 20.974 3.0335 20.1304 3.28721C17.1464 4.18487 12.0544 5.27789 11.1182 8.67258C10.7601 9.97082 10.9098 11.2666 10.9986 12.5904C11.2542 16.3985 11.436 22.1335 11.5641 25.9487" stroke="#647B3B" stroke-width="1.3" stroke-linecap="round" stroke-linejoin="round"/>
<path d="M27.0472 18.7791C27.0376 14.835 26.9079 10.1998 26.6581 6.26362C26.5876 5.15095 26.3386 3.80315 25.2879 3.43042C24.6507 3.20438 23.1636 3.60967 22.32 3.86338C19.336 4.76104 14.2438 5.85406 13.3076 9.24875C12.9496 10.547 13.0992 11.8427 13.1881 13.1666C13.4437 16.9747 13.5955 20.7516 13.7235 24.5668" stroke="#647B3B" stroke-width="1.3" stroke-linecap="round" stroke-linejoin="round"/>
<path d="M13.4577 4.68219C13.5676 4.63327 13.702 4.62482 13.8552 4.66583C14.4253 4.8183 14.9057 5.15892 15.4114 5.44723C15.8421 5.69275 16.3399 6.11716 16.2333 6.67252C16.1308 7.20707 15.4727 7.47776 14.9416 7.35856C14.0035 7.14809 13.0006 6.18806 13.1448 5.16212C13.1777 4.92817 13.2888 4.75736 13.4577 4.68219Z" stroke="#647B3B" stroke-width="1.3" stroke-linecap="round" stroke-linejoin="round"/>
<path d="M13.334 4.61714C15.3651 3.87008 17.3641 3.06395 19.4585 2.51909C19.709 2.45388 19.9671 2.38965 20.224 2.4215C20.4976 2.45539 20.7463 2.59568 20.9717 2.75447C21.4032 3.0587 21.7788 3.44211 22.074 3.87995C22.1745 4.02914 22.2685 4.19281 22.2766 4.37251C22.298 4.84238 21.7706 5.1201 21.3281 5.27942C20.3502 5.63134 19.3726 5.98352 18.3946 6.33535C17.6766 6.5935 15.8542 7.09246 15.9182 7.06764" stroke="#647B3B" stroke-width="1.5" stroke-linecap="round" stroke-linejoin="round"/>
<path d="M8.30437 58.4531C7.63977 57.9649 6.90026 57.7709 6.20782 58.3311C5.00183 59.3065 4.95641 61.587 5.01637 62.9951C5.09225 64.779 5.6117 66.5477 6.54868 68.0703C6.92559 68.6828 7.37466 69.2651 7.96035 69.6823C8.71071 70.2169 9.91225 70.5392 10.7162 69.9292C11.946 68.996 11.7789 67.0035 11.6454 65.6545C11.476 63.9437 11.048 62.2191 10.1835 60.7205C9.81666 60.0845 9.11628 59.0493 8.30437 58.4531Z" stroke="#626161" stroke-width="1.5" stroke-linecap="round" stroke-linejoin="round"/>
<path d="M25.2363 77.6895C25.2863 78.1548 25.4987 80.4502 26.1568 80.5693C26.514 80.6338 27.0244 80.8022 27.3619 80.592C28.1305 80.1133 27.861 78.4235 27.9116 77.6895" stroke="#626161" stroke-width="1.5" stroke-linecap="round" stroke-linejoin="round"/>
<path d="M54.0008 60.6191C53.9503 61.3532 54.3891 65.3241 53.44 66.4189C53.1796 66.7193 52.5922 66.4607 52.235 66.3961C52.235 66.3961 51.8547 66.1387 51.8262 65.0188" stroke="#626161" stroke-width="1.5" stroke-linecap="round" stroke-linejoin="round"/>
<path d="M6.49219 58.1338C6.89463 57.8085 7.41746 57.6357 7.93448 57.657" stroke="#626161" stroke-width="1.5" stroke-linecap="round" stroke-linejoin="round"/>
<path d="M10.0684 70.3423C10.3253 70.4107 10.5921 70.2983 10.8341 70.1885C11.3542 69.9525 11.8742 69.7165 12.3943 69.4805" stroke="#626161" stroke-width="1.5" stroke-linecap="round" stroke-linejoin="round"/>
<path d="M31.377 41.6201C32.038 50.6572 32.6082 59.7008 33.0874 68.7493" stroke="#647B3B" stroke-width="1.5" stroke-linecap="round" stroke-linejoin="round"/>
<path d="M39.9883 38.3213C40.8399 47.0514 41.2908 55.8208 41.3396 64.5923" stroke="#647B3B" stroke-width="1.5" stroke-linecap="round" stroke-linejoin="round"/>
<path d="M47.6777 33.4404C48.1732 42.6977 48.3109 51.9741 48.0906 61.2419" stroke="#647B3B" stroke-width="1.5" stroke-linecap="round" stroke-linejoin="round"/>
</svg>
