<svg width="77" height="54" viewBox="0 0 77 54" fill="none" xmlns="http://www.w3.org/2000/svg">
<path d="M67.4187 30.3736C62.9903 33.5532 51.4346 30.0025 50.4819 19.0742C51.296 29.9448 47.4978 43.6165 37 48.6698" stroke="#647B3B" stroke-width="1.2" stroke-linecap="round" stroke-linejoin="round"/>
<path d="M36.8609 38.0461C24.8183 30.0325 19.3765 25.7069 7.33398 17.6934" stroke="#626161" stroke-width="1.2" stroke-linecap="round" stroke-linejoin="round"/>
<path d="M50.0119 18.0398C39.9704 11.942 34.0766 8.62694 24.0352 2.5293" stroke="#626161" stroke-width="1.2" stroke-linecap="round" stroke-linejoin="round"/>
<path d="M36.9994 48.6698C36.9994 46.3436 36.8613 38.046 36.8613 38.046C43.9908 34.4228 50.4355 25.4458 50.0122 18.04C52.0078 24.1346 64.1805 23.8073 67.154 21.1503" stroke="#626161" stroke-width="1.2" stroke-linecap="round" stroke-linejoin="round"/>
<path d="M7.33398 17.6934C7.57888 20.1072 7.65443 25.6372 7.5589 28.0616L36.9985 48.67C53.3407 39.098 52.5133 33.4572 50.9853 21.9025C52.6672 33.3127 57.903 35.0842 67.0855 30.5407L67.4177 30.3737C67.3706 28.0829 67.1536 21.1504 67.1536 21.1504C55.111 13.1368 35.5523 0.609375 35.5523 0.609375C33.1213 2.78844 26.9579 4.1888 23.6898 1.57846C23.483 7.8264 15.4375 15.9468 7.33398 17.6934Z" stroke="#626161" stroke-width="1.2" stroke-linecap="round" stroke-linejoin="round"/>
<path d="M36.7685 38.2217C34.5844 42.9968 32.3305 47.74 30.0078 52.4492" stroke="#647B3B" stroke-width="1.2" stroke-linecap="round" stroke-linejoin="round"/>
<path d="M7.33408 17.6934C5.3658 21.2997 3.61545 25.1253 1.64717 28.7316C1.38786 29.2068 1.12845 29.6819 0.869141 30.1571" stroke="#647B3B" stroke-width="1.2" stroke-linecap="round" stroke-linejoin="round"/>
<path d="M66.8398 20.875C69.8412 22.4566 72.873 23.9805 75.933 25.4455" stroke="#647B3B" stroke-width="1.2" stroke-linecap="round" stroke-linejoin="round"/>
<path d="M35.7617 0.696289C36.8795 0.976413 44.8395 3.77415 46.5406 4.18845" stroke="#647B3B" stroke-width="1.2" stroke-linecap="round" stroke-linejoin="round"/>
<path d="M29.9512 52.4997C29.9512 51.6166 29.9512 51.4349 29.9512 50.5518" stroke="#647B3B" stroke-width="1.2" stroke-linecap="round" stroke-linejoin="round"/>
<path d="M0.869141 29.9792V28.0312" stroke="#647B3B" stroke-width="1.2" stroke-linecap="round" stroke-linejoin="round"/>
<path d="M75.9316 25.1081C75.9316 24.225 75.9316 24.0433 75.9316 23.1602" stroke="#647B3B" stroke-width="1.2" stroke-linecap="round" stroke-linejoin="round"/>
<path d="M46.541 4.03197C46.541 3.14886 46.541 2.96709 46.541 2.08398" stroke="#647B3B" stroke-width="1.2" stroke-linecap="round" stroke-linejoin="round"/>
</svg>
