<svg width="5" height="9" viewBox="0 0 5 9" fill="none" xmlns="http://www.w3.org/2000/svg">
<path d="M4.26 8.28896C4.07 8.28896 3.88 8.21562 3.73333 8.06896L0 4.28896L3.73333 0.508958C3.80188 0.439316 3.88361 0.384008 3.97374 0.346257C4.06387 0.308505 4.16061 0.289062 4.25833 0.289062C4.35605 0.289062 4.4528 0.308505 4.54293 0.346257C4.63306 0.384008 4.71478 0.439316 4.78333 0.508958C5.07333 0.802291 5.07333 1.27562 4.78333 1.56896L2.09667 4.28896L4.78333 7.00896C5.07333 7.30229 5.07333 7.77562 4.78333 8.06896C4.63667 8.21562 4.45 8.28896 4.26 8.28896Z" fill="#587052"/>
</svg>
