<svg width="33" height="46" viewBox="0 0 33 46" fill="none" xmlns="http://www.w3.org/2000/svg">
<path d="M29.9403 25.0858H29.9517C29.9517 25.0858 25.6436 31.2902 22.0211 35.9014C18.89 39.8843 17.9759 43.295 17.713 44.9442C17.6102 45.5501 17.1074 45.9988 16.5017 45.9988C15.8961 45.9988 15.3933 45.5501 15.2904 44.9442C15.0276 43.295 14.1134 39.8843 10.9823 35.9014C10.5023 35.2843 10.011 34.6448 9.51959 33.9941L21.3469 20.1942L30.8659 9.10938C31.9172 11.2747 32.5 13.6981 32.5 16.2674C32.5 19.521 31.5516 22.539 29.9403 25.0858Z" fill="#999999"/>
<path d="M21.343 20.1934L9.51568 33.9933C6.29316 29.7524 3.04778 25.0851 3.04778 25.0851H3.05921C2.71639 24.5466 2.40785 23.9968 2.14502 23.4246L11.6526 12.3398C10.7498 13.4057 10.2127 14.7745 10.2127 16.2666C10.2127 19.6773 13.0239 22.4373 16.4978 22.4373C18.4519 22.4373 20.2003 21.5622 21.343 20.1934Z" fill="#999999"/>
<path d="M21.5273 0.830237L11.734 12.2516L4.23767 5.8341C7.16308 2.26632 11.574 0 16.4992 0C18.2591 0 19.9503 0.291705 21.5273 0.830237Z" fill="#999999"/>
<path d="M11.7331 12.2495L11.6531 12.3393L2.14548 23.4241C1.09416 21.2587 0.499939 18.8353 0.499939 16.2661C0.499939 12.2944 1.90551 8.64811 4.23669 5.83203L11.7331 12.2495Z" fill="#999999"/>
<path d="M21.343 20.1968C22.2458 19.1309 22.7829 17.7621 22.7829 16.27C22.7829 12.8593 19.9717 10.0993 16.4978 10.0993C14.5437 10.0993 12.7953 10.9744 11.6526 12.3432L21.5258 0.832031C25.6283 2.2008 28.9879 5.21883 30.862 9.11197L21.343 20.1968Z" fill="#999999"/>
<circle cx="16.4999" cy="16" r="11.5" fill="#999999" stroke="white"/>
<path d="M15.6945 11.2533C15.3719 11.3867 14.7852 11.68 14.3892 11.92C13.9785 12.1467 13.5532 12.3333 13.4359 12.3333C13.3039 12.3333 12.8346 12.12 12.3946 11.8667C11.4852 11.3333 10.6786 11.2533 10.2972 11.64C9.97458 11.9733 9.78392 12.84 9.68125 14.5333C9.62259 15.3467 9.56392 16.1333 9.51992 16.2933C9.46126 16.5733 9.50526 16.6 10.0186 16.6H10.5906L10.6786 15.0933C10.8106 13.12 10.9279 12.3333 11.1186 12.3333C11.2066 12.3333 11.6026 12.5333 12.0132 12.76C13.0399 13.36 13.9492 13.3733 14.8879 12.7867C15.2545 12.56 15.7532 12.28 16.0172 12.16L16.4718 11.9333L16.7798 12.76C16.9558 13.2133 17.0878 13.6267 17.0878 13.6933C17.0878 13.84 16.0318 14.4667 15.7679 14.4667C15.6359 14.4667 15.1812 14.2533 14.7412 14C13.9639 13.5467 13.1425 13.4 12.7466 13.64C12.3212 13.8933 12.0866 14.96 11.8812 17.6267L11.8079 18.7333H12.9812V17.76C12.9812 16.76 13.2305 14.5867 13.3625 14.48C13.4065 14.44 13.6119 14.5067 13.8319 14.6267C15.0345 15.3067 15.3865 15.4267 15.9585 15.36C16.2812 15.32 16.7358 15.16 16.9705 15C17.2052 14.84 17.4252 14.7333 17.4398 14.76C17.4692 14.7733 17.5718 15.1733 17.6745 15.6133L17.8505 16.44L18.3052 16.32C18.5398 16.2667 18.7745 16.1867 18.8038 16.1467C18.8331 16.12 18.7598 15.7333 18.6425 15.2933C18.3492 14.3067 18.3492 14.2533 18.6278 14.1467C18.7892 14.0933 18.9211 14.2933 19.1411 14.9467C19.3025 15.44 19.4345 15.88 19.4345 15.9467C19.4345 16 19.1411 16.2133 18.7892 16.4C18.0705 16.7733 17.8358 16.7467 16.9558 16.1467C15.8852 15.4267 14.8879 15.6 14.6092 16.5733C14.4625 17.0667 14.1545 19.7333 14.1545 20.56C14.1545 20.9733 14.1839 21 14.6532 21H15.1519L15.2399 19.8267C15.3719 18.2667 15.5772 16.7333 15.6799 16.64C15.7239 16.6 16.1198 16.7867 16.5745 17.0667C17.5425 17.68 18.3638 17.7467 19.1705 17.2933C19.4638 17.1333 19.7278 17 19.7718 17C19.8011 17 19.8891 17.28 19.9478 17.6133C19.9918 17.96 20.0798 18.3067 20.1091 18.3867C20.1825 18.56 21.0038 18.52 21.1211 18.3333C21.1505 18.28 21.0625 17.84 20.9158 17.3467C20.6811 16.56 20.6665 16.44 20.8571 16.3733C20.9745 16.3333 21.1358 16.3733 21.1945 16.4667C21.3411 16.68 22.2064 19.6267 22.3238 20.2933C22.4118 20.7467 22.4264 20.7467 22.9398 20.6667C23.2331 20.6133 23.4824 20.56 23.4971 20.5467C23.5558 20.5067 22.6904 17.56 22.3531 16.6533C21.9718 15.6 21.6784 15.3467 20.9158 15.44C20.3585 15.5067 20.3438 15.4933 20.2411 15.0533C20.0945 14.3067 19.6251 13.4267 19.3025 13.2667C19.1265 13.1867 18.7745 13.16 18.5105 13.2C18.1976 13.2533 17.9532 13.0089 17.7772 12.4667C17.4985 11.6 16.9852 11 16.5452 11C16.3985 11 16.0172 11.12 15.6945 11.2533ZM18.0998 13.5467C18.5252 13.68 17.5498 13.2 17.3445 13.4C17.2272 13.52 17.0072 13.972 16.9485 14.172C16.8458 14.532 17.9385 14.8533 17.5572 14.64C17.3372 14.52 17.1318 14.4 17.1025 14.3733C17.0732 14.3467 17.1465 14.2267 17.2785 14.0933C17.4252 13.96 17.4838 13.8133 17.4398 13.76C17.3665 13.6933 17.4838 13.4 17.5865 13.4C17.6158 13.4 17.8358 13.4667 18.0998 13.5467ZM19.8275 16.5213C20.0035 16.628 20.2529 16.892 20.0475 17.1053C19.9155 17.2387 20.6987 16.7693 20.7193 16.7693L20.0475 16.4667L20.3145 15.9933C19.9038 15.7 19.4051 16.4933 19.6545 16.1467C19.8011 15.96 19.8598 15.8 19.8158 15.8C19.7571 15.8 19.7571 15.7333 19.8011 15.6667C19.8891 15.5333 19.2702 16.188 19.8275 16.5213Z" fill="white" fill-opacity="0.89"/>
</svg>
