<svg width="30" height="43" viewBox="0 0 30 43" fill="none" xmlns="http://www.w3.org/2000/svg">
<path d="M10.2057 2.62928C10.2057 2.62928 7.56274 1.83641 5.05198 4.58944C2.7174 7.16628 2.82752 10.8664 2.7174 13.9498C2.58526 17.2314 1.88048 19.9624 0.713194 23.0458C-0.34397 25.8649 1.1757 28.9042 3.79659 30.6001C5.91092 31.9656 8.44371 32.4942 10.9325 32.6704C13.0468 32.8025 15.095 32.34 17.1653 32.5382C21.438 32.9567 25.7768 31.5031 28.2876 27.8691C28.8161 27.0982 29.2566 26.2173 29.3447 25.2922C29.4328 24.3672 29.1685 23.4863 28.9483 22.6053C28.1114 19.4999 27.6709 16.2843 27.6268 13.0688C27.6048 10.4699 27.0322 7.87106 25.6226 5.64661C22.4291 0.625078 13.8837 -1.66545 10.2057 2.62928Z" fill="white"/>
<path d="M11.7914 33.111C11.5051 33.111 11.2188 33.111 10.9324 33.089C7.8931 32.8907 5.51447 32.186 3.59836 30.9526C0.625088 29.0365 -0.696364 25.7329 0.360801 22.9138C1.63821 19.478 2.21084 16.8791 2.32096 13.9499C2.32096 13.6636 2.34298 13.3552 2.34298 13.0689C2.43108 10.1177 2.5412 6.792 4.74363 4.3473C6.94605 1.90261 9.28062 2.05678 10.0294 2.21095C11.5271 0.603181 13.7736 -0.167667 16.4165 0.0305514C20.2047 0.294842 24.0149 2.47524 25.9089 5.47054C27.2524 7.58487 27.9792 10.2278 27.9792 13.113C28.0233 16.3065 28.4858 19.478 29.3007 22.5393L29.3447 22.7376C29.565 23.5745 29.7852 24.4555 29.7191 25.3584C29.6531 26.2614 29.2786 27.1424 28.5959 28.1335C26.1952 31.6354 21.9005 33.4413 17.1213 32.9788C16.0641 32.9128 15.0069 32.9348 13.9718 33.0449C13.289 33.0449 12.5402 33.111 11.7914 33.111ZM9.28062 2.91573C8.37763 2.91573 6.85795 3.22407 5.3603 4.87589C3.33407 7.10034 3.24597 10.2939 3.15788 13.0909C3.15788 13.3993 3.13585 13.6856 3.13585 13.9939C3.02573 17.0333 2.43108 19.6982 1.10962 23.2221C0.184605 25.6668 1.39594 28.596 4.03885 30.2919C5.82281 31.4371 8.09131 32.0979 10.9985 32.2961C11.9896 32.3401 12.9587 32.3181 13.9498 32.208C15.051 32.0979 16.1522 32.0758 17.2534 32.1419C21.7463 32.5824 25.7548 30.8865 28.0012 27.6269C28.5959 26.746 28.9263 25.9751 28.9923 25.2263C29.0584 24.4555 28.8602 23.6626 28.662 22.8697L28.6179 22.6715C27.781 19.522 27.3185 16.2845 27.2744 13.0469C27.2524 10.3159 26.5917 7.80511 25.3143 5.82293C23.5523 3.04787 19.9844 1.02164 16.4165 0.757349C13.9277 0.581155 11.8354 1.32998 10.514 2.84965C10.4039 2.95977 10.2497 3.02585 10.0955 2.9818C9.83123 2.93775 9.54492 2.91573 9.28062 2.91573Z" fill="#222222"/>
<path d="M24.8518 42.603V34.1898C24.8518 30.4457 21.8125 27.3843 18.0463 27.3843H11.5491C7.80502 27.3843 4.74365 30.4236 4.74365 34.1898V42.603H24.8518Z" fill="#D1D3D4"/>
<path d="M24.8518 42.9999H4.7657C4.54546 42.9999 4.36926 42.8237 4.36926 42.6035V34.1902C4.36926 30.2258 7.58481 27.0103 11.5712 26.9883H18.0684C22.0327 26.9883 25.2483 30.2038 25.2703 34.1902V42.6035C25.2483 42.8237 25.0721 42.9999 24.8518 42.9999ZM5.16214 42.207H24.4554V34.1902C24.4554 30.6663 21.5922 27.8032 18.0684 27.8032H11.5712C8.04732 27.8032 5.18416 30.6663 5.18416 34.1902L5.16214 42.207Z" fill="#222222"/>
<path d="M15.139 40.3789L13.5973 28.3096L16.923 28.4637L15.139 40.3789Z" fill="white"/>
<path d="M15.1391 40.7754C14.9408 40.7754 14.7646 40.6212 14.7426 40.423L13.2009 28.3317C13.1789 28.2215 13.2229 28.0894 13.311 28.0013C13.3991 27.9132 13.5093 27.8691 13.6194 27.8691L16.945 28.0233C17.1653 28.0233 17.3415 28.2215 17.3195 28.4418C17.3195 28.4638 17.3195 28.4638 17.3195 28.4858L15.5355 40.423C15.4914 40.6432 15.3373 40.7754 15.1391 40.7754ZM14.0599 28.7281L15.1611 37.4937L16.4605 28.8382L14.0599 28.7281Z" fill="#222222"/>
<path d="M15.139 40.7756C15.0069 40.7756 14.8747 40.7096 14.8086 40.5994L10.6461 34.5648C10.5359 34.4106 10.558 34.2124 10.6681 34.0803L12.3419 32.1862L10.5139 31.3713C10.4038 31.3272 10.3377 31.2391 10.2937 31.129C10.2496 31.0189 10.2716 30.8867 10.3377 30.7986L12.6503 27.2087C12.7604 27.0105 13.0027 26.9444 13.2009 27.0545C13.3991 27.1646 13.4652 27.4069 13.355 27.6051C13.333 27.6271 13.333 27.6492 13.311 27.6712L11.2407 30.8647L13.1348 31.7237C13.333 31.8118 13.4211 32.054 13.333 32.2522C13.311 32.2963 13.289 32.3183 13.2669 32.3624L11.4389 34.4326L15.4253 40.225C15.5575 40.4012 15.5134 40.6435 15.3152 40.7756C15.2712 40.7756 15.2051 40.7977 15.139 40.7756Z" fill="#222222"/>
<path d="M15.095 40.7753C15.0069 40.7753 14.9408 40.7533 14.8747 40.7092C14.6986 40.5771 14.6545 40.3348 14.7646 40.1586L18.751 34.3662L16.923 32.296C16.7688 32.1418 16.7909 31.8775 16.9671 31.7233C16.9891 31.7013 17.0331 31.6793 17.0772 31.6573L18.9713 30.7983L16.901 27.6048C16.7688 27.4286 16.7909 27.1863 16.9671 27.0542C17.1432 26.922 17.3855 26.9441 17.5177 27.1203C17.5397 27.1423 17.5397 27.1643 17.5617 27.1863L19.8743 30.7763C19.9403 30.8644 19.9624 30.9965 19.9183 31.1067C19.8743 31.2168 19.8082 31.3049 19.6981 31.3489L17.87 32.1638L19.5439 34.0579C19.676 34.1901 19.676 34.3883 19.5659 34.5424L15.4033 40.5771C15.3593 40.7092 15.2271 40.7753 15.095 40.7753Z" fill="#222222"/>
<path d="M9.14852 42.7794C8.92827 42.7794 8.75208 42.6032 8.75208 42.383V34.7846C8.75208 34.5644 8.92827 34.3882 9.14852 34.3882C9.36876 34.3882 9.54495 34.5644 9.54495 34.7846V42.383C9.54495 42.6032 9.36876 42.7794 9.14852 42.7794Z" fill="#222222"/>
<path d="M20.4689 42.7794C20.2487 42.7794 20.0725 42.6032 20.0725 42.383V34.7846C20.0725 34.5644 20.2487 34.3882 20.4689 34.3882C20.6892 34.3882 20.8654 34.5644 20.8654 34.7846V42.383C20.8654 42.6032 20.6892 42.7794 20.4689 42.7794Z" fill="#222222"/>
<path d="M13.5973 26.438H16.7027V28.8166C16.7027 29.213 16.3724 29.5434 15.9759 29.5434H14.3241C13.9277 29.5434 13.5973 29.213 13.5973 28.8166V26.438Z" fill="white"/>
<path d="M15.3813 29.9393H14.9188C13.9718 29.9393 13.2009 29.1685 13.2009 28.2214V26.4374C13.2009 26.2172 13.3771 26.041 13.5974 26.041H16.7028C16.923 26.041 17.0992 26.2172 17.0992 26.4374V28.2214C17.0992 29.1685 16.3284 29.9393 15.3813 29.9393ZM13.9938 26.8339V28.2214C13.9938 28.728 14.4123 29.1464 14.9188 29.1464H15.3813C15.8879 29.1464 16.3063 28.728 16.3063 28.2214V26.8339H13.9938Z" fill="#222222"/>
<path d="M6.2633 20.9541C7.92972 20.9541 9.28062 19.7905 9.28062 18.3552C9.28062 16.9199 7.92972 15.7563 6.2633 15.7563C4.59688 15.7563 3.24597 16.9199 3.24597 18.3552C3.24597 19.7905 4.59688 20.9541 6.2633 20.9541Z" fill="white"/>
<path d="M6.26325 21.35C4.36916 21.35 2.84949 20.0065 2.84949 18.3547C2.84949 16.7029 4.39119 15.3594 6.26325 15.3594C8.13531 15.3594 9.67701 16.7029 9.67701 18.3547C9.67701 20.0065 8.15733 21.35 6.26325 21.35ZM6.26325 16.1522C4.80965 16.1522 3.64236 17.1433 3.64236 18.3547C3.64236 19.566 4.80965 20.5571 6.26325 20.5571C7.71685 20.5571 8.88413 19.566 8.88413 18.3547C8.88413 17.1433 7.71685 16.1522 6.26325 16.1522Z" fill="#222222"/>
<path d="M23.8607 20.9541C25.5271 20.9541 26.878 19.7905 26.878 18.3552C26.878 16.9199 25.5271 15.7563 23.8607 15.7563C22.1943 15.7563 20.8434 16.9199 20.8434 18.3552C20.8434 19.7905 22.1943 20.9541 23.8607 20.9541Z" fill="white"/>
<path d="M23.8607 21.35C21.9666 21.35 20.4469 20.0065 20.4469 18.3547C20.4469 16.7029 21.9886 15.3594 23.8607 15.3594C25.7327 15.3594 27.2744 16.7029 27.2744 18.3547C27.2744 20.0065 25.7547 21.35 23.8607 21.35ZM23.8607 16.1522C22.4071 16.1522 21.2398 17.1433 21.2398 18.3547C21.2398 19.566 22.4071 20.5571 23.8607 20.5571C25.3143 20.5571 26.4815 19.566 26.4815 18.3547C26.4815 17.1433 25.3143 16.1522 23.8607 16.1522Z" fill="#222222"/>
<path d="M20.6892 10.6466L17.738 6.8584C17.738 6.8584 17.0772 9.19297 16.6588 10.6245L12.0117 10.6025L10.9105 7.21078L9.61102 10.5805H6.04309V17.7164C6.04309 22.7379 10.1176 26.8124 15.1391 26.8124C20.1606 26.8124 24.2351 22.7379 24.2351 17.7164V10.6245L20.6892 10.6466Z" fill="white"/>
<path d="M15.1391 27.2309C9.89728 27.2309 5.64661 22.9802 5.64661 17.7164V10.5805C5.64661 10.4704 5.69065 10.3823 5.75673 10.2942C5.8228 10.2282 5.93292 10.1841 6.04304 10.1841H9.3687L10.558 7.07868C10.6241 6.92451 10.7783 6.81439 10.9324 6.81439C11.1086 6.81439 11.2408 6.92451 11.3068 7.10071L12.32 10.2061H16.3724L17.3635 6.72629C17.4076 6.57212 17.5177 6.462 17.6718 6.43998C17.826 6.41795 17.9802 6.462 18.0683 6.59415L20.8874 10.2282L24.2571 10.2502C24.4773 10.2502 24.6535 10.4264 24.6535 10.6466V17.7164C24.6535 22.9582 20.4029 27.2309 15.1391 27.2309ZM6.43947 10.999V17.7384C6.43947 22.5397 10.3378 26.438 15.1391 26.438C19.9403 26.438 23.8386 22.5397 23.8386 17.7384V11.0651H20.6671C20.535 11.0651 20.4249 10.999 20.3588 10.9109L17.9141 7.71739C17.6939 8.53228 17.3195 9.80969 17.0552 10.7347C17.0111 10.9109 16.8569 11.021 16.6808 11.021H12.0336C11.8574 11.021 11.7033 10.9109 11.6592 10.7347L10.9104 8.42216L10.0294 10.7347C9.96336 10.8889 9.83121 10.999 9.65502 10.999H6.43947Z" fill="#222222"/>
<path d="M15.095 19.6324C14.8087 19.6324 14.5223 19.6104 14.258 19.5663C14.0378 19.5223 13.9057 19.3241 13.9277 19.1038C13.9497 18.8836 14.1699 18.7514 14.3902 18.7734C14.7646 18.8395 15.117 18.8395 15.4914 18.7955C15.4694 18.4871 15.161 17.6943 14.7866 16.9895C14.6765 16.7913 14.7206 16.549 14.9188 16.4389C15.117 16.3288 15.3593 16.3728 15.4694 16.571C15.4694 16.593 15.4914 16.593 15.4914 16.6151C15.8658 17.3419 16.4605 18.6413 16.1962 19.2139C16.1301 19.3901 15.9759 19.5002 15.7997 19.5443C15.5795 19.6104 15.3372 19.6544 15.095 19.6324Z" fill="#222222"/>
</svg>
