<svg width="79" height="33" viewBox="0 0 79 33" fill="none" xmlns="http://www.w3.org/2000/svg">
<g clip-path="url(#clip0_675_7699)">
<path d="M0 0V33C8.58592 32.2929 15.338 25.1861 15.338 16.5C15.338 7.81393 8.58592 0.707143 0 0Z" fill="#647B3B" fill-opacity="0.05"/>
<path d="M21.2207 0V33C29.8066 32.2929 36.5587 25.1861 36.5587 16.5C36.5587 7.81393 29.8066 0.707143 21.2207 0Z" fill="#647B3B" fill-opacity="0.05"/>
<path d="M42.4414 0V33C51.0273 32.2929 57.7794 25.1861 57.7794 16.5C57.7794 7.81393 51.0273 0.707143 42.4414 0Z" fill="#647B3B" fill-opacity="0.05"/>
<path d="M63.6504 0V33C72.2363 32.2929 78.9883 25.1861 78.9883 16.5C78.9883 7.81393 72.2482 0.707143 63.6504 0Z" fill="#647B3B" fill-opacity="0.05"/>
</g>
<defs>
<clipPath id="clip0_675_7699">
<rect width="79" height="33" fill="white"/>
</clipPath>
</defs>
</svg>
