<svg width="50" height="50" viewBox="0 0 50 50" fill="none" xmlns="http://www.w3.org/2000/svg">
<g clip-path="url(#clip0_681_8393)">
<g clip-path="url(#clip1_681_8393)">
<path fill-rule="evenodd" clip-rule="evenodd" d="M23.679 46.0099C23.9646 46.4646 24.4646 46.7418 25.0023 46.7418C25.54 46.7418 26.04 46.4646 26.3256 46.0099C30.5548 39.2668 43.6332 18.4132 46.635 13.6268C47.0013 13.0422 46.9411 12.2864 46.486 11.7667C44.7647 9.80215 40.6355 5.08706 39.2438 3.49793C38.9469 3.16046 38.5184 2.96558 38.0684 2.96558C34.2127 2.96558 15.7919 2.96558 11.9362 2.96558C11.4862 2.96558 11.0577 3.16046 10.7608 3.49793C9.36905 5.08706 5.23985 9.80215 3.51858 11.7667C3.06352 12.2864 3.00332 13.0422 3.36962 13.6268C6.37137 18.4132 19.4498 39.2668 23.679 46.0099Z" fill="#FDF0EA"/>
<path fill-rule="evenodd" clip-rule="evenodd" d="M3.19849 12.6563H46.8265C46.7629 12.4479 46.6556 12.2509 46.5055 12.079C44.7838 10.1145 40.6515 5.39849 39.2592 3.80915C38.9632 3.47044 38.5338 3.27661 38.0836 3.27661C34.2275 3.27661 15.7975 3.27661 11.9414 3.27661C11.4911 3.27661 11.0618 3.47044 10.7658 3.80915C9.37345 5.39849 5.24117 10.1145 3.51948 12.079C3.36941 12.2509 3.26206 12.4479 3.19849 12.6563Z" fill="white"/>
<path fill-rule="evenodd" clip-rule="evenodd" d="M18.7595 12.6563L25.0127 3.27661H11.9415C11.7925 3.27661 11.6456 3.29745 11.5049 3.33914L18.7595 12.6563ZM25.0127 3.27661L31.2658 12.6563L38.5204 3.33914C38.3798 3.29745 38.2328 3.27661 38.0838 3.27661H25.0127Z" fill="#FDF0EA"/>
<path fill-rule="evenodd" clip-rule="evenodd" d="M31.2657 12.6563H18.7595L25.0126 3.27661L31.2657 12.6563Z" fill="white"/>
<path fill-rule="evenodd" clip-rule="evenodd" d="M25.0126 47.061L18.7595 12.6562H31.2657L25.0126 47.061Z" fill="white"/>
<path fill-rule="evenodd" clip-rule="evenodd" d="M12.504 40.8264L13.738 42.7197L15.6312 43.9536L13.738 45.1865L12.504 47.0797L11.2712 45.1865L9.37793 43.9536L11.2712 42.7197L12.504 40.8264Z" fill="#FDF0EA"/>
<path fill-rule="evenodd" clip-rule="evenodd" d="M6.25403 28.3264L7.48801 30.2197L9.38122 31.4536L7.48801 32.6865L6.25403 34.5797L5.02114 32.6865L3.12793 31.4536L5.02114 30.2197L6.25403 28.3264Z" fill="#FDF0EA"/>
<path fill-rule="evenodd" clip-rule="evenodd" d="M42.7118 33.5344L43.9458 35.4276L45.839 36.6616L43.9458 37.8945L42.7118 39.7877L41.4789 37.8945L39.5857 36.6616L41.4789 35.4276L42.7118 33.5344Z" fill="#FDF0EA"/>
<path d="M19.2783 40.1203C19.8539 40.1203 20.3205 39.6537 20.3205 39.0781C20.3205 38.5025 19.8539 38.0359 19.2783 38.0359C18.7027 38.0359 18.2361 38.5025 18.2361 39.0781C18.2361 39.6537 18.7027 40.1203 19.2783 40.1203Z" fill="#35B96A"/>
<path fill-rule="evenodd" clip-rule="evenodd" d="M4.44923 13.6984H17.8966L23.761 44.4836L21.9309 41.5665C21.6256 41.0788 20.9815 40.9319 20.4948 41.2372C20.007 41.5426 19.8601 42.1866 20.1655 42.6733C20.1655 42.6733 22.1269 45.8009 22.8053 46.8827C23.2816 47.6425 24.1153 48.1031 25.0127 48.1031C25.91 48.1031 26.7437 47.6425 27.22 46.8827L47.5375 14.4936C48.1492 13.5192 48.0481 12.2581 47.2894 11.3921C45.5677 9.42754 41.4365 4.71163 40.0441 3.1223C39.5491 2.55847 38.8352 2.23438 38.0838 2.23438H11.9416C11.1901 2.23438 10.4762 2.55847 9.98116 3.1223C8.5888 4.71163 4.45757 9.42754 2.73587 11.3921C1.97716 12.2581 1.87607 13.5192 2.48783 14.4936L16.7189 37.18C17.0253 37.6677 17.6684 37.8146 18.1561 37.5093C18.6428 37.2039 18.7908 36.5599 18.4854 36.0732L4.44923 13.6984ZM44.7131 11.6141L38.7216 4.77626L33.3981 11.6141H40.6455C41.2208 11.6141 41.6877 12.081 41.6877 12.6563C41.6877 13.2315 41.2208 13.6984 40.6455 13.6984H32.1287L26.2643 44.4836L45.5761 13.6984H43.772C43.1968 13.6984 42.7299 13.2315 42.7299 12.6563C42.7299 12.081 43.1968 11.6141 43.772 11.6141H44.7131ZM30.0068 13.6984H20.0185L25.0127 39.9157L30.0068 13.6984ZM5.31216 11.6141H16.6272L11.3037 4.77626L5.31216 11.6141ZM20.7074 11.6141H29.3179L25.0127 5.15564L20.7074 11.6141ZM36.4361 4.31874H26.9605L31.3315 10.8751L36.4361 4.31874ZM23.0648 4.31874H13.5893L18.6939 10.8751L23.0648 4.31874Z" fill="#35B96A"/>
<path fill-rule="evenodd" clip-rule="evenodd" d="M13.3773 40.2572C13.1854 39.9621 12.8574 39.7844 12.5042 39.7844C12.1521 39.7844 11.8242 39.9621 11.6311 40.2572L10.5178 41.9661L8.80881 43.0806C8.51375 43.2725 8.33496 43.6005 8.33496 43.9537C8.33496 44.3058 8.51375 44.6337 8.80881 44.8268L10.5178 45.9401L11.6311 47.6491C11.8242 47.9441 12.1521 48.1229 12.5042 48.1229C12.8574 48.1229 13.1854 47.9441 13.3773 47.6491L14.4918 45.9401L16.2007 44.8268C16.4958 44.6337 16.6734 44.3058 16.6734 43.9537C16.6734 43.6005 16.4958 43.2725 16.2007 43.0806L14.4918 41.9661L13.3773 40.2572ZM12.5042 42.735L12.8651 43.289C12.9441 43.4096 13.0483 43.5138 13.1689 43.5928L13.7229 43.9537L13.1689 44.3134C13.0483 44.3924 12.9441 44.4966 12.8651 44.6184L12.5042 45.1712L12.1444 44.6184C12.0655 44.4966 11.9613 44.3924 11.8395 44.3134L11.2867 43.9537L11.8395 43.5928C11.9613 43.5138 12.0655 43.4096 12.1444 43.289L12.5042 42.735Z" fill="#35B96A"/>
<path fill-rule="evenodd" clip-rule="evenodd" d="M7.12729 27.7572C6.93534 27.4621 6.60738 27.2844 6.25418 27.2844C5.90209 27.2844 5.57412 27.4621 5.38107 27.7572L4.26774 29.4661L2.55881 30.5806C2.26375 30.7725 2.08496 31.1005 2.08496 31.4537C2.08496 31.8058 2.26375 32.1337 2.55881 32.3268L4.26774 33.4401L5.38107 35.1491C5.57412 35.4441 5.90209 35.6229 6.25418 35.6229C6.60738 35.6229 6.93534 35.4441 7.12729 35.1491L8.24172 33.4401L9.95065 32.3268C10.2458 32.1337 10.4234 31.8058 10.4234 31.4537C10.4234 31.1005 10.2458 30.7725 9.95065 30.5806L8.24172 29.4661L7.12729 27.7572ZM6.25418 30.235L6.61505 30.789C6.69403 30.9096 6.79823 31.0138 6.91889 31.0928L7.47281 31.4537L6.91889 31.8134C6.79823 31.8924 6.69403 31.9966 6.61505 32.1184L6.25418 32.6712L5.89441 32.1184C5.81543 31.9966 5.71123 31.8924 5.58948 31.8134L5.03665 31.4537L5.58948 31.0928C5.71123 31.0138 5.81543 30.9096 5.89441 30.789L6.25418 30.235Z" fill="#35B96A"/>
<path fill-rule="evenodd" clip-rule="evenodd" d="M43.5851 32.965C43.3931 32.6699 43.0651 32.4922 42.7119 32.4922C42.3598 32.4922 42.0319 32.6699 41.8388 32.965L40.7255 34.6739L39.0166 35.7883C38.7215 35.9803 38.5427 36.3083 38.5427 36.6615C38.5427 37.0136 38.7215 37.3415 39.0166 37.5346L40.7255 38.6479L41.8388 40.3568C42.0319 40.6519 42.3598 40.8307 42.7119 40.8307C43.0651 40.8307 43.3931 40.6519 43.5851 40.3568L44.6995 38.6479L46.4084 37.5346C46.7035 37.3415 46.8812 37.0136 46.8812 36.6615C46.8812 36.3083 46.7035 35.9803 46.4084 35.7883L44.6995 34.6739L43.5851 32.965ZM42.7119 35.4428L43.0728 35.9967C43.1518 36.1174 43.256 36.2216 43.3767 36.3006L43.9306 36.6615L43.3767 37.0212C43.256 37.1002 43.1518 37.2044 43.0728 37.3262L42.7119 37.879L42.3522 37.3262C42.2732 37.2044 42.169 37.1002 42.0472 37.0212L41.4944 36.6615L42.0472 36.3006C42.169 36.2216 42.2732 36.1174 42.3522 35.9967L42.7119 35.4428Z" fill="#35B96A"/>
</g>
</g>
<defs>
<clipPath id="clip0_681_8393">
<rect width="50" height="50" fill="white"/>
</clipPath>
<clipPath id="clip1_681_8393">
<rect width="50" height="50" fill="white"/>
</clipPath>
</defs>
</svg>
