<svg width="51" height="51" viewBox="0 0 51 51" fill="none" xmlns="http://www.w3.org/2000/svg">
<path d="M31.4088 6.45922C31.4088 6.45922 29.9307 16.2112 28.8704 18.3801L32.8547 19.0548L33.1921 18.2515L33.6419 19.3119L37.7387 19.9224L36.5177 4.88477L31.4088 6.45922Z" fill="white"/>
<path d="M37.7386 20.0347H37.7225L33.6258 19.4242C33.5936 19.4242 33.5454 19.3921 33.5454 19.36L33.2081 18.5406L32.9671 19.1029C32.951 19.1511 32.9028 19.1833 32.8385 19.1672L28.8542 18.4764C28.7899 18.4603 28.7578 18.4121 28.7578 18.3478C28.7578 18.3318 28.7578 18.3318 28.7739 18.3157C29.8182 16.1789 31.2801 6.52338 31.2962 6.42698C31.2962 6.37878 31.3283 6.34665 31.3765 6.33058L36.5015 4.75613C36.5658 4.74007 36.614 4.7722 36.6461 4.8204C36.6461 4.83646 36.6461 4.83646 36.6461 4.85253L37.8671 19.8901C37.8671 19.9223 37.8511 19.9544 37.835 19.9865C37.8029 20.0187 37.7707 20.0347 37.7386 20.0347ZM33.7222 19.2154L37.6262 19.7938L36.4212 5.02925L31.5051 6.53944C31.3605 7.47126 30.0431 15.9701 29.0309 18.2836L32.7903 18.9262L33.0956 18.2032C33.1117 18.1711 33.1599 18.139 33.192 18.139C33.2402 18.139 33.2723 18.1711 33.2884 18.2032L33.7222 19.2154Z" fill="#222222"/>
<path d="M10.6517 3.93689C10.8284 3.42278 11.0694 2.92474 11.3747 2.45883C11.8406 1.89653 12.4029 1.44668 13.0455 1.12537C14.877 0.225681 17.7367 -0.336622 19.6646 0.530933C20.8856 1.07717 21.9781 2.08932 22.2352 3.40672C22.3155 3.92082 22.3155 4.43493 22.2512 4.94904C21.946 8.1622 19.6004 8.90123 17.1905 10.4436C15.5518 11.4878 13.2544 12.4839 11.2622 11.7449C9.73595 11.1826 9.02905 9.39927 8.86839 7.90515C8.77199 6.9894 8.69167 5.25429 9.51102 4.61165C9.84841 4.33854 10.2982 4.25821 10.716 4.3546C10.5874 4.3546 10.5874 4.17788 10.6517 3.93689Z" fill="white"/>
<path d="M12.7563 12.1463C12.2422 12.1463 11.7281 12.066 11.2461 11.8893C9.68775 11.3109 8.94873 9.47941 8.772 7.95315C8.65954 6.97314 8.59528 5.23803 9.44677 4.56326C9.75202 4.32227 10.1215 4.20981 10.5071 4.24194C10.5071 4.12948 10.5232 4.01702 10.5553 3.92063C10.732 3.39046 10.9891 2.87635 11.3104 2.41044C11.7763 1.84813 12.3547 1.38223 13.0134 1.04484C14.861 0.12909 17.7528 -0.449279 19.745 0.450408C21.1588 1.09304 22.1388 2.20158 22.3798 3.40652C22.4601 3.93669 22.4601 4.46687 22.3958 4.98097C22.1388 7.6961 20.4519 8.67611 18.5079 9.81679C18.1063 10.0417 17.6885 10.2988 17.2869 10.5558C16.0498 11.343 14.395 12.1463 12.7563 12.1463ZM10.3786 4.46687C10.0894 4.46687 9.81628 4.56326 9.59136 4.73999C8.78807 5.36655 8.91659 7.18199 8.99692 7.93709C9.15758 9.39908 9.86448 11.1503 11.3265 11.6804C13.3026 12.4195 15.5839 11.3752 17.1423 10.3791C17.56 10.106 17.9777 9.86499 18.3794 9.64007C20.2751 8.53152 21.9139 7.56757 22.1548 4.96491C22.2191 4.46687 22.2191 3.95276 22.1388 3.45472C21.9139 2.31405 20.982 1.26976 19.6325 0.659263C17.7207 -0.208292 14.9092 0.354013 13.0937 1.2537C12.4671 1.57502 11.9048 2.00879 11.455 2.55503C11.1658 3.00488 10.9248 3.48685 10.7481 3.98489C10.6838 4.19375 10.716 4.27408 10.732 4.29014H10.7481C10.8124 4.30621 10.8445 4.35441 10.8284 4.41867C10.8124 4.48293 10.7642 4.51506 10.6999 4.499H10.6838C10.5874 4.46687 10.491 4.46687 10.3786 4.46687Z" fill="#222222"/>
<path d="M33.3045 20.6134L30.493 24.1157L29.8343 32.1165C29.8343 32.1165 29.8664 32.6949 29.9306 33.7391C29.9788 34.5746 30.0431 35.6992 30.1395 37.0648C30.2841 39.4425 30.493 42.5272 30.7339 46.0777C30.3805 46.399 30.027 46.7043 29.6736 47.0256C29.3202 47.3469 28.9667 47.6682 28.6133 47.9895C27.6814 48.841 26.7817 49.7086 25.866 50.5601C25.8017 50.6243 25.7214 50.6886 25.6411 50.7689C25.3198 50.4637 25.0145 50.1745 24.6932 49.8853C22.9741 48.2627 21.239 46.6561 19.4718 45.0816C18.9737 44.6157 18.4596 44.1659 17.9455 43.716C17.3029 43.1377 16.6603 42.5754 16.0016 41.997C15.4393 41.4989 14.877 41.017 14.3147 40.5189C13.3828 39.7156 12.451 38.8963 11.5192 38.093C9.54311 36.39 7.56701 34.687 5.65517 32.9198C4.73942 32.0844 3.8558 31.2329 2.97218 30.3493C1.9279 29.305 0.931818 28.2125 0 27.0718C1.42986 24.2603 3.77547 20.1314 5.71944 18.8943C7.26176 17.609 9.75196 17.0307 12.7723 16.7094C14.1379 16.5648 15.5999 16.4844 17.1262 16.4202L19.1987 16.3398C19.1987 16.3398 19.52 16.3559 20.2108 16.4202C20.9017 16.4844 21.9138 16.5808 23.3276 16.7254C26.4604 17.111 33.3045 20.6134 33.3045 20.6134Z" fill="#D1D3D4"/>
<path d="M48.101 25.947C48.085 26.2362 48.0689 26.5896 48.0689 26.9913C48.0529 27.9392 48.0529 29.1923 48.0529 30.6222C46.3981 32.2769 44.663 33.8193 42.9118 35.3616L42.0442 36.1327C40.5501 37.4501 39.0721 38.7515 37.5779 40.0689C37.1763 40.4223 36.7746 40.7758 36.3891 41.1132C34.7664 42.543 33.1438 43.9729 31.505 45.4188C31.248 45.6437 30.9909 45.8686 30.7339 46.0936C30.3804 46.4149 30.027 46.7201 29.6735 47.0414C29.3201 47.3628 28.9666 47.6841 28.6132 48.0054L28.1473 48.0215C28.1473 48.0215 27.6814 43.3302 27.5689 38.382C27.5529 37.7072 27.5368 37.0324 27.5368 36.3737L26.2997 37.8839L26.2194 37.9803L25.4 38.9603L22.1547 42.8804L19.777 41.6273C19.0058 41.2096 18.1865 40.7918 17.6081 40.4866C17.2868 40.3259 17.0458 40.1974 16.9173 40.1171L16.8048 40.0528C16.9815 39.6672 17.1743 39.3138 17.3832 38.9443C17.4956 38.7354 17.6242 38.5105 17.7688 38.2534C17.9455 37.9321 18.1543 37.5626 18.3793 37.177C18.7166 36.5826 19.0701 35.94 19.4557 35.2652C19.9698 34.3655 20.4999 33.4176 21.0301 32.4858C21.737 31.2648 22.4118 30.0599 22.9902 29.0638C23.6167 27.9713 24.1148 27.1038 24.3718 26.67C24.4361 26.5736 24.4843 26.4932 24.5164 26.429L24.9663 25.69C25.4964 24.8063 26.0587 23.9066 26.7496 23.1676C26.7978 23.1194 26.846 23.0552 26.9102 23.007C27.9866 21.9145 29.3201 21.1433 30.766 20.565C31.4408 20.3079 32.1155 20.083 32.8064 19.9063H32.8385C33.3687 19.7777 33.8989 19.6492 34.413 19.5689C34.5415 19.5528 34.67 19.5207 34.7825 19.5046L35.0074 19.4725C35.5054 19.3761 36.0195 19.2958 36.5337 19.2315C36.9032 19.1833 37.2727 19.1512 37.6422 19.119C38.1884 19.0869 38.7507 19.0708 39.297 19.103C39.9075 19.1351 40.534 19.2476 41.1285 19.4082C41.8354 19.6171 42.5262 19.9223 43.1367 20.34C43.2974 20.4525 43.4741 20.565 43.6669 20.6774C44.1649 20.9827 44.7112 21.32 45.2413 21.6896C45.6912 21.9948 46.125 22.3322 46.5266 22.7017C46.88 23.007 47.1853 23.3604 47.4424 23.746C47.7155 24.1316 47.8922 24.5653 48.0047 25.0313C48.101 25.3365 48.1171 25.6418 48.101 25.947Z" fill="#D1D3D4"/>
<path d="M23.0384 27.0232C23.0223 27.0232 23.0063 27.0232 22.9741 27.0072C22.9259 26.975 22.9099 26.9108 22.9259 26.8465C23.0223 26.6698 25.4001 22.5409 26.7978 21.609C28.1795 20.6612 32.6458 19.8257 32.8225 19.7775C32.8868 19.7615 32.935 19.8097 32.951 19.8739C32.9671 19.9382 32.9189 19.9864 32.8707 20.0025C32.8225 20.0185 28.2759 20.87 26.9263 21.7858C25.5768 22.7015 23.1509 26.9108 23.1187 26.959C23.1187 26.9911 23.0866 27.0232 23.0384 27.0232Z" fill="#222222"/>
<path d="M20.1145 15.3435L20.5 20.0347C20.5 20.0347 20.0823 22.6534 17.1584 22.2197C14.2344 21.7859 13.2544 18.6852 13.2544 18.6852L12.2904 11.3591C12.2904 11.3591 14.2986 10.0417 13.2544 5.49512C13.2544 5.49512 16.5639 6.76432 20.7571 5.8325C20.7571 5.8325 22.5083 10.6844 22.3798 12.9336C22.2512 15.1828 20.1145 15.3435 20.1145 15.3435Z" fill="white"/>
<path d="M17.7688 22.3964C17.5599 22.3964 17.3511 22.3803 17.1422 22.3482C14.1861 21.9144 13.1418 18.7494 13.1418 18.7173L12.1779 11.3752C12.1779 11.327 12.1939 11.2949 12.2261 11.2628C12.2261 11.2628 12.708 10.9254 13.0615 10.0739C13.3828 9.2706 13.672 7.82468 13.1418 5.52726C13.1257 5.49513 13.1418 5.44693 13.1739 5.4148C13.2061 5.38267 13.2543 5.38267 13.2864 5.39874C13.3185 5.4148 16.6281 6.65187 20.7249 5.73612C20.7731 5.72005 20.8373 5.75218 20.8534 5.80038C20.9177 5.99317 22.6206 10.7005 22.4761 12.9497C22.3475 14.9579 20.6927 15.3756 20.2429 15.4559L20.6124 20.0347C20.6124 20.0508 20.6124 20.0508 20.6124 20.0668C20.6124 20.0829 20.2108 22.3964 17.7688 22.3964ZM12.4028 11.4074L13.3667 18.6691C13.3667 18.6852 14.3789 21.7216 17.1904 22.1233C19.8895 22.5089 20.3714 20.2596 20.4036 20.0347L20.0019 15.3596C20.0019 15.2953 20.0501 15.2471 20.0983 15.231C20.1786 15.231 22.1065 15.0382 22.2511 12.9175C22.3797 10.8933 20.9177 6.63581 20.6767 5.96104C18.2668 6.47515 15.7605 6.37875 13.3989 5.65579C14.2664 9.68831 12.7402 11.1342 12.4028 11.4074Z" fill="#222222"/>
<path d="M20.3554 18.2516C19.3111 17.9624 18.3311 17.4644 17.4796 16.7896C16.114 15.6971 16.1622 14.9902 16.1622 14.9902C16.1622 14.9902 18.2829 15.906 20.1305 15.3597L20.3554 18.2516Z" fill="#222222"/>
<path d="M20.3553 18.3636C20.3393 18.3636 20.3393 18.3636 20.3232 18.3636C19.2629 18.0744 18.2668 17.5603 17.3992 16.8856C16.0015 15.761 16.0336 15.0219 16.0336 14.9898C16.0336 14.9577 16.0497 14.9255 16.0818 14.8934C16.114 14.8773 16.1461 14.8773 16.1782 14.8934C16.1943 14.8934 18.2989 15.7931 20.0662 15.2629C20.0983 15.2468 20.1304 15.2629 20.1626 15.279C20.1947 15.295 20.2107 15.3272 20.2107 15.3593L20.4517 18.2512C20.4517 18.2833 20.4357 18.3154 20.4196 18.3476C20.4035 18.3476 20.3875 18.3636 20.3553 18.3636ZM16.3068 15.1504C16.3871 15.4075 16.6441 15.9698 17.5599 16.6928C18.3632 17.3193 19.2629 17.7852 20.2429 18.0905L20.018 15.4878C18.4917 15.8895 16.853 15.3593 16.3068 15.1504Z" fill="#222222"/>
<path d="M18.2507 9.15771C18.2507 9.15771 19.3111 10.941 19.0058 11.3748C18.7006 11.8086 17.6724 11.6801 17.6724 11.6801" fill="white"/>
<path d="M18.0098 11.8089C17.8973 11.8089 17.7848 11.8089 17.6724 11.7928C17.6081 11.7928 17.5599 11.7286 17.576 11.6643C17.5921 11.6 17.6403 11.5518 17.7045 11.5679C17.9776 11.6 18.7006 11.6161 18.9255 11.3109C19.1022 11.0538 18.5881 9.92919 18.1704 9.2223C18.1383 9.1741 18.1544 9.09377 18.2026 9.06164C18.2508 9.02951 18.3311 9.04557 18.3632 9.09377C18.5399 9.39902 19.4396 10.9735 19.1022 11.4394C18.8773 11.7446 18.3472 11.8089 18.0098 11.8089Z" fill="#222222"/>
<path d="M13.5275 10.476C13.399 10.0904 13.1419 9.7691 12.8045 9.54418C12.3225 9.22286 11.6799 8.99794 11.1015 9.1104C10.5232 9.22286 10.1858 9.84943 10.1376 10.3957C10.1055 10.9098 10.2661 11.4239 10.5714 11.8416C11.2783 12.8055 12.4993 13.2233 13.5917 12.6128" fill="white"/>
<path d="M12.4992 12.9976C11.6798 12.9816 10.9248 12.5639 10.4588 11.8891C10.1215 11.4553 9.9608 10.9091 10.009 10.3789C10.0572 9.78446 10.4428 9.1097 11.0693 8.98117C11.6156 8.86871 12.2743 9.04543 12.8687 9.43101C13.2222 9.672 13.4953 10.0254 13.6399 10.4271C13.6559 10.4914 13.6238 10.5556 13.5596 10.5717C13.5114 10.5878 13.4471 10.5556 13.431 10.5074C13.3025 10.154 13.0615 9.83266 12.7563 9.6238C12.2261 9.27036 11.6156 9.1097 11.1336 9.20609C10.6195 9.30249 10.2982 9.88086 10.25 10.395C10.2179 10.893 10.3624 11.375 10.6677 11.7606C11.3746 12.7406 12.5635 13.0458 13.5435 12.4996C13.5917 12.4675 13.672 12.4996 13.6881 12.5478C13.7041 12.596 13.6881 12.6602 13.6399 12.6924C13.2864 12.9012 12.9009 12.9976 12.4992 12.9976Z" fill="#222222"/>
<path d="M42.5103 24.0349C42.3014 24.1956 42.1408 24.4044 42.0283 24.6454C41.948 24.8864 42.0122 25.2077 42.2532 25.3202C42.4942 25.4326 42.7673 25.288 42.9922 25.1434L45.37 23.6332L43.7634 24.9185C43.4903 25.1434 43.185 25.529 43.3939 25.8021C43.5706 26.0431 43.9401 25.9628 44.2133 25.8503C45.129 25.4648 45.9805 24.9346 46.7356 24.2759L44.7595 26.011C44.4864 26.252 44.2132 26.6376 44.4221 26.9107C44.5346 27.0392 44.7113 27.1035 44.888 27.0874C45.5306 27.1195 46.1411 26.8303 46.5589 26.3484L45.8198 27.1035C45.6752 27.2481 45.5306 27.5051 45.6752 27.6497C45.7716 27.714 45.8841 27.7461 45.9966 27.714C47.314 27.5533 48.535 26.8946 49.3704 25.8503C49.756 25.4005 50.013 24.8542 50.1255 24.2598C50.4147 22.5086 48.7438 20.8378 46.9926 20.9824C45.3861 21.1109 43.6349 23.0549 42.5103 24.0349Z" fill="white"/>
<path d="M45.884 27.8108C45.7715 27.8108 45.6751 27.7787 45.5948 27.7144C45.402 27.5377 45.5305 27.2485 45.7073 27.0557C45.4341 27.1521 45.161 27.2003 44.8718 27.1843C44.663 27.2003 44.4702 27.12 44.3417 26.9593C44.0846 26.638 44.3577 26.2043 44.679 25.9151L45.2092 25.4492C44.904 25.6259 44.5827 25.7865 44.2453 25.9151C43.8115 26.0918 43.4741 26.0757 43.2974 25.8347C43.0403 25.4974 43.3295 25.0796 43.683 24.8065L43.7954 24.7101L43.0403 25.1921C42.7833 25.3528 42.478 25.5134 42.2049 25.3849C41.9318 25.2564 41.8354 24.8547 41.9318 24.5816C42.0442 24.3246 42.221 24.0996 42.4459 23.939C42.6387 23.7783 42.8475 23.5695 43.0725 23.3606C44.1489 22.3485 45.6109 20.9829 46.9765 20.8704C47.9083 20.8222 48.824 21.1917 49.4506 21.8986C50.0611 22.5252 50.3503 23.4088 50.2218 24.2764C50.1093 24.8708 49.8362 25.4331 49.4506 25.899C48.5991 26.9593 47.362 27.6341 46.0125 27.7948C45.9643 27.8108 45.9161 27.8108 45.884 27.8108ZM46.382 26.6541L45.884 27.1682C45.7715 27.2807 45.643 27.4735 45.7394 27.5699C45.8197 27.618 45.9001 27.618 45.9804 27.602C47.2817 27.4574 48.4706 26.7987 49.2739 25.7865C49.6434 25.3528 49.9004 24.8226 50.0129 24.2442C50.1254 23.4409 49.8683 22.6376 49.2899 22.0432C48.7116 21.3845 47.8601 21.0311 46.9765 21.0793C45.6912 21.1756 44.2453 22.5252 43.201 23.5213C42.9761 23.7301 42.7672 23.939 42.5744 24.0996C42.3816 24.2442 42.221 24.437 42.1246 24.6619C42.0603 24.8547 42.1085 25.1278 42.2852 25.2082C42.462 25.2885 42.719 25.176 42.9279 25.0314L45.3056 23.5213C45.3538 23.5052 45.4181 23.5213 45.4341 23.5695C45.4502 23.6016 45.4502 23.6498 45.4181 23.6819L43.8115 24.9672C43.7472 25.0154 43.2492 25.4331 43.458 25.7223C43.6187 25.9311 44.0043 25.8026 44.1489 25.7383C45.0486 25.3528 45.9 24.8387 46.6391 24.196C46.6873 24.1639 46.7515 24.1639 46.7837 24.2121C46.8158 24.2603 46.8158 24.3246 46.7676 24.3567L44.8236 26.0918C44.5666 26.3167 44.3417 26.638 44.5023 26.8469C44.5987 26.9433 44.7433 26.9915 44.8879 26.9915C45.3859 27.0075 45.8679 26.8469 46.2374 26.5256L46.4784 26.2846C46.5105 26.2525 46.5748 26.2525 46.623 26.2846C46.6712 26.3167 46.6712 26.381 46.6391 26.4292C46.5427 26.5095 46.4624 26.5898 46.382 26.6541Z" fill="#222222"/>
<path d="M45.9001 27.0717C45.8358 27.0717 45.7876 27.0235 45.7876 26.9592C45.7876 26.9271 45.8037 26.895 45.8197 26.8789C45.8358 26.8629 47.362 25.4651 48.4867 24.469C48.5349 24.4208 48.5991 24.4369 48.6473 24.4851C48.6955 24.5333 48.6794 24.5976 48.6473 24.6458C47.5227 25.6418 45.9965 27.0396 45.9804 27.0556C45.9483 27.0717 45.9322 27.0717 45.9001 27.0717Z" fill="#222222"/>
<path d="M36.373 41.1292C34.7504 42.5591 33.1277 43.9889 31.489 45.4348C31.232 45.6598 30.9749 45.8847 30.7178 46.1096C30.3644 46.4309 30.0109 46.7362 29.6575 47.0575C29.3041 47.3788 28.9506 47.7001 28.5972 48.0215C27.6653 48.8729 26.7656 49.7405 25.8499 50.592C25.7856 50.6562 25.7053 50.7205 25.625 50.8008C25.3037 50.4956 24.9984 50.2064 24.6771 49.9172C22.958 48.2946 21.2229 46.688 19.4557 45.1135C18.9577 44.6476 18.4435 44.1978 17.9294 43.7479C17.2868 43.1696 16.6442 42.6073 15.9855 42.0289C16.1622 41.4505 16.3389 40.8882 16.5478 40.358C16.7406 39.8761 16.9494 39.3941 17.1904 38.9282C17.3832 38.5426 17.6081 38.1731 17.8491 37.8196C18.0098 37.5787 18.1865 37.3698 18.3793 37.1609C18.6042 36.92 18.8291 36.695 19.0701 36.4862C19.8252 35.8114 20.6767 35.2491 21.5924 34.8153C22.4761 34.3976 23.4079 34.0924 24.3718 33.8835C24.6289 33.8353 24.8859 33.7871 25.143 33.7389C25.4161 33.6907 25.6732 33.6586 25.9302 33.6425C26.4925 33.5783 27.0709 33.5461 27.6332 33.5622C28.0509 33.5622 28.4526 33.5783 28.8542 33.6104C29.2237 33.6425 29.5611 33.6907 29.8985 33.7389C30.766 33.8675 31.6175 34.0924 32.4369 34.4298C32.8064 34.5743 33.1598 34.7832 33.4651 35.0403C33.8025 35.3776 34.0917 35.7632 34.3005 36.197C34.4451 36.454 34.6058 36.7432 34.7504 37.0645C34.8307 37.2252 34.911 37.4019 34.9914 37.5787C35.1841 38.0285 35.393 38.5265 35.6019 39.0406C35.8589 39.7154 36.116 40.4062 36.373 41.1292Z" fill="white"/>
<path d="M25.625 50.8974C25.5929 50.8974 25.5768 50.8813 25.5607 50.8653L25.1591 50.4957L24.6129 49.9816C23.0063 48.4554 21.3033 46.897 19.3915 45.194C18.8934 44.7281 18.3793 44.2783 17.8652 43.8284C17.2226 43.2501 16.5799 42.6877 15.9212 42.1254C15.8891 42.0933 15.873 42.0612 15.8891 42.013C16.0658 41.4346 16.2586 40.8723 16.4675 40.3261C16.6603 39.828 16.8691 39.3461 17.1101 38.8801C17.3029 38.4946 17.5278 38.1251 17.7688 37.7716V37.7555C17.9295 37.5146 18.1062 37.2896 18.3151 37.0808C18.5239 36.8559 18.7649 36.6149 19.022 36.3899C19.7931 35.7152 20.6446 35.1529 21.5764 34.703C22.4761 34.2853 23.4079 33.9801 24.3719 33.7712C24.6289 33.723 24.886 33.6748 25.143 33.6266C25.4001 33.5784 25.6732 33.5463 25.9463 33.5302C26.5086 33.466 27.087 33.4338 27.6654 33.4499C28.0831 33.4499 28.4847 33.466 28.9024 33.5142C29.2559 33.5463 29.6254 33.5945 29.9628 33.6427C30.8464 33.7712 31.6979 34.0122 32.5173 34.3496C32.9028 34.5102 33.2563 34.7191 33.5615 34.9761C33.915 35.3296 34.2042 35.7152 34.4291 36.165C34.5737 36.406 34.7183 36.6952 34.8789 37.0326C34.9593 37.1932 35.0396 37.37 35.1199 37.5467C35.3127 37.9805 35.5216 38.4785 35.7304 39.0087C35.9553 39.6031 36.2124 40.2779 36.5016 41.0812C36.5176 41.1133 36.5016 41.1615 36.4694 41.1936C34.8307 42.6235 33.2081 44.0533 31.5854 45.4832L29.7539 47.1059C29.3844 47.4272 29.031 47.7485 28.6936 48.0698C28.1634 48.5518 27.6332 49.0498 27.1031 49.5479C26.7175 49.9174 26.3319 50.2708 25.9463 50.6403L25.7214 50.8492C25.6732 50.8974 25.6571 50.8974 25.625 50.8974ZM16.114 42.013C16.7406 42.5592 17.3832 43.1215 18.0098 43.6838C18.5239 44.1337 19.022 44.5835 19.5361 45.0494C21.4479 46.7524 23.1509 48.3269 24.7575 49.8531L25.3037 50.3672L25.625 50.6725L25.7857 50.5279C26.1712 50.1584 26.5568 49.8049 26.9424 49.4354C27.4726 48.9374 28.0028 48.4393 28.5329 47.9573C28.8703 47.6521 29.2238 47.3308 29.5933 46.9934L31.4248 45.3707C33.0314 43.957 34.6379 42.5271 36.2445 41.1133C35.9714 40.3421 35.7304 39.6834 35.5055 39.1051C35.2966 38.5749 35.1039 38.0929 34.895 37.6591C34.8147 37.4824 34.7343 37.3057 34.654 37.145C34.4934 36.8077 34.3488 36.5345 34.2042 36.2775C33.9953 35.8598 33.7222 35.4903 33.3848 35.1529C33.0796 34.9119 32.7422 34.703 32.3887 34.5584C31.5854 34.2211 30.75 33.9961 29.8825 33.8676C29.5451 33.8194 29.1916 33.7712 28.8382 33.7391C28.4365 33.707 28.0349 33.6909 27.6172 33.6909C27.0549 33.6909 26.4926 33.723 25.9303 33.7712C25.6732 33.8033 25.4162 33.8355 25.143 33.8676C24.8699 33.8997 24.6289 33.9479 24.3719 34.0122C23.424 34.2211 22.4922 34.5263 21.6246 34.928C20.7089 35.3457 19.8734 35.908 19.1183 36.5667C18.8774 36.7916 18.6364 37.0165 18.4275 37.2414C18.2347 37.4503 18.058 37.6752 17.8973 37.9001C17.6564 38.2536 17.4475 38.607 17.2547 38.9765C17.0137 39.4425 16.8049 39.9084 16.6281 40.3903C16.4675 40.9205 16.2747 41.4667 16.114 42.013Z" fill="#222222"/>
<path d="M32.9832 33.8677C32.8065 33.9641 32.6619 34.1248 32.5494 34.3015C31.8907 35.2976 31.3766 36.374 31.0392 37.5147C30.9589 37.7717 30.9589 38.1412 31.2159 38.2055C31.4087 38.2537 31.5694 38.0609 31.6819 37.9002L32.6458 36.4864C32.212 37.0648 31.9068 37.7074 31.714 38.3983C31.6658 38.5268 31.6658 38.6553 31.714 38.7839C31.8104 38.9284 31.9871 38.9927 32.1478 38.9284C32.3084 38.8642 32.437 38.7678 32.5494 38.6393C32.9993 38.1734 33.4009 37.6592 33.7222 37.0969L32.7583 39.0891C32.6779 39.2498 32.5976 39.4907 32.7422 39.6032C32.8065 39.6675 32.9029 39.6835 32.9993 39.6835C33.4009 39.6996 33.5616 39.4907 33.8347 39.2016C34.1078 38.9124 34.5255 38.5268 34.7022 38.1734L33.9471 39.6032C33.8347 39.7799 33.7704 39.9727 33.7543 40.1816C33.7383 40.3904 33.8829 40.5832 34.0917 40.6314C34.2524 40.6314 34.413 40.5511 34.5094 40.4386C35.2967 39.7639 35.5055 39.1694 36.0518 38.2697C36.1964 38.6232 36.3731 38.9606 36.598 39.2819C37.096 38.3661 37.2085 37.2897 36.9193 36.2936C36.6623 35.4743 36.1 34.7674 35.3609 34.3336C34.8147 34.0123 33.5776 33.5946 32.9832 33.8677Z" fill="white"/>
<path d="M34.1238 40.7277H34.0756C33.8185 40.6795 33.6257 40.4385 33.6418 40.1814C33.6579 39.9565 33.7382 39.7477 33.8507 39.5549L34.1238 39.0568L34.0916 39.089L33.8988 39.2818L33.8346 39.346C33.5936 39.6031 33.4008 39.8119 32.9831 39.7959C32.8706 39.7959 32.7582 39.7637 32.6618 39.6834C32.5172 39.5549 32.5172 39.3299 32.6618 39.0408L33.0634 38.2053C32.9188 38.3821 32.7582 38.5427 32.6136 38.7194C32.5011 38.864 32.3405 38.9765 32.1637 39.0408C31.9549 39.105 31.7139 39.0247 31.6014 38.848C31.5372 38.7034 31.5372 38.5427 31.6014 38.3981C31.6336 38.2857 31.6657 38.1571 31.6978 38.0447C31.6014 38.1732 31.4086 38.3821 31.1677 38.3339C31.0713 38.3178 30.9909 38.2535 30.9267 38.1571C30.8463 37.9483 30.8303 37.7234 30.9106 37.5145C31.264 36.3738 31.7782 35.2814 32.4369 34.2692C32.5493 34.0764 32.71 33.9158 32.9028 33.8033C33.5775 33.498 34.8789 33.9961 35.3769 34.2692C36.1481 34.7191 36.7104 35.442 36.9835 36.2935C37.2887 37.3217 37.1602 38.4303 36.6622 39.3781C36.6461 39.4103 36.614 39.4263 36.5818 39.4263C36.5497 39.4263 36.5176 39.4103 36.5015 39.3942C36.3087 39.1211 36.1481 38.848 36.0195 38.5427C35.9392 38.6873 35.8589 38.8158 35.7946 38.9444C35.4572 39.5549 35.1841 40.0368 34.5575 40.567C34.4612 40.6473 34.3005 40.7116 34.1238 40.7277ZM34.7825 38.2535L34.0434 39.6513C33.947 39.8119 33.8828 39.9886 33.8667 40.1814C33.8506 40.3421 33.9631 40.4867 34.1077 40.5188C34.2362 40.5188 34.3648 40.4546 34.4612 40.3582C35.0556 39.8601 35.3126 39.3781 35.65 38.7837C35.7464 38.607 35.8589 38.4142 35.9713 38.2053C35.9874 38.1732 36.0356 38.1571 36.0677 38.1571C36.0999 38.1571 36.132 38.1893 36.1481 38.2214C36.2766 38.5106 36.4212 38.7998 36.5818 39.0729C36.9996 38.2053 37.0799 37.2253 36.8228 36.3096C36.5658 35.5063 36.0356 34.8315 35.3126 34.4138C34.7021 34.0764 33.5293 33.739 33.0152 33.964C32.8546 34.0604 32.726 34.1889 32.6296 34.3495C31.9709 35.3296 31.4729 36.406 31.1195 37.5466C31.0552 37.7073 31.0552 37.868 31.1195 38.0286C31.1355 38.0607 31.1837 38.0929 31.2158 38.1089C31.3122 38.125 31.4408 38.0447 31.5693 37.8519L32.2441 36.8558C32.3405 36.7112 32.4369 36.5666 32.5333 36.422C32.5654 36.3738 32.6296 36.3738 32.6778 36.406C32.726 36.4381 32.726 36.5024 32.6939 36.5506L32.4047 36.9683C32.1316 37.4181 31.9067 37.9162 31.7782 38.4303C31.746 38.5267 31.73 38.6391 31.7782 38.7355C31.8585 38.8319 31.987 38.8801 32.0995 38.8319C32.2441 38.7676 32.3565 38.6873 32.4529 38.5749C32.9028 38.1089 33.2883 37.6109 33.6097 37.0486C33.6418 37.0004 33.7061 36.9843 33.7543 37.0165C33.7864 37.0486 33.8024 37.0968 33.7864 37.145L32.8224 39.1372C32.7582 39.2818 32.6939 39.4585 32.7903 39.5388C32.8385 39.5709 32.9028 39.6031 32.967 39.6031C33.2883 39.6191 33.4329 39.4745 33.6579 39.2175L33.7221 39.1532C33.7864 39.089 33.8506 39.0247 33.9149 38.9604C34.1559 38.7355 34.3808 38.4624 34.5575 38.1893L34.5736 38.1411C34.6057 38.0929 34.67 38.0768 34.7182 38.0929C34.7664 38.125 34.7825 38.1732 34.7664 38.2214C34.7825 38.2214 34.7825 38.2375 34.7825 38.2535Z" fill="#222222"/>
<path d="M31.9228 37.8515C31.9067 37.8515 31.8907 37.8515 31.8746 37.8354C31.8264 37.8194 31.7943 37.7551 31.8103 37.6909C31.8425 37.6266 32.9189 35.6987 33.433 35.1846C33.4812 35.1364 33.5454 35.1364 33.5936 35.1846C33.6418 35.2328 33.6418 35.297 33.5936 35.3452C33.0956 35.8433 32.0513 37.7069 32.0031 37.7872C32.0192 37.8354 31.971 37.8676 31.9228 37.8515Z" fill="#222222"/>
<path d="M32.8708 38.6551C32.8065 38.6551 32.7583 38.6069 32.7583 38.5426C32.7583 38.5265 32.7583 38.5105 32.7744 38.4944C33.1439 37.7554 34.4292 35.8435 34.4934 35.7632C34.5255 35.715 34.5898 35.6989 34.6541 35.7311C34.7023 35.7632 34.7183 35.8275 34.6862 35.8917C34.6862 35.8917 34.6862 35.8917 34.6862 35.9078C34.6701 35.9239 33.3527 37.8678 32.9832 38.6069C32.9511 38.639 32.9029 38.6551 32.8708 38.6551Z" fill="#222222"/>
<path d="M33.9471 39.7149C33.8828 39.7149 33.8346 39.6668 33.8346 39.6025C33.8346 39.5864 33.8346 39.5864 33.8346 39.5704C34.1238 38.6707 34.6058 37.8352 35.2484 37.1284C35.2966 37.0962 35.3608 37.0962 35.409 37.1444C35.4412 37.1765 35.4412 37.2408 35.409 37.2729C35.393 37.289 34.429 38.3333 34.0434 39.6346C34.0434 39.6668 33.9953 39.6989 33.9471 39.7149Z" fill="#222222"/>
<path d="M43.7633 25.0151C43.6991 25.0151 43.6509 24.967 43.6509 24.9027C43.6509 24.8706 43.6669 24.8384 43.683 24.8224C43.6991 24.8063 45.3378 23.3925 46.7677 22.3964C46.8158 22.3643 46.8801 22.3643 46.9283 22.4125C46.9283 22.4125 46.9283 22.4125 46.9283 22.4285C46.9604 22.4767 46.9604 22.541 46.9122 22.5892C45.4824 23.5853 43.8597 24.9991 43.8437 24.9991C43.8115 25.0151 43.7955 25.0312 43.7633 25.0151Z" fill="#222222"/>
<path d="M44.8237 25.8826C44.7915 25.8826 44.7594 25.8665 44.7433 25.8505C44.7112 25.8023 44.7112 25.7219 44.7594 25.6898C44.7755 25.6737 46.8158 24.0029 48.0529 23.2478C48.1172 23.2157 48.1814 23.2478 48.1975 23.296C48.2136 23.3442 48.1975 23.3924 48.1654 23.4245C46.9283 24.1796 44.904 25.8344 44.8879 25.8505C44.8719 25.8665 44.8397 25.8826 44.8237 25.8826Z" fill="#222222"/>
<path d="M5.65513 33.0804C5.59086 33.0804 5.54267 33.0322 5.54267 32.968C5.49447 31.1043 5.5266 29.3531 5.54267 28.0679C5.55873 27.0557 5.5748 26.3167 5.54267 26.14C5.5266 26.0757 5.55873 26.0275 5.623 26.0115C5.68726 25.9954 5.73546 26.0436 5.75152 26.0918C5.79972 26.3006 5.78366 27.0075 5.76759 28.0679C5.73546 29.3531 5.71939 31.1043 5.76759 32.968C5.76759 33.0483 5.71939 33.0965 5.65513 33.0804Z" fill="#222222"/>
<path d="M12.3868 33.514C12.3707 33.514 12.3547 33.514 12.3386 33.514L9.75201 32.4216C9.70381 32.4055 9.68774 32.3573 9.68774 32.3252V27.1359C9.68774 27.0716 9.73594 27.0234 9.8002 27.0234H14.9734C15.0377 27.0234 15.0859 27.0716 15.0859 27.1359V32.3252C15.0859 32.3734 15.0537 32.4055 15.0216 32.4216L12.435 33.514C12.4189 33.514 12.4029 33.514 12.3868 33.514ZM9.91266 32.2288L12.3868 33.2731L14.8609 32.2288V27.2323H9.91266V32.2288Z" fill="#222222"/>
<path d="M35.136 17.3359L34.9754 21.5934C34.9754 21.5934 34.9593 24.2442 37.6423 23.4891C40.3253 22.734 41.2089 20.3242 41.2089 20.3242L40.8876 12.6929C40.8715 12.3716 40.743 9.22268 40.7912 6.41116C37.5298 6.36296 34.6219 6.08984 34.6219 6.08984C34.9432 6.41116 33.7865 6.45936 33.7865 6.45936C33.2563 6.45936 32.7422 6.53969 32.2442 6.70035C32.0514 8.58005 31.5533 10.6204 31.6015 12.484C31.6176 13.5926 31.714 14.7011 31.9389 15.8097C32.3727 17.8982 35.136 17.3359 35.136 17.3359Z" fill="white"/>
<path d="M36.7586 23.746C36.357 23.762 35.9714 23.6335 35.6501 23.4086C34.8628 22.8141 34.8628 21.6574 34.8628 21.6092L35.0235 17.4642C34.4612 17.5445 32.228 17.7213 31.8264 15.8416C31.6175 14.7491 31.5051 13.6245 31.489 12.4999C31.4569 11.2949 31.6657 9.99361 31.8585 8.75654C31.971 8.08177 32.0674 7.37487 32.1477 6.70011C32.1477 6.66798 32.1798 6.61978 32.212 6.61978C32.7261 6.45912 33.2563 6.37879 33.7864 6.37879C34.172 6.36273 34.5255 6.2824 34.5737 6.21813C34.5576 6.20207 34.5576 6.20207 34.5576 6.186C34.5255 6.15387 34.5255 6.10567 34.5415 6.07354C34.5576 6.04141 34.6058 6.00928 34.6379 6.00928C34.67 6.00928 37.578 6.2824 40.8072 6.33059C40.8393 6.33059 40.8554 6.34666 40.8875 6.36273C40.9036 6.37879 40.9197 6.41092 40.9197 6.44305C40.8715 8.88506 40.9679 11.6163 41.016 12.6766V12.7248L41.3213 20.3561C41.3213 20.3721 41.3213 20.3882 41.3213 20.3882C41.3052 20.4203 40.3895 22.8623 37.6904 23.6174C37.3691 23.6978 37.0639 23.7299 36.7586 23.746ZM35.136 17.2393C35.1681 17.2393 35.1842 17.2554 35.2002 17.2714C35.2163 17.2875 35.2323 17.3196 35.2323 17.3518L35.0717 21.6092C35.0717 21.6092 35.0717 22.7017 35.7786 23.2319C36.2124 23.5692 36.8229 23.6174 37.6101 23.4086C40.0842 22.7177 41 20.5489 41.0964 20.3239C40.7911 12.7087 40.7911 12.7087 40.7911 12.7087V12.6766C40.7429 11.6323 40.6465 8.96539 40.6947 6.53945C37.9475 6.49125 35.4412 6.2824 34.7825 6.2342C34.7825 6.25026 34.7825 6.26633 34.7664 6.2824C34.6861 6.50732 34.1238 6.57158 33.7864 6.58765C33.3044 6.58765 32.8064 6.65191 32.3405 6.7965C32.2762 7.4552 32.1638 8.12997 32.0674 8.78867C31.8746 10.0257 31.6818 11.311 31.6979 12.4999C31.7139 13.6084 31.8103 14.717 32.0192 15.8094C32.1798 16.6288 32.7421 17.1108 33.69 17.2714C34.172 17.3196 34.654 17.3196 35.136 17.2393Z" fill="#222222"/>
<path d="M35.6662 10.8613C35.6662 10.8613 34.2524 12.982 34.5897 13.3515C34.9271 13.721 35.875 13.4801 35.875 13.4801" fill="white"/>
<path d="M35.2324 13.6566C34.9593 13.6566 34.6701 13.6084 34.4934 13.4156C34.1239 13.014 35.2163 11.311 35.5698 10.7969C35.6019 10.7487 35.6662 10.7326 35.7304 10.7648C35.7786 10.7969 35.7947 10.8612 35.7626 10.9254C35.7626 10.9254 35.7626 10.9254 35.7626 10.9415C35.1039 11.9215 34.5094 13.1104 34.6701 13.2871C34.9111 13.5442 35.6019 13.4478 35.8429 13.3835C35.9072 13.3674 35.9714 13.3996 35.9875 13.4638C36.0036 13.5281 35.9714 13.5763 35.9072 13.5923C35.6822 13.6245 35.4573 13.6566 35.2324 13.6566Z" fill="#222222"/>
<path d="M34.3648 9.06201L34.638 8.13019L35.136 9.07808L37.9154 9.36726L38.4456 8.14626L38.6544 9.64038L40.0682 9.51185C40.0682 9.51185 38.6865 16.5166 39.5541 20.533L45.4181 20.7419V19.6655L46.125 20.7258C46.125 20.7258 47.7959 21.1917 49.5631 19.4084C49.5631 19.4084 45.8198 11.8253 45.3217 8.5961C44.8237 5.36687 44.1168 2.69994 40.0361 1.94484C35.9554 1.18975 33.2884 2.16977 31.6176 4.29046C29.9467 6.41115 30.493 8.90135 30.493 8.90135C30.493 8.90135 33.5455 9.12627 34.3648 9.06201Z" fill="white"/>
<path d="M46.6551 20.9021C46.4623 20.9021 46.2696 20.886 46.0768 20.8378C46.0446 20.8378 46.0286 20.8057 46.0125 20.7896L45.5145 20.0345V20.7254C45.5145 20.7575 45.4984 20.7896 45.4823 20.8057C45.4663 20.8217 45.4341 20.8378 45.402 20.8378L39.538 20.629C39.4898 20.629 39.4416 20.5968 39.4255 20.5326C38.6383 16.8535 39.7308 10.636 39.9075 9.60779L38.6383 9.72026C38.574 9.72026 38.5258 9.68812 38.5098 9.62386L38.3652 8.53138L37.9956 9.38287C37.9796 9.43107 37.9314 9.44713 37.8832 9.44713L35.1038 9.15795C35.0717 9.15795 35.0395 9.12582 35.0235 9.09369L34.654 8.38679L34.4451 9.06156C34.429 9.10975 34.3969 9.14188 34.3487 9.14188C33.5454 9.22221 30.5732 8.99729 30.4447 8.99729C30.3965 8.99729 30.3483 8.96516 30.3483 8.9009C30.3483 8.86877 29.8021 6.33036 31.489 4.19361C33.2884 1.89619 36.1641 1.0929 40.0039 1.81586C44.1167 2.58702 44.8718 5.33428 45.3859 8.57958C45.884 11.7445 49.5791 19.2794 49.6112 19.3598C49.6273 19.408 49.6273 19.4561 49.5952 19.4883C48.4384 20.6932 47.3138 20.9021 46.6551 20.9021ZM46.1732 20.629C46.4302 20.6772 47.8761 20.886 49.4024 19.3919C49.0168 18.6047 45.659 11.6642 45.1931 8.62778C44.679 5.35035 43.9721 2.79588 39.9878 2.05685C36.1802 1.34996 33.4651 2.10505 31.6818 4.35427C30.2359 6.18577 30.4929 8.35466 30.5732 8.78844C31.0552 8.82057 33.4651 8.98123 34.2684 8.93303L34.5254 8.08154C34.5415 8.03334 34.5736 8.00121 34.6218 8.00121C34.67 8.00121 34.7182 8.01728 34.7343 8.06547L35.2163 8.96516L37.8511 9.23828L38.3491 8.08154C38.3812 8.01728 38.4455 8.00121 38.4937 8.01728C38.5258 8.03334 38.558 8.06547 38.558 8.09761L38.7507 9.47927L40.0521 9.36681C40.0842 9.36681 40.1163 9.38287 40.1485 9.39894C40.1645 9.43107 40.1806 9.4632 40.1806 9.49533C40.1645 9.5596 38.8311 16.4197 39.6504 20.388L45.3056 20.5968V19.665C45.3056 19.6168 45.3377 19.5686 45.3859 19.5525C45.4341 19.5365 45.4823 19.5525 45.5145 19.6007L46.1732 20.629Z" fill="#222222"/>
<path d="M33.8025 14.8773C33.8025 14.8773 36.2606 16.9016 37.7547 14.0098L33.8025 14.8773Z" fill="white"/>
<path d="M16.339 12.9018C16.339 12.9018 18.1705 15.1671 20.1627 12.5645L16.339 12.9018Z" fill="white"/>
<path d="M35.136 17.3353C35.136 17.3353 37.3049 16.8694 38.1403 16.1143C38.1403 16.1143 37.337 19.231 35.0074 20.5966L35.136 17.3353Z" fill="#222222"/>
<path d="M35.0075 20.7257C34.9914 20.7257 34.9753 20.7257 34.9432 20.7097C34.9111 20.6936 34.879 20.6454 34.895 20.6133L35.0235 17.3519C35.0235 17.3037 35.0557 17.2555 35.1039 17.2395C35.1199 17.2395 37.2567 16.7735 38.06 16.0506C38.1082 16.0024 38.1724 16.0185 38.2206 16.0667C38.2367 16.0988 38.2528 16.1309 38.2528 16.163C38.2206 16.2916 37.4174 19.328 35.0717 20.7097C35.0396 20.7097 35.0235 20.7257 35.0075 20.7257ZM35.2324 17.4322L35.1199 20.4044C36.8229 19.2959 37.6423 17.2395 37.9154 16.4362C37.0639 16.9824 35.6019 17.3519 35.2324 17.4322Z" fill="#222222"/>
<path d="M21.0784 26.8951C21.0784 26.8951 19.8574 34.928 18.9899 36.7274L26.1874 36.4703L25.3037 25.5938L21.0784 26.8951Z" fill="white"/>
<path d="M18.9898 36.8398C18.9577 36.8398 18.9095 36.8237 18.8934 36.7916C18.8773 36.7595 18.8773 36.7113 18.8934 36.6791C19.761 34.9119 20.9659 26.9593 20.982 26.879C20.982 26.8308 21.0141 26.7987 21.0623 26.7826L25.2876 25.4813C25.3197 25.4652 25.3519 25.4813 25.384 25.4973C25.4161 25.5134 25.4322 25.5455 25.4322 25.5777L26.3158 36.4542C26.3158 36.4864 26.3158 36.5185 26.2837 36.5346C26.2676 36.5506 26.2355 36.5667 26.2034 36.5667L19.0059 36.8237L18.9898 36.8398ZM21.1747 26.9754C21.0462 27.7947 19.9859 34.6227 19.1665 36.5988L26.0588 36.3578L25.1912 25.7383L21.1747 26.9754Z" fill="#222222"/>
<path d="M24.1469 35.876L24.0344 38.5751C24.0344 38.5751 24.404 39.3623 26.621 38.7518C28.8381 38.1252 28.8221 37.097 28.8221 37.097L28.9024 32.0684C28.8863 31.7953 28.7739 29.2087 28.8221 26.8952C26.1391 26.847 23.7292 26.6221 23.7292 26.6221C23.9862 26.8791 23.0384 26.9273 23.0384 26.9273C22.6046 26.9273 22.1708 26.9916 21.7692 27.1201C21.6085 28.6624 20.8373 32.952 21.0141 33.8517C21.3836 35.5386 24.1469 35.876 24.1469 35.876Z" fill="white"/>
<path d="M25.1591 39.0728C24.1791 39.0728 23.9542 38.639 23.9381 38.6068C23.9381 38.5908 23.9221 38.5747 23.9221 38.5587L24.0185 35.956C23.5204 35.8757 21.223 35.4579 20.9017 33.8514C20.7732 33.2248 21.0784 31.1041 21.3676 29.2244C21.4961 28.3729 21.6086 27.5857 21.6568 27.0876C21.6568 27.0555 21.6889 27.0073 21.721 27.0073C22.1388 26.8788 22.5886 26.7985 23.0224 26.8145C23.2312 26.8145 23.4562 26.7824 23.6489 26.686C23.6168 26.6539 23.6168 26.6057 23.6329 26.5735C23.6489 26.5414 23.6971 26.5093 23.7293 26.5093C23.7453 26.5093 26.1552 26.7342 28.8061 26.7824C28.8543 26.7824 28.9025 26.8306 28.9025 26.8788C28.8703 28.887 28.9346 31.1362 28.9828 32.0038V32.052C28.9828 32.052 28.9828 32.052 28.9025 37.0967C28.9025 37.1449 28.8864 38.2052 26.6372 38.8478C26.1713 38.9764 25.6732 39.0567 25.1591 39.0728ZM24.147 38.5265C24.2273 38.6229 24.7093 39.1531 26.589 38.6229C28.6775 38.0445 28.7097 37.0806 28.7097 37.0806C28.7097 37.0806 28.79 32.0841 28.79 32.052V32.0199C28.7579 31.1523 28.6775 28.9673 28.7097 26.9752C26.4765 26.9431 24.4362 26.7663 23.8739 26.7181C23.8739 26.7342 23.8739 26.7342 23.8739 26.7503C23.8096 26.927 23.3919 26.9913 23.0545 27.0073C22.6529 27.0073 22.2512 27.0555 21.8656 27.168C21.8174 27.666 21.705 28.4372 21.5764 29.2565C21.3194 31.0238 20.9981 33.2087 21.1105 33.8032C21.4479 35.4258 24.1309 35.7471 24.147 35.7632C24.1952 35.7632 24.2434 35.8114 24.2434 35.8757L24.147 38.5265Z" fill="#222222"/>
<path d="M24.3237 31.2324C24.0345 31.7465 23.7453 32.357 23.906 32.5177C24.1791 32.8229 24.9663 32.6141 24.9663 32.6141" fill="white"/>
<path d="M24.4362 32.7907C24.2113 32.8068 23.9863 32.7425 23.8096 32.5819C23.6971 32.4533 23.6329 32.1802 24.2113 31.1681C24.2434 31.1199 24.3076 31.0877 24.3558 31.1199C24.404 31.152 24.4362 31.2163 24.404 31.2805C23.8417 32.2766 23.9703 32.4373 23.9703 32.4373C24.1631 32.6461 24.7254 32.5497 24.9181 32.5015C24.9824 32.4855 25.0467 32.5176 25.0627 32.5658C25.0788 32.6301 25.0467 32.6943 24.9985 32.7104H24.9824C24.8057 32.7747 24.629 32.7907 24.4362 32.7907Z" fill="#222222"/>
<path d="M27.6172 37.2732V37.0804H35.7947C35.0718 35.5541 32.8868 30.879 32.5334 28.6619C32.1157 26.011 31.5373 23.794 28.1795 23.1674C24.8218 22.5408 22.6207 23.3602 21.2391 25.0953C19.8574 26.8304 20.3073 28.9029 20.3073 28.9029C20.3073 28.9029 22.8457 29.0957 23.5044 29.0314L23.7293 28.2603L24.147 29.0475L26.4444 29.2885L26.8782 28.2763L27.0388 29.4973L28.1956 29.4009C28.2117 29.3849 27.312 33.9315 27.6172 37.2732Z" fill="white"/>
<path d="M27.6171 37.3859C27.5529 37.3859 27.5047 37.3377 27.5047 37.2895C27.2476 34.3012 27.9224 30.333 28.083 29.5297L27.0709 29.61C27.0066 29.61 26.9584 29.5779 26.9424 29.5136L26.8299 28.6942L26.5568 29.3369C26.5407 29.3851 26.4925 29.4172 26.4443 29.4011L24.1469 29.1601C24.1148 29.1601 24.0827 29.128 24.0666 29.0959L23.7774 28.5496L23.6328 29.0638C23.6167 29.1119 23.5846 29.1441 23.5364 29.1441C22.8617 29.2083 20.4196 29.0316 20.3233 29.0156C20.2751 29.0156 20.2269 28.9834 20.2269 28.9352C20.2108 28.8549 19.777 26.7985 21.1747 25.0312C22.6689 23.1355 25.0466 22.4607 28.2276 23.0551C31.6336 23.6817 32.2602 25.963 32.6779 28.646C33.0153 30.8471 35.2484 35.6186 35.9232 37.0324C35.9553 37.0806 35.9232 37.1609 35.875 37.177C35.8589 37.177 35.8428 37.1931 35.8268 37.1931H27.7617V37.2734C27.7296 37.3377 27.6814 37.3859 27.6171 37.3859ZM27.6975 36.9681H35.6019C34.8468 35.3776 32.7421 30.8471 32.4048 28.6782C31.987 25.9791 31.4087 23.8745 28.1312 23.2801C24.9984 22.7017 22.7653 23.3122 21.3033 25.1758C20.1305 26.6699 20.3233 28.4051 20.3875 28.8067C20.8213 28.8388 22.7492 28.9674 23.4079 28.9352L23.6167 28.2444C23.6328 28.1962 23.6649 28.1641 23.7131 28.1641C23.7613 28.1641 23.8095 28.1801 23.8256 28.2283L24.2112 28.9513L26.364 29.1762L26.7657 28.2444C26.7817 28.1801 26.862 28.1641 26.9102 28.1801C26.9424 28.1962 26.9745 28.2283 26.9745 28.2765L27.1191 29.4011L28.1794 29.3047C28.2116 29.3047 28.2437 29.3208 28.2758 29.3369C28.2919 29.369 28.308 29.4011 28.308 29.4333C28.324 29.4654 27.4886 33.7228 27.6975 36.9681Z" fill="#222222"/>
<path d="M24.147 35.8757C24.147 35.8757 25.9464 35.8918 26.6211 35.2812C26.6211 35.2812 25.9624 36.1488 24.0345 37.2895L24.147 35.8757Z" fill="#222222"/>
<path d="M24.0345 37.3857C24.0184 37.3857 23.9863 37.3857 23.9702 37.3696C23.9381 37.3536 23.922 37.3054 23.922 37.2732L24.0345 35.8594C24.0345 35.7952 24.0827 35.7631 24.1309 35.747C24.1309 35.747 24.1309 35.747 24.1469 35.747C24.163 35.747 25.9142 35.7631 26.5407 35.1847C26.5889 35.1526 26.6693 35.1686 26.7014 35.2168C26.7335 35.2489 26.7335 35.2971 26.7014 35.3453C26.6693 35.3775 25.9945 36.245 24.0827 37.3696C24.0827 37.3857 24.0666 37.3857 24.0345 37.3857ZM24.2594 35.9719L24.1791 37.0644C24.8378 36.6788 25.4643 36.2129 26.0427 35.7149C25.4483 35.8916 24.8538 35.9719 24.2594 35.9719Z" fill="#222222"/>
<path d="M31.5051 45.531C31.4408 45.531 31.3926 45.4828 31.3926 45.4346L30.8785 40.631C30.8785 40.5667 30.9107 40.5185 30.9749 40.5024C31.0392 40.5024 31.0874 40.5346 31.1035 40.5988L31.6176 45.4025C31.6176 45.4668 31.5694 45.531 31.5051 45.531Z" fill="#222222"/>
<path d="M19.4557 45.2262H19.4397C19.3754 45.2102 19.3433 45.162 19.3433 45.0977L20.3554 39.9245C20.3715 39.8603 20.4197 39.8281 20.4839 39.8281C20.5482 39.8442 20.5803 39.8924 20.5803 39.9566L19.5682 45.1299C19.5682 45.1941 19.52 45.2262 19.4557 45.2262Z" fill="#222222"/>
<path d="M42.0443 36.2451H42.0122L35.3288 34.4297C35.2645 34.4136 35.2324 34.3494 35.2485 34.2851C35.2645 34.2208 35.3288 34.1887 35.3931 34.2048L42.0765 36.0363C42.1407 36.0523 42.1729 36.1166 42.1568 36.1809C42.1407 36.213 42.0925 36.2612 42.0443 36.2451Z" fill="#222222"/>
<path d="M37.578 40.181C37.5458 40.181 37.5298 40.165 37.4976 40.1489L36.5337 39.3456C36.4855 39.3135 36.4855 39.2331 36.5176 39.1849C36.5658 39.1367 36.6301 39.1367 36.6783 39.1689L37.6422 39.9722C37.6904 40.0204 37.6904 40.0846 37.6583 40.1328C37.6422 40.165 37.6101 40.181 37.578 40.181Z" fill="#222222"/>
<path d="M41.9961 35.8757H41.9801C41.9158 35.8596 41.8837 35.7954 41.8997 35.7472L43.667 27.6982C43.683 27.6339 43.7473 27.6018 43.7955 27.6179C43.8437 27.6339 43.8919 27.6982 43.8758 27.7464L42.1086 35.7793C42.0925 35.8275 42.0604 35.8757 41.9961 35.8757Z" fill="#222222"/>
<path d="M12.9169 24.6617C12.7723 24.6456 12.6438 24.5653 12.5635 24.4528C11.9209 23.7138 10.6998 19.9062 10.9408 19.0386C11.1818 18.1711 12.1779 17.5606 12.2261 17.5284C12.2743 17.4963 12.3546 17.4963 12.3868 17.5606C12.4189 17.6248 12.4189 17.6891 12.3546 17.7212C12.3546 17.7212 12.3386 17.7212 12.3386 17.7373C12.3225 17.7373 11.3746 18.3478 11.1497 19.1189C10.9569 19.7937 12.0012 23.4889 12.7241 24.3243C12.8366 24.4528 12.9009 24.4689 12.9169 24.4528C13.4792 24.3725 16.1301 22.7659 17.094 22.1554C17.1422 22.1233 17.2226 22.1393 17.2547 22.1875C17.2868 22.2357 17.2708 22.3 17.2226 22.3482C17.2226 22.3482 17.2226 22.3482 17.2065 22.3482C17.0619 22.4446 13.656 24.5813 12.933 24.6777L12.9169 24.6617Z" fill="#222222"/>
<path d="M20.7249 23.8744C19.8734 23.8744 18.3793 22.7177 18.1865 22.5731C18.1383 22.541 18.1223 22.4606 18.1705 22.4125C18.2026 22.3643 18.2829 22.3482 18.3311 22.3964C19.1183 23.0069 20.5 23.8744 20.9338 23.6013C21.4479 23.2639 22.8938 20.5809 23.0545 19.2635C23.1027 18.9262 23.0384 18.7655 22.9902 18.7173C22.3958 18.0586 21.4961 17.2714 21.48 17.2714C21.4318 17.2393 21.4318 17.1589 21.464 17.1107C21.5122 17.0625 21.5764 17.0625 21.6246 17.0947C21.6407 17.1107 22.5404 17.898 23.1509 18.5567C23.2794 18.7012 23.3276 18.9422 23.2794 19.2796C23.1187 20.5809 21.6567 23.3764 21.0462 23.778C20.9498 23.8423 20.8374 23.8744 20.7249 23.8744Z" fill="#222222"/>
<path d="M16.0016 42.0448C15.4393 41.5468 14.877 41.0648 14.3147 40.5667L14.4111 39.3457L14.4432 38.8638L17.1905 38.9441H17.3833H17.4797L17.4957 39.2012L18.4115 43.555" fill="white"/>
<path d="M18.4276 43.6677C18.3794 43.6677 18.3312 43.6355 18.3312 43.5873L17.4154 39.2335L17.3993 39.0568L14.5557 38.9764L14.4272 40.5348L14.7485 40.8079C15.1983 41.1935 15.6321 41.5791 16.0819 41.9647C16.1141 42.0129 16.1141 42.0771 16.0819 42.1093C16.0498 42.1414 15.9856 42.1414 15.9534 42.1093C15.5196 41.7237 15.0698 41.3381 14.62 40.9525L14.2665 40.6473C14.2344 40.6312 14.2344 40.5991 14.2344 40.567L14.379 38.864C14.379 38.8158 14.4272 38.7676 14.4914 38.7676L17.5279 38.8479C17.5761 38.8479 17.6243 38.8961 17.6243 38.9443L17.6403 39.2014L18.5561 43.5391C18.5721 43.5873 18.54 43.6516 18.4758 43.6677H18.4276Z" fill="#222222"/>
<path d="M17.8491 35.924C17.817 35.7151 17.7045 35.5223 17.5599 35.3778C17.4957 35.3135 17.3832 35.2974 17.3029 35.3456C17.2386 35.3938 17.1904 35.4742 17.1744 35.5705C17.094 35.9883 17.0458 36.422 17.0298 36.8558C16.9816 36.5024 16.9816 36.1489 17.0298 35.8115C17.078 35.426 17.0137 34.9761 17.0137 34.5905C17.0137 34.3977 17.0137 34.0925 16.837 33.9479C16.4514 33.6587 16.3389 34.6869 16.2907 34.8797C16.2104 35.3617 16.1783 35.8597 16.2265 36.3578C16.1943 35.9561 16.1622 35.5705 16.1301 35.1689C16.0979 34.8315 16.1461 34.5263 16.0658 34.1889C16.0497 34.0764 15.9855 33.98 15.8891 33.9318C15.7927 33.8997 15.6802 33.9479 15.632 34.0282C15.5838 34.1086 15.5356 34.205 15.5356 34.3174C15.4714 34.6548 15.4553 34.9922 15.4392 35.3296C15.4392 35.6991 15.4553 36.0686 15.5196 36.422C15.4553 35.683 15.3589 34.96 15.3107 34.221C15.3107 34.1246 15.2946 34.0443 15.2304 33.98C15.1179 33.8836 14.9412 33.8997 14.8287 34.0122C14.7323 34.1407 14.6841 34.2853 14.6841 34.4299C14.6359 35.0564 14.6359 35.6991 14.6841 36.3256L14.5878 35.2332C14.5717 35.0886 14.5717 34.7833 14.411 34.7191C14.2504 34.6869 14.0897 34.7512 13.9933 34.8797C13.913 35.0243 13.8809 35.185 13.8969 35.3456C13.8487 36.7273 13.8005 38.1732 14.4432 39.3942C14.6841 39.8441 15.0376 40.2778 15.5196 40.4224C17.5599 41.049 17.9937 37.9001 17.9294 36.5666C17.9134 36.3417 17.8973 36.1329 17.8491 35.924Z" fill="white"/>
<path d="M16.0177 40.599C15.841 40.599 15.6482 40.5669 15.4875 40.5187C14.9252 40.342 14.5557 39.8439 14.3468 39.4423C13.6721 38.157 13.7363 36.5986 13.7845 35.3455C13.7685 35.1688 13.8167 34.992 13.897 34.8314C13.9934 34.6868 14.2504 34.5422 14.4432 34.6225C14.4914 34.6386 14.5236 34.6707 14.5557 34.7029C14.5557 34.6065 14.5718 34.5101 14.5878 34.4137C14.5878 34.237 14.6521 34.0763 14.7646 33.9317C14.8449 33.8514 14.9573 33.7871 15.0698 33.7871C15.1662 33.7871 15.2465 33.8192 15.3108 33.8835C15.3751 33.9799 15.4072 34.0763 15.4072 34.1888L15.4233 34.4137C15.4233 34.3655 15.4393 34.3173 15.4393 34.2691C15.4554 34.1566 15.4875 34.0442 15.5518 33.9478C15.6321 33.8192 15.7928 33.771 15.9374 33.8192C16.0659 33.8835 16.1623 34.012 16.1783 34.1566C16.2105 34.3173 16.2265 34.4779 16.2426 34.6386C16.3069 34.237 16.4193 33.8835 16.6282 33.8032C16.7246 33.771 16.837 33.7871 16.9174 33.8514C17.1262 34.012 17.1262 34.3333 17.1262 34.5422V34.5743C17.1262 34.7029 17.1423 34.8314 17.1423 34.9599C17.1423 35.0884 17.1584 35.2009 17.1584 35.3294C17.1905 35.2973 17.2226 35.2652 17.2548 35.2491C17.3833 35.1848 17.5279 35.2009 17.6243 35.2973C17.801 35.458 17.9135 35.6668 17.9456 35.8917C17.9938 36.1006 18.0099 36.3255 18.0259 36.5504C18.0741 37.659 17.8171 39.5708 16.8852 40.2938C16.6282 40.4866 16.3229 40.599 16.0177 40.599ZM14.3147 34.7832C14.2183 34.7993 14.1219 34.8475 14.0737 34.9278C14.0095 35.0563 13.9773 35.2009 13.9934 35.3455C13.9452 36.6468 13.8809 38.1088 14.5396 39.3459C14.7324 39.6993 15.0537 40.1652 15.5678 40.3259C15.9695 40.4866 16.4354 40.4062 16.7728 40.1492C17.6403 39.4744 17.8813 37.5947 17.8331 36.5826C17.8331 36.3737 17.801 36.1649 17.7689 35.9721C17.7367 35.7953 17.6403 35.6186 17.5118 35.4901C17.4797 35.458 17.4154 35.4419 17.3672 35.458C17.319 35.474 17.303 35.5544 17.2869 35.6186C17.2066 36.0363 17.1584 36.4701 17.1423 36.8878C17.1423 36.936 17.0941 36.9842 17.0459 36.9842C16.9977 36.9842 16.9495 36.9521 16.9334 36.9039C16.8852 36.5504 16.8852 36.1809 16.9334 35.8275C16.9656 35.5544 16.9656 35.2812 16.9334 35.0081C16.9174 34.8635 16.9174 34.735 16.9174 34.6065V34.5743C16.9174 34.3976 16.9174 34.1406 16.7889 34.0442C16.7407 33.996 16.7085 34.012 16.6925 34.012C16.6121 34.0442 16.5157 34.2048 16.4193 34.8475L16.4033 34.9278C16.3229 35.3776 16.3069 35.8435 16.339 36.2934V36.3737C16.339 36.4219 16.3069 36.4701 16.2426 36.4862C16.1944 36.4862 16.1462 36.438 16.1462 36.3898C16.1462 36.3576 16.1462 36.3255 16.1462 36.3094L16.0659 35.2009C16.0498 35.0724 16.0498 34.9599 16.0498 34.8475C16.0659 34.6386 16.0338 34.4458 16.0016 34.237C15.9695 34.1245 15.9374 34.0602 15.8892 34.0442C15.8249 34.0281 15.7767 34.0602 15.7446 34.1084C15.6964 34.1888 15.6803 34.2691 15.6642 34.3494C15.616 34.6547 15.5839 34.992 15.5678 35.3134V35.3616C15.5678 35.4419 15.5678 35.5383 15.5678 35.6186C15.6 35.8917 15.616 36.1649 15.6482 36.438C15.6482 36.5022 15.616 36.5504 15.5518 36.5504C15.4875 36.5504 15.4393 36.5183 15.4393 36.454C15.4233 36.3576 15.4233 36.2452 15.4072 36.1488C15.3911 35.9881 15.3751 35.8114 15.359 35.6507L15.3429 35.474C15.2947 35.0724 15.2626 34.6707 15.2305 34.2691C15.2305 34.2048 15.2144 34.1406 15.1823 34.0763C15.1662 34.0602 15.1341 34.0442 15.1019 34.0442C15.0377 34.0442 14.9895 34.0763 14.9413 34.1084C14.861 34.2209 14.8288 34.3494 14.8128 34.4779C14.7646 35.1045 14.7646 35.7311 14.8128 36.3576C14.8128 36.4058 14.7806 36.454 14.7164 36.4701C14.6682 36.4701 14.62 36.438 14.6039 36.3737L14.5075 35.233C14.5075 35.1045 14.4914 34.8957 14.395 34.8475C14.3629 34.7832 14.3468 34.7832 14.3147 34.7832Z" fill="#222222"/>
<path d="M17.0298 36.8554C17.0298 36.8554 16.0819 36.3895 15.6803 37.8997L17.0298 36.8554Z" fill="white"/>
<path d="M15.6803 38.0125H15.6482C15.6 37.9964 15.5678 37.9482 15.5839 37.884C15.7445 37.3056 16.0016 36.92 16.339 36.7754C16.58 36.679 16.837 36.679 17.078 36.7754C17.1262 36.8076 17.1423 36.8557 17.1262 36.92C17.0941 36.9682 17.0459 36.9843 16.9816 36.9682C16.8049 36.8879 16.596 36.8879 16.4193 36.9682C16.1301 37.0967 15.9213 37.4341 15.7767 37.9482C15.7767 37.9804 15.7285 38.0125 15.6803 38.0125Z" fill="#222222"/>
<path d="M25.625 46.9773C23.8899 46.9773 22.4761 45.6599 22.4761 44.0372C22.4761 42.4146 23.8899 41.0972 25.625 41.0972C27.3601 41.0972 28.7739 42.4146 28.7739 44.0372C28.7739 45.6599 27.3601 46.9773 25.625 46.9773ZM25.625 41.3221C24.0184 41.3221 22.701 42.5431 22.701 44.0372C22.701 45.5313 24.0184 46.7523 25.625 46.7523C27.2316 46.7523 28.549 45.5313 28.549 44.0372C28.549 42.5431 27.2316 41.3221 25.625 41.3221Z" fill="#D1D3D4"/>
</svg>
