<svg width="40" height="36" viewBox="0 0 40 36" fill="none" xmlns="http://www.w3.org/2000/svg">
<path d="M38.3308 33.3449H37.9141V29.5949C37.9132 28.8216 37.6056 28.0803 37.0588 27.5335C36.5121 26.9867 35.7707 26.6791 34.9974 26.6782H34.5808V17.5116H34.9974C35.7707 17.5107 36.5121 17.2031 37.0588 16.6563C37.6056 16.1095 37.9132 15.3682 37.9141 14.5949V9.05658C37.8959 8.47818 37.7139 7.9168 37.3894 7.43769C37.0649 6.95858 36.6111 6.58137 36.0808 6.34987L21.0808 0.349871C20.3815 0.0923608 19.6134 0.0923608 18.9141 0.349871L3.91406 6.34987C3.38359 6.5812 2.92969 6.95837 2.60515 7.43752C2.2806 7.91666 2.09875 8.47808 2.08073 9.05658V14.5949C2.08161 15.3682 2.38919 16.1095 2.93598 16.6563C3.48277 17.2031 4.22412 17.5107 4.9974 17.5116H5.41406V26.6782H4.9974C4.22412 26.6791 3.48277 26.9867 2.93598 27.5335C2.38919 28.0803 2.08161 28.8216 2.08073 29.5949V33.3449H1.66406C1.33254 33.3449 1.0146 33.4766 0.78018 33.711C0.545759 33.9454 0.414062 34.2634 0.414062 34.5949C0.414062 34.9264 0.545759 35.2443 0.78018 35.4788C1.0146 35.7132 1.33254 35.8449 1.66406 35.8449H38.3308C38.6623 35.8449 38.9802 35.7132 39.2146 35.4788C39.4491 35.2443 39.5808 34.9264 39.5808 34.5949C39.5808 34.2634 39.4491 33.9454 39.2146 33.711C38.9802 33.4766 38.6623 33.3449 38.3308 33.3449ZM4.9974 15.0116C4.88729 15.0103 4.78206 14.9659 4.7042 14.8881C4.62634 14.8102 4.58203 14.705 4.58073 14.5949V9.05658C4.5965 8.97748 4.62773 8.90238 4.67264 8.83538C4.71755 8.76848 4.77524 8.71108 4.8424 8.66658L19.8308 2.66653C19.8856 2.65526 19.9415 2.65023 19.9974 2.65153C20.0534 2.65004 20.1093 2.65507 20.1641 2.66653L35.1641 8.66658C35.298 8.75648 35.3913 8.89528 35.4241 9.05318V14.5949C35.4228 14.705 35.3785 14.8102 35.3006 14.8881C35.2228 14.9659 35.1175 15.0103 35.0074 15.0116H4.9974ZM32.0808 17.5116V26.6782H27.9141V17.5116H32.0808ZM25.4141 17.5116V26.6782H21.2474V17.5116H25.4141ZM18.7474 17.5116V26.6782H14.5808V17.5116H18.7474ZM12.0808 17.5116V26.6782H7.91406V17.5116H12.0808ZM35.4141 33.3449H4.58073V29.5949C4.58073 29.4844 4.62463 29.3784 4.70277 29.3003C4.78091 29.2221 4.88689 29.1782 4.9974 29.1782H34.9974C35.1079 29.1782 35.2139 29.2221 35.2921 29.3003C35.3702 29.3784 35.4141 29.4844 35.4141 29.5949V33.3449ZM19.9974 5.84487C19.2557 5.84487 18.5307 6.0648 17.914 6.47686C17.2974 6.88891 16.8167 7.47458 16.5329 8.15978C16.2491 8.84498 16.1748 9.59898 16.3195 10.3265C16.4642 11.0539 16.8213 11.7221 17.3458 12.2465C17.8702 12.771 18.5384 13.1281 19.2658 13.2728C19.9933 13.4175 20.7473 13.3433 21.4325 13.0594C22.1177 12.7756 22.7034 12.295 23.1154 11.6783C23.5275 11.0616 23.7474 10.3366 23.7474 9.59488C23.7461 8.60068 23.3506 7.64765 22.6476 6.94468C21.9446 6.2417 20.9916 5.84619 19.9974 5.84487ZM19.9974 10.8449C19.7502 10.8449 19.5085 10.7716 19.303 10.6342C19.0974 10.4969 18.9372 10.3016 18.8426 10.0732C18.748 9.84478 18.7232 9.59348 18.7714 9.35098C18.8197 9.10848 18.9387 8.88578 19.1135 8.71098C19.2884 8.53618 19.5111 8.41708 19.7536 8.36888C19.996 8.32068 20.2474 8.34538 20.4758 8.43998C20.7042 8.53458 20.8994 8.69488 21.0368 8.90038C21.1741 9.10598 21.2474 9.34768 21.2474 9.59488C21.2465 9.92608 21.1146 10.2436 20.8803 10.4778C20.6461 10.712 20.3287 10.844 19.9974 10.8449Z" fill="#43C46E"/>
</svg>
