<svg width="40" height="40" viewBox="0 0 40 40" fill="none" xmlns="http://www.w3.org/2000/svg">
<path d="M38.8281 37.5784H37.1305L33.9388 31.195C33.7403 30.798 33.3345 30.5472 32.8906 30.5472H25.2841L19.8119 14.2155L32.0367 10.1289C32.7366 9.89495 33.05 9.0776 32.6821 8.43518C29.5294 2.92909 23.0448 0.0522932 15.7352 2.02338L15.3527 0.878856C15.1475 0.265106 14.4837 -0.0663785 13.8697 0.138934C13.2559 0.344168 12.9246 1.00807 13.1298 1.6219L13.5124 2.76643C6.49539 5.58385 3.03492 11.7769 3.82836 18.0807C3.92109 18.8172 4.66445 19.2788 5.36266 19.0458L17.5891 14.9587L22.8123 30.5472H11.3936L1.93477 23.7369C1.40945 23.3587 0.677109 23.4779 0.298984 24.0031C-0.0792188 24.5283 0.0400781 25.2607 0.565234 25.6389L9.63859 32.1717L7.89641 37.5785H1.17188C0.524687 37.5785 0 38.1032 0 38.7504C0 39.3976 0.524687 39.9223 1.17188 39.9223H38.8281C39.4753 39.9223 40 39.3976 40 38.7504C40 38.1032 39.4753 37.5784 38.8281 37.5784ZM15.3553 4.58479C15.3551 4.58487 15.3555 4.58471 15.3553 4.58479C15.3631 4.58589 16.7474 3.93995 19.2116 6.33432C20.485 7.57159 21.6102 9.21924 22.3487 10.8962L13.5643 13.8328C12.6348 9.86987 13.4205 5.23237 15.3553 4.58479ZM29.8552 8.38698L24.5795 10.1505C23.5683 7.77534 21.8255 5.31956 19.8177 3.75479C23.7927 3.61729 27.4656 5.1712 29.8552 8.38698ZM11.292 6.60448C10.6238 9.0801 10.7191 12.0904 11.3352 14.578L6.05781 16.3422C6.03383 12.4328 7.94828 8.94401 11.292 6.60448ZM32.1663 32.8909L34.5101 37.5784H27.6401L26.0695 32.8909H32.1663ZM11.8692 32.8909H23.5977L25.1683 37.5784H10.3588L11.8692 32.8909Z" fill="#43C46E"/>
</svg>
