<svg width="40" height="36" viewBox="0 0 40 36" fill="none" xmlns="http://www.w3.org/2000/svg">
<path d="M38.3308 32.5732H34.2158V27.4999C35.271 27.2309 36.2069 26.6188 36.8764 25.7599C37.5459 24.9009 37.9109 23.8439 37.9141 22.7549V18.9716C37.9141 17.6676 37.3961 16.417 36.474 15.495C35.552 14.5729 34.3014 14.0549 32.9974 14.0549C31.6934 14.0549 30.4429 14.5729 29.5208 15.495C28.5988 16.417 28.0808 17.6676 28.0808 18.9716V22.7482C28.084 23.8258 28.4417 24.8723 29.0986 25.7265C29.7555 26.5807 30.6752 27.1951 31.7158 27.4749V32.5732H25.0808V7.1982C25.0808 3.14153 22.8724 0.908203 18.8591 0.908203H8.4824C4.4574 0.908203 2.24073 3.14153 2.24073 7.1982V32.5732H1.66406C1.33254 32.5732 1.0146 32.7049 0.78018 32.9393C0.545759 33.1738 0.414062 33.4917 0.414062 33.8232C0.414062 34.1547 0.545759 34.4727 0.78018 34.7071C1.0146 34.9415 1.33254 35.0732 1.66406 35.0732H32.8691C32.9024 35.0732 32.9324 35.0916 32.9658 35.0916C32.9991 35.0916 33.0291 35.0749 33.0624 35.0732H38.3308C38.6623 35.0732 38.9802 34.9415 39.2146 34.7071C39.4491 34.4727 39.5808 34.1547 39.5808 33.8232C39.5808 33.4917 39.4491 33.1738 39.2146 32.9393C38.9802 32.7049 38.6623 32.5732 38.3308 32.5732ZM22.5808 32.5732H14.9974V27.5732C14.9974 27.2417 14.8657 26.9238 14.6313 26.6893C14.3969 26.4549 14.0789 26.3232 13.7474 26.3232C13.4159 26.3232 13.098 26.4549 12.8635 26.6893C12.6291 26.9238 12.4974 27.2417 12.4974 27.5732V32.5732H4.74573V7.1982C4.74573 4.54153 5.86573 3.40819 8.4874 3.40819H18.8641C21.4724 3.40819 22.5858 4.54153 22.5858 7.1982L22.5808 32.5732ZM32.9974 25.1666C32.3566 25.1661 31.7422 24.9114 31.2891 24.4582C30.836 24.0051 30.5812 23.3907 30.5808 22.7499V18.9716C30.5808 18.3306 30.8354 17.7159 31.2886 17.2627C31.7418 16.8095 32.3565 16.5549 32.9974 16.5549C33.6384 16.5549 34.2531 16.8095 34.7063 17.2627C35.1595 17.7159 35.4141 18.3306 35.4141 18.9716V22.7482C35.4141 23.3893 35.1595 24.0042 34.7064 24.4577C34.2532 24.9111 33.6385 25.1661 32.9974 25.1666ZM19.1641 10.9082C19.1641 11.2397 19.0324 11.5577 18.798 11.7921C18.5636 12.0265 18.2456 12.1582 17.9141 12.1582H9.66406C9.49189 12.1723 9.31867 12.1506 9.15532 12.0944C8.99198 12.0381 8.84206 11.9487 8.71502 11.8316C8.58799 11.7146 8.4866 11.5724 8.41724 11.4142C8.34789 11.256 8.31209 11.0851 8.31209 10.9124C8.31209 10.7396 8.34789 10.5688 8.41724 10.4106C8.4866 10.2523 8.58799 10.1102 8.71502 9.99317C8.84206 9.87607 8.99198 9.78657 9.15532 9.73037C9.31867 9.67417 9.49189 9.65247 9.66406 9.66657H17.9141C18.2442 9.66657 18.5609 9.79707 18.795 10.0297C19.0292 10.2623 19.1619 10.5782 19.1641 10.9082ZM19.1641 17.1566C19.1641 17.4881 19.0324 17.806 18.798 18.0404C18.5636 18.2749 18.2456 18.4066 17.9141 18.4066H9.66406C9.33254 18.4066 9.0146 18.2749 8.78018 18.0404C8.54576 17.806 8.41406 17.4881 8.41406 17.1566C8.41406 16.825 8.54576 16.5071 8.78018 16.2727C9.0146 16.0383 9.33254 15.9066 9.66406 15.9066H17.9141C18.2456 15.9066 18.5636 16.0383 18.798 16.2727C19.0324 16.5071 19.1641 16.825 19.1641 17.1566Z" fill="#43C46E"/>
</svg>
