<svg width="77" height="35" viewBox="0 0 77 35" fill="none" xmlns="http://www.w3.org/2000/svg">
<path d="M39.5939 20.1504C42.1086 20.1869 44.3665 20.6645 45.6505 21.3311L45.8947 21.4668C47.1552 22.2231 48.0702 22.6616 48.8077 23.3271C49.5371 23.9854 50.0919 24.8678 50.5988 26.5117V26.5127C51.2115 28.5756 51.5415 30.6984 51.5714 32.8418H26.1847L26.964 25.7871L26.8654 25.7764L26.965 25.7871V25.7754C26.965 25.7741 26.9656 25.7708 26.9659 25.7666C26.9667 25.7581 26.9681 25.7435 26.9718 25.7236C26.9793 25.6837 26.995 25.6209 27.0284 25.5361C27.0958 25.3657 27.2346 25.1053 27.5216 24.7646C28.0604 24.1252 29.1185 23.204 31.1915 22.0557L31.6193 21.8232C33.9637 20.5736 36.9144 20.1115 39.5939 20.1504Z" fill="white" stroke="#222222" stroke-width="0.2"/>
<path d="M35.8429 28.4632C36.4054 28.9214 38.9258 29.3797 39.5091 29.2339C41.0506 28.8381 42.6753 28.2965 43.6335 26.9425C44.1751 26.1926 44.4251 25.2553 44.6334 24.3387C44.8626 23.2764 45.05 22.1307 44.7584 21.0892C43.7169 17.548 38.2593 17.173 35.5305 18.6103C31.5935 20.6934 33.0933 26.1718 35.8429 28.4632Z" fill="#D1D3D4"/>
<path d="M39.1758 29.4005C38.2176 29.4005 36.2596 28.9839 35.7596 28.5672C33.9474 27.0466 32.7809 24.3178 33.0308 22.0889C33.1558 20.5475 34.0724 19.1935 35.4472 18.4853C37.3219 17.4854 40.1757 17.4021 42.2379 18.277C43.6127 18.8602 44.5293 19.8184 44.8834 21.0474C45.1959 22.1306 45.0084 23.2763 44.7793 24.3803C44.5918 25.2344 44.3418 26.2342 43.7586 27.0258C42.8003 28.3798 41.1756 28.9422 39.5508 29.3588C39.4258 29.4005 39.3008 29.4213 39.1758 29.4005ZM35.9471 28.3589C36.447 28.7755 38.905 29.2338 39.4675 29.088C41.0298 28.6922 42.6129 28.1298 43.5086 26.8591C44.0502 26.0884 44.3001 25.151 44.4668 24.3178C44.6959 23.2555 44.8834 22.1306 44.5918 21.1307C44.2585 19.9851 43.4044 19.0893 42.1129 18.5269C40.1549 17.6937 37.3636 17.7979 35.5722 18.7352C34.2807 19.381 33.4266 20.6725 33.3016 22.1098C33.0725 24.2762 34.1973 26.9008 35.9471 28.3589Z" fill="#222222"/>
<path d="M37.2177 5.48701C34.5722 5.94529 32.1975 7.54924 32.2392 10.5072C32.2808 12.3194 33.2391 14.0067 34.6139 15.194C36.6136 16.9438 39.5507 17.6312 42.0087 16.6522C44.0918 15.819 45.6749 13.7359 45.7999 11.4862C45.904 9.69478 45.1125 6.77851 43.2377 6.13276C42.5295 5.88279 41.6338 6.44522 41.6338 6.44522C41.2588 5.42452 38.3217 5.29954 37.2177 5.48701Z" fill="white"/>
<path d="M39.6341 17.2356C37.7594 17.2356 35.9471 16.5482 34.5098 15.3192C33.01 14.0068 32.1351 12.2571 32.0934 10.5281C32.0518 7.86182 33.9474 5.94541 37.1761 5.36216C38.2801 5.17468 41.0922 5.27884 41.6547 6.2787C41.9463 6.13289 42.6337 5.82043 43.2378 6.02873C45.1334 6.67448 46.0082 9.63242 45.9041 11.528C45.7791 13.7985 44.196 15.9649 42.0296 16.819C41.2797 17.1106 40.4465 17.2564 39.6341 17.2356ZM38.2801 5.54963C37.926 5.54963 37.5719 5.57046 37.2178 5.63295C34.1348 6.17455 32.3018 8.00764 32.3434 10.5281C32.3642 12.1946 33.2183 13.861 34.6556 15.1317C36.6762 16.9023 39.6133 17.4855 41.9255 16.569C43.9877 15.7566 45.5083 13.6735 45.6333 11.5072C45.7374 9.71574 44.9251 6.90362 43.1545 6.2787C42.5087 6.04957 41.6755 6.59116 41.6547 6.59116C41.613 6.61199 41.5713 6.61199 41.5297 6.61199C41.488 6.59116 41.4672 6.57033 41.4464 6.52867C41.2589 5.7996 39.5716 5.54963 38.2801 5.54963Z" fill="#222222"/>
<path d="M41.9046 19.4853L41.9254 23.339C41.9254 23.339 41.5297 25.5054 39.1758 24.8388C37.7802 24.4222 36.6137 23.4223 36.0512 22.0683C36.0512 22.0683 35.8638 13.9236 35.8013 11.4656C38.6551 11.4239 41.8005 9.59082 41.8005 9.59082C41.8005 9.59082 42.7795 11.0698 43.2169 11.5281C43.5502 11.8822 43.8627 12.278 44.0918 12.6946C44.4876 13.4445 44.4668 14.361 44.4459 15.1942C44.4459 16.1733 44.3418 17.1523 44.1543 18.1105C43.8002 19.9436 41.9046 19.4853 41.9046 19.4853Z" fill="white"/>
<path d="M40.009 25.1097C39.7174 25.1097 39.4258 25.0681 39.1341 24.9848C37.676 24.5682 36.5095 23.5266 35.9262 22.131C35.9262 22.1102 35.9262 22.1101 35.9262 22.0893C35.9262 22.006 35.7388 13.9237 35.6763 11.4866C35.6763 11.4449 35.6971 11.4241 35.7179 11.3824C35.7388 11.3616 35.7804 11.3408 35.8013 11.3408C38.5925 11.2991 41.6963 9.48684 41.738 9.46601C41.8004 9.42435 41.8838 9.44518 41.9254 9.50767C41.9254 9.5285 42.9045 10.9866 43.3211 11.4241C43.6752 11.7782 43.9668 12.174 44.2168 12.6114C44.6334 13.403 44.6126 14.382 44.5917 15.1736C44.5917 16.1526 44.4876 17.1316 44.3001 18.1107C44.2168 18.6106 43.946 19.0481 43.5085 19.3397C43.0503 19.5897 42.5295 19.6938 42.0088 19.6105L42.0296 23.3183C41.9046 23.9224 41.5713 24.4432 41.0714 24.7765C40.7797 25.0056 40.4048 25.1097 40.009 25.1097ZM36.197 22.0477C36.7595 23.3391 37.8635 24.3182 39.2175 24.714C39.9257 24.9014 40.4881 24.8598 40.9464 24.589C41.363 24.2765 41.6755 23.8391 41.7796 23.3183L41.7588 19.4855C41.7588 19.4438 41.7796 19.4022 41.8004 19.3813C41.8421 19.3605 41.8838 19.3397 41.9046 19.3605C41.9046 19.3605 42.7378 19.548 43.3627 19.1522C43.7169 18.9022 43.9668 18.5273 44.0293 18.0899C44.2168 17.1317 44.3001 16.1734 44.3209 15.1944C44.3418 14.4028 44.3626 13.4863 43.9668 12.7572C43.7377 12.3406 43.4461 11.9657 43.1128 11.6116C42.7378 11.2158 41.9879 10.1118 41.7588 9.75764C41.1755 10.0701 38.4676 11.5074 35.9262 11.5907C36.0096 14.1321 36.1762 21.5894 36.197 22.0477Z" fill="#222222"/>
<path d="M41.8838 21.3808C41.8838 21.3808 40.3215 21.4433 39.3008 20.4017C38.2801 19.3602 38.4467 18.2979 38.4467 18.2979C38.4467 18.2979 40.134 19.4435 41.9046 19.4852L41.8838 21.3808Z" fill="#222222"/>
<path d="M41.8005 21.5267C41.4672 21.5267 40.1132 21.4643 39.1966 20.506C38.1551 19.4229 38.3009 18.3397 38.3009 18.298C38.3009 18.2564 38.3426 18.2147 38.3842 18.1939C38.4259 18.173 38.4676 18.173 38.5092 18.2147C38.5301 18.2147 40.1965 19.3395 41.9046 19.3604C41.9671 19.3604 42.0296 19.4229 42.0296 19.4854L42.0088 21.3809C42.0088 21.4434 41.9463 21.5059 41.8838 21.5059L41.8005 21.5267ZM38.5717 18.548C38.6134 19.2146 38.9258 19.8603 39.4049 20.3186C40.1965 21.1518 41.3838 21.2559 41.7588 21.2559L41.7796 19.6103C40.3631 19.5478 39.0508 18.8396 38.5717 18.548Z" fill="#222222"/>
<path d="M40.3839 13.3193C40.3839 13.3193 41.6338 15.1733 41.3421 15.5065C41.0505 15.8398 40.2173 15.6107 40.2173 15.6107" fill="white"/>
<path d="M40.7589 15.819C40.5714 15.819 40.3631 15.7982 40.1757 15.7357C40.1132 15.7149 40.0715 15.6524 40.0923 15.5691C40.1132 15.5066 40.1757 15.4649 40.2381 15.4858C40.4256 15.5274 41.0297 15.6316 41.238 15.4233C41.363 15.2983 40.9047 14.3401 40.2798 13.4027C40.2381 13.361 40.2173 13.2777 40.2798 13.2152C40.3215 13.1736 40.4048 13.1527 40.4673 13.2152C40.4881 13.2361 40.4881 13.2361 40.4881 13.2569C40.8839 13.8401 41.7588 15.2358 41.4255 15.5899C41.238 15.7565 41.0089 15.8399 40.7589 15.819Z" fill="#222222"/>
<path d="M36.6136 14.0068C36.197 13.4235 35.572 12.382 34.718 12.6945C34.4889 12.7778 34.3014 12.9444 34.1347 13.1319C33.4473 13.9443 33.5515 15.0275 34.0098 15.9232C34.4055 16.6939 35.6345 17.8604 36.4678 16.8814" fill="white"/>
<path d="M35.7179 17.3811C35.6762 17.3811 35.6345 17.3811 35.5929 17.3811C34.8221 17.2978 34.1347 16.4645 33.8848 15.9854C33.3432 14.9023 33.3848 13.7982 34.0306 13.0483C34.1972 12.84 34.4055 12.6734 34.6555 12.5692C35.5304 12.2359 36.197 13.1733 36.6136 13.7774L36.7177 13.9232C36.7594 13.9857 36.7386 14.069 36.6969 14.1107C36.6344 14.1524 36.5511 14.1315 36.5094 14.0899L36.4053 13.9441C36.0095 13.3608 35.4471 12.5692 34.7596 12.8192C34.5513 12.9025 34.3639 13.0275 34.2389 13.215C33.6765 13.8816 33.6348 14.8814 34.1347 15.8605C34.3847 16.3396 34.9888 17.0478 35.6345 17.1103C35.9262 17.152 36.197 17.027 36.3844 16.7978C36.4261 16.7353 36.5094 16.7353 36.5719 16.777C36.6344 16.8187 36.6344 16.902 36.5927 16.9645C36.3428 17.2353 36.0303 17.3811 35.7179 17.3811Z" fill="#222222"/>
<path d="M31.0518 33.0877C30.9685 33.0877 30.906 33.0252 30.906 32.9419V26.8802C30.906 26.7969 30.9685 26.7344 31.0518 26.7344C31.1351 26.7344 31.1976 26.7969 31.1976 26.8802V32.9419C31.1976 33.0252 31.1351 33.0877 31.0518 33.0877Z" fill="#222222"/>
<path d="M46.4665 33.1083C46.404 33.1083 46.3415 33.0666 46.3206 32.9833L45.1333 26.6717C45.1125 26.5883 45.175 26.5258 45.2583 26.505C45.3416 26.4842 45.4041 26.5467 45.4249 26.63L46.6123 32.9416C46.6331 33.025 46.5706 33.0875 46.4873 33.1083H46.4665Z" fill="#222222"/>
<path d="M39.2591 24.3802C39.2591 24.3802 35.9887 27.8381 36.1553 31.2335L41.6546 31.8584C41.6546 31.8584 40.6547 25.8592 41.2796 24.3594L39.2591 24.3802Z" fill="#D1D3D4"/>
<path d="M41.6546 32.0043L36.1345 31.3794C36.072 31.3794 36.0095 31.3169 36.0095 31.2336C35.8429 27.8174 39.0091 24.422 39.1549 24.2762C39.1758 24.2554 39.2174 24.2345 39.2591 24.2345L41.2797 24.1929C41.3213 24.1929 41.3838 24.2137 41.4046 24.2554C41.4255 24.297 41.4463 24.3387 41.4255 24.4012C40.8214 25.8593 41.8004 31.7752 41.8212 31.8377C41.8421 31.921 41.7796 31.9835 41.6963 32.0043C41.6754 32.0043 41.6546 32.0043 41.6546 32.0043ZM36.3012 31.0878L41.488 31.6919C41.3213 30.692 40.6339 26.1093 41.0713 24.5053L39.3216 24.5262C38.9466 24.9428 36.2178 28.0465 36.3012 31.0878Z" fill="#222222"/>
<path d="M38.905 28.2551H38.8841C38.8008 28.2551 38.7592 28.1717 38.7592 28.0884C38.9258 26.9427 39.3632 25.8595 40.0298 24.9013C40.0715 24.8388 40.1756 24.818 40.2381 24.8805C40.3006 24.9222 40.3214 25.0263 40.259 25.0888C39.6132 26.0054 39.2174 27.0469 39.0508 28.1301C39.03 28.2134 38.9675 28.2551 38.905 28.2551Z" fill="white"/>
<path d="M42.1754 25.6091C42.1546 25.6091 42.1338 25.6091 42.1129 25.6091C42.0296 25.5675 42.0088 25.4842 42.0296 25.4217C42.3421 24.7551 42.5712 24.0677 42.7587 23.3803C42.9462 22.6929 42.9253 21.9638 42.717 21.2764C42.6962 21.1931 42.7378 21.1097 42.8003 21.0889C42.8837 21.0681 42.967 21.1097 42.9878 21.1722C43.2169 21.9013 43.2169 22.6929 43.0295 23.4219C42.842 24.151 42.592 24.8384 42.2796 25.5258C42.2796 25.5883 42.2171 25.6091 42.1754 25.6091Z" fill="white"/>
<path d="M38.9467 13.9025H37.301C36.7178 13.9025 36.2595 13.4442 36.2595 12.861V11.7361C36.2595 11.6528 36.322 11.5903 36.4053 11.5903H39.8424C39.9257 11.5903 39.9882 11.6528 39.9882 11.7361V12.861C39.9882 13.4234 39.5299 13.9025 38.9467 13.9025ZM36.5512 11.882V12.861C36.5512 13.2776 36.8844 13.6109 37.301 13.6109H38.9467C39.3633 13.6109 39.6966 13.2776 39.6966 12.861V11.882H36.5512Z" fill="#222222"/>
<path d="M43.0294 13.9025H41.3838C40.8006 13.9025 40.3423 13.4442 40.3423 12.861V11.7361C40.3423 11.6528 40.4048 11.5903 40.4881 11.5903H43.9251C44.0085 11.5903 44.071 11.6528 44.071 11.7361V12.861C44.071 13.4234 43.6127 13.9025 43.0294 13.9025ZM40.6339 11.882V12.861C40.6339 13.2776 40.9672 13.6109 41.3838 13.6109H43.0294C43.446 13.6109 43.7793 13.2776 43.7793 12.861V11.882H40.6339Z" fill="#222222"/>
<path d="M41.3838 11.882H39.5923C39.509 11.882 39.4465 11.8195 39.4465 11.7361C39.4465 11.6528 39.509 11.5903 39.5923 11.5903H41.3838C41.4671 11.5903 41.5296 11.6528 41.5296 11.7361C41.5296 11.8195 41.4671 11.882 41.3838 11.882Z" fill="#222222"/>
<path d="M14.6169 20.1577C15.0887 20.1768 15.7546 20.2237 16.5291 20.3364C17.9825 20.5479 19.8137 20.9887 21.4656 21.9019L21.7937 22.0913C22.6492 22.6057 23.458 23.5385 24.1912 24.6597C24.9232 25.7791 25.574 27.0778 26.1169 28.313C26.6597 29.5478 27.0941 30.7175 27.3923 31.5786C27.5414 32.009 27.6563 32.3625 27.7341 32.6079C27.7676 32.7135 27.7938 32.7995 27.8132 32.8628H4.78296C4.78407 32.8269 4.78569 32.7816 4.78784 32.728C4.79399 32.5748 4.80454 32.3512 4.82397 32.0718C4.86289 31.5125 4.93616 30.7284 5.07104 29.8296C5.32431 28.142 5.79559 26.0569 6.67065 24.2964L6.85132 23.9487C7.83395 22.1371 9.58233 21.1857 11.0964 20.687C11.8525 20.438 12.5471 20.3026 13.0525 20.23C13.305 20.1937 13.5105 20.1732 13.6521 20.1616C13.7226 20.1559 13.7772 20.152 13.8142 20.1499C13.8326 20.1489 13.8469 20.1484 13.8562 20.1479H13.8708L13.8728 20.147C13.8748 20.1469 13.8784 20.1471 13.8826 20.147C13.8909 20.1468 13.9034 20.1463 13.9197 20.146C13.9528 20.1455 14.0022 20.145 14.0662 20.145C14.1942 20.1451 14.3813 20.1482 14.6169 20.1577Z" fill="#D1D3D4" stroke="#222222" stroke-width="0.2"/>
<path d="M8.20084 31.5668C8.18 31.5668 8.15917 31.5668 8.13834 31.546C8.07585 31.5043 8.03419 31.421 8.07585 31.3585C8.18 31.1502 9.34651 26.9424 10.0964 24.172C10.1172 24.0886 10.2006 24.047 10.2839 24.0678C10.3672 24.0886 10.4089 24.172 10.388 24.2345C10.1797 24.9427 8.4508 31.2335 8.34665 31.4626C8.32582 31.5251 8.26333 31.5668 8.20084 31.5668Z" fill="#222222"/>
<path d="M16.6164 6.96614C16.6164 6.96614 17.9079 3.69575 14.5958 2.86253C11.2838 2.0293 8.24252 4.21651 8.61746 7.13279C8.99241 10.0491 11.2213 10.1116 11.2213 10.1116L16.6164 6.96614Z" fill="white"/>
<path d="M11.2213 10.2577C11.2005 10.2577 8.86744 10.1744 8.47166 7.15396C8.28419 5.8833 8.76329 4.61263 9.74232 3.77941C10.9922 2.67539 12.8044 2.27961 14.6167 2.71705C15.6165 2.96702 16.3248 3.46695 16.6997 4.19602C17.3455 5.46669 16.783 6.94565 16.7622 7.02897C16.7414 7.0498 16.7206 7.09147 16.6997 7.1123L11.3046 10.2577C11.2838 10.2369 11.2421 10.2577 11.2213 10.2577ZM13.1377 2.84204C11.9504 2.82121 10.8255 3.23782 9.9298 4.00855C9.03409 4.77928 8.57581 5.96662 8.74246 7.13313C9.09658 9.71611 10.888 9.94525 11.1796 9.96608L16.4914 6.86233C16.5747 6.61236 16.9705 5.36253 16.4289 4.321C16.0956 3.67526 15.4499 3.23782 14.5333 3.00868C14.0959 2.8837 13.6168 2.84204 13.1377 2.84204Z" fill="#222222"/>
<path d="M11.7629 7.29971C12.2628 6.98725 12.8044 6.77894 13.3668 6.67479C14.9291 6.36233 16.7205 6.63313 17.8037 7.79964C17.283 7.40386 16.5747 7.71632 15.9498 7.92462C15.4082 8.1121 14.8458 8.19542 14.3042 8.36207C13.5751 8.5912 12.9085 8.94532 12.3045 9.40359C11.9503 9.67439 11.1171 10.8617 10.7005 10.8409C9.92978 10.7784 10.2631 9.44525 10.4089 9.04947C10.6797 8.3204 11.1379 7.71632 11.7629 7.29971Z" fill="white"/>
<path d="M10.7629 10.9864H10.7421C10.5546 10.9864 10.3672 10.8822 10.263 10.7156C9.90889 10.1948 10.2838 9.11165 10.3255 8.98666C10.5755 8.23676 11.0546 7.61185 11.7003 7.1744C12.2002 6.86195 12.7835 6.63281 13.3668 6.52866C14.7832 6.23703 16.7205 6.40367 17.9495 7.69517C18.012 7.75766 18.012 7.84098 17.9495 7.90347C17.887 7.96596 17.8037 7.96596 17.7412 7.90347C17.3246 7.59101 16.7413 7.79932 16.1789 7.9868L16.0122 8.04929C15.7206 8.15344 15.4081 8.23676 15.1165 8.29925C14.8666 8.36175 14.6166 8.42424 14.3875 8.48673C13.6792 8.71586 13.0126 9.04915 12.4294 9.50743C12.2627 9.65324 12.0961 9.81988 11.9503 10.0074C11.4503 10.5906 11.0754 10.9864 10.7629 10.9864ZM14.5749 6.71613C14.1791 6.71613 13.7834 6.7578 13.4084 6.84112C12.8668 6.94527 12.3252 7.13274 11.8461 7.4452C11.2629 7.84098 10.8046 8.42424 10.5963 9.11164C10.4505 9.52826 10.3047 10.2782 10.513 10.5698C10.5755 10.6531 10.6588 10.7156 10.7629 10.7156C10.9504 10.7156 11.4503 10.174 11.742 9.86155C11.9086 9.65324 12.0753 9.48659 12.2627 9.31995C12.8668 8.84085 13.5751 8.48673 14.3041 8.25759C14.5541 8.17427 14.8041 8.11178 15.054 8.04929C15.3457 7.9868 15.6373 7.90347 15.9289 7.79932L16.0956 7.75766C16.4497 7.61185 16.8246 7.52852 17.2204 7.48686C16.408 6.94527 15.4915 6.6953 14.5749 6.71613Z" fill="#222222"/>
<path d="M19.9492 8.02846C18.1786 7.04943 15.8039 6.88278 13.8667 7.46604C11.9294 8.04929 10.7004 9.63242 10.2422 11.5905C9.92969 12.9445 9.67973 15.0067 10.7837 16.0066C11.9919 17.1106 13.4292 17.6938 15.054 17.9646C16.7204 18.2146 18.7827 18.1938 20.1575 17.1106C21.5323 16.0274 22.4488 14.111 22.4905 12.4237C22.5738 10.3198 21.4906 8.88251 19.9492 8.02846Z" fill="white"/>
<path d="M16.6997 18.2353C16.1373 18.2353 15.5748 18.1936 15.0332 18.1103C13.2627 17.8395 11.8462 17.1938 10.6797 16.1314C9.55481 15.1107 9.74229 13.0902 10.0964 11.5695C10.5963 9.44482 11.9503 7.88253 13.8251 7.34093C15.8456 6.73685 18.2828 6.96598 20.0117 7.92419C21.7615 8.88239 22.6989 10.4863 22.6364 12.4236C22.5739 14.1942 21.5949 16.1731 20.2409 17.2354C19.241 18.027 17.887 18.2353 16.6997 18.2353ZM16.1998 7.27844C15.429 7.27844 14.6583 7.38259 13.9084 7.5909C12.117 8.13249 10.8671 9.54897 10.388 11.6112C10.1172 12.7985 9.80478 14.9232 10.888 15.8815C12.0128 16.9022 13.3876 17.5271 15.0957 17.7979C16.3247 17.9853 18.5953 18.1312 20.0951 16.9646C21.3866 15.9648 22.3239 14.0692 22.3656 12.3819C22.4489 10.0489 21.0533 8.77824 19.8868 8.13249C18.7411 7.57007 17.4704 7.25761 16.1998 7.27844Z" fill="#222222"/>
<path d="M18.3453 19.8603L18.5952 23.3807C18.5952 23.3807 18.262 25.0263 15.8664 24.6305C13.4709 24.2348 12.9918 22.6516 12.9918 22.6516L12.7627 16.0692C12.7627 16.0692 16.2831 13.8195 15.4707 10.0908C15.4707 10.0908 17.1371 12.1322 20.5741 11.4031C20.5741 11.4031 20.8866 15.5901 20.7616 17.4232C20.6366 19.2979 18.3453 19.8603 18.3453 19.8603Z" fill="white"/>
<path d="M16.533 24.8387C16.3039 24.8387 16.0747 24.8179 15.8456 24.7762C13.3876 24.3804 12.8877 22.7765 12.8668 22.714C12.8668 22.6931 12.8668 22.6931 12.8668 22.6723L12.6377 16.0899C12.6377 16.0482 12.6585 15.9857 12.7002 15.9649C12.7418 15.9441 16.1372 13.7152 15.3457 10.1323C15.3248 10.049 15.3873 9.96569 15.4498 9.96569C15.5123 9.94486 15.554 9.96569 15.5956 10.0074C15.6165 10.0282 17.2412 11.9654 20.5741 11.278C20.6158 11.278 20.6575 11.278 20.6991 11.2988C20.7408 11.3197 20.7616 11.3613 20.7616 11.403C20.7616 11.4447 21.0741 15.6316 20.9491 17.4647C20.8241 19.152 19.0327 19.8185 18.5327 19.9643L18.7827 23.3597C18.7827 23.3806 18.7827 23.3806 18.7827 23.4014C18.741 23.4222 18.4286 24.8387 16.533 24.8387ZM13.1376 22.6515C13.2001 22.8181 13.7209 24.1513 15.8873 24.5054C17.9911 24.8387 18.4078 23.5472 18.4494 23.3806L18.1994 19.881C18.1994 19.8185 18.2411 19.756 18.3036 19.7352C18.3244 19.7352 20.4908 19.1728 20.6158 17.4647C20.7408 15.8607 20.5116 12.4029 20.4491 11.6113C17.887 12.0904 16.3247 11.0905 15.6998 10.5489C16.1164 13.7777 13.3876 15.8607 12.9085 16.194L13.1376 22.6515Z" fill="#222222"/>
<path d="M13.8668 15.8191C13.7626 15.5066 13.5543 15.2358 13.2835 15.0484C13.0127 14.8817 12.7211 14.7567 12.4295 14.6943C12.2628 14.6318 12.0962 14.6318 11.9295 14.6526C11.8045 14.6734 11.7004 14.7359 11.6171 14.7984C11.3671 14.9442 11.1796 15.1734 11.0963 15.4442C11.0546 15.6733 11.0546 15.9024 11.1171 16.1107C11.1588 16.3607 11.2421 16.5898 11.3463 16.819C11.8254 17.7355 12.9502 18.0896 13.8668 17.6105C13.8668 17.6105 13.8876 17.6105 13.8876 17.5897" fill="white"/>
<path d="M12.9918 17.9441C12.8044 17.9441 12.5961 17.9232 12.4086 17.8607C11.8878 17.6941 11.4712 17.34 11.2212 16.8609C11.0963 16.6317 11.0129 16.3818 10.9713 16.1318C10.9088 15.8818 10.888 15.6319 10.9505 15.3819C11.0546 15.0695 11.2629 14.8195 11.5337 14.6528C11.6379 14.5695 11.7837 14.507 11.9087 14.4862C12.0961 14.4654 12.2836 14.4862 12.4711 14.5279C12.7835 14.5904 13.096 14.7153 13.3876 14.9028C13.6793 15.1111 13.9084 15.4027 14.0334 15.7569C14.0542 15.8402 14.0125 15.9235 13.95 15.9443C13.8667 15.9652 13.7834 15.9235 13.7626 15.861C13.6584 15.5694 13.4918 15.3194 13.2418 15.1528C12.9918 15.007 12.721 14.882 12.4294 14.8195C12.2836 14.7778 12.1378 14.757 11.992 14.7778C11.8878 14.7987 11.8045 14.8403 11.7212 14.9028C11.5129 15.0278 11.3462 15.2361 11.2629 15.4652C11.2212 15.6735 11.2421 15.861 11.2837 16.0693C11.3254 16.2985 11.4087 16.5276 11.5129 16.7359C11.9503 17.5691 12.9918 17.9024 13.8459 17.465H13.8667C13.9292 17.4233 14.0334 17.4441 14.0542 17.5275C14.0959 17.59 14.075 17.6941 14.0125 17.7358C13.6584 17.8816 13.3251 17.9441 12.9918 17.9441Z" fill="#222222"/>
<path d="M17.7621 14.1943C17.7621 14.1943 19.1994 15.8816 18.9494 16.2357C18.6995 16.5898 17.8454 16.4649 17.8454 16.4649" fill="white"/>
<path d="M18.1578 16.6316C18.0537 16.6316 17.9287 16.6316 17.8245 16.6108C17.7412 16.6108 17.6787 16.5483 17.6787 16.465C17.6787 16.3817 17.7412 16.3192 17.8245 16.3192H17.8454C18.0328 16.34 18.6369 16.3608 18.8036 16.1317C18.8869 15.965 18.3245 15.0902 17.6162 14.2778C17.5537 14.2153 17.5746 14.132 17.6371 14.0695C17.6995 14.007 17.7829 14.0278 17.8454 14.0903C18.4078 14.7569 19.3243 15.9234 19.0327 16.3192C18.8661 16.59 18.4703 16.6316 18.1578 16.6316Z" fill="#222222"/>
<path d="M18.8452 17.4436L16.0748 16.4854C16.0748 16.4854 15.554 17.506 16.5539 18.4851C17.6371 19.5474 18.8452 17.4436 18.8452 17.4436Z" fill="white"/>
<path d="M18.3453 19.8603C18.3453 19.8603 16.5122 19.9436 15.6373 19.4854C15.6373 19.4854 16.4497 21.5476 18.4495 21.9642L18.3453 19.8603Z" fill="#222222"/>
<path d="M18.4703 22.1308H18.4286C16.3664 21.6934 15.5332 19.652 15.5123 19.5478C15.4915 19.4853 15.5123 19.4229 15.554 19.3812C15.5956 19.3395 15.6581 19.3395 15.7206 19.3604C16.5538 19.7978 18.3244 19.7145 18.3453 19.7145C18.4286 19.7145 18.4911 19.777 18.4911 19.8603L18.5952 21.985C18.5952 22.0267 18.5744 22.0683 18.5536 22.11C18.5328 22.1308 18.4911 22.1308 18.4703 22.1308ZM15.9498 19.777C16.2622 20.3394 17.0121 21.4434 18.3244 21.7975L18.2203 20.0269C17.8245 20.0269 16.7413 20.0269 15.9498 19.777Z" fill="#222222"/>
<path d="M9.30482 32.7545C9.84641 30.7548 8.01332 27.2553 7.49256 25.5055C7.01346 23.8807 4.78459 19.6313 5.2012 17.9648C5.2012 17.9648 6.2219 13.9237 5.24286 14.5278C4.70127 14.8611 4.30549 16.5275 4.30549 16.5275C4.30549 16.5275 3.7014 12.8614 2.7432 12.4864C1.78499 12.1115 -0.110587 14.5278 0.181041 15.5485C1.11841 18.9231 1.47253 22.4851 1.90998 25.9429C2.28492 29.0467 2.22243 34.0044 6.47186 34.2335C8.22163 34.3168 9.03402 33.7127 9.30482 32.7545Z" fill="white"/>
<path d="M6.80517 34.3793C6.70101 34.3793 6.57603 34.3793 6.45105 34.3793C2.57657 34.171 2.15996 30.0882 1.86833 27.1094C1.82667 26.7136 1.78501 26.3178 1.74335 25.9637L1.59753 24.7764C1.24341 21.7143 0.868464 18.5689 0.0352425 15.5901C-0.173063 14.8819 0.576836 13.6112 1.3684 12.8821C1.90999 12.3822 2.40992 12.2156 2.78487 12.3406C3.57643 12.653 4.0972 14.7777 4.32633 15.8817C4.49298 15.3402 4.78461 14.6319 5.15955 14.4028C5.28454 14.2986 5.45118 14.2986 5.597 14.3819C6.11776 14.7569 5.5345 17.2566 5.3262 18.0065C5.03457 19.1313 6.0761 21.6518 6.84683 23.4849C7.18012 24.2973 7.47174 24.9847 7.61756 25.4638C7.76337 25.9429 7.99251 26.5053 8.22164 27.1094C8.95071 28.9633 9.84643 31.2755 9.42981 32.7753C9.15902 33.8585 8.2633 34.3793 6.80517 34.3793ZM2.53491 12.5905C2.28494 12.5905 1.93082 12.7572 1.5767 13.0905C0.764311 13.8195 0.181056 14.9652 0.32687 15.5068C1.16009 18.5064 1.53504 21.6726 1.90999 24.7347L2.0558 25.9221C2.09747 26.2762 2.13913 26.672 2.18079 27.0677C2.47242 30.0882 2.84737 33.8793 6.49271 34.0668C8.01334 34.1501 8.88822 33.6919 9.15902 32.7128C9.5548 31.2755 8.65908 29.0258 7.95085 27.2136C7.70088 26.5886 7.47174 26.0054 7.32593 25.5471C7.18012 25.0888 6.90932 24.4014 6.57603 23.6099C5.76364 21.631 4.72211 19.173 5.03457 17.944C5.40952 16.4858 5.63866 14.7986 5.40952 14.6319C5.40952 14.6319 5.36786 14.6319 5.30537 14.6736C4.88876 14.9235 4.53464 16.1317 4.45132 16.59C4.43049 16.6525 4.36799 16.715 4.3055 16.715C4.24301 16.715 4.18052 16.6525 4.15969 16.59C3.99304 15.5901 3.40979 12.9446 2.70155 12.653C2.63906 12.6114 2.5974 12.5905 2.53491 12.5905Z" fill="#222222"/>
<path d="M2.20166 18.277H2.16C2.07668 18.2562 2.03501 18.1729 2.05585 18.1104C2.32664 16.9855 4.15973 16.4231 4.24305 16.4023C4.32637 16.3815 4.4097 16.4231 4.43053 16.5064C4.45136 16.5898 4.4097 16.6731 4.32637 16.6939C4.30554 16.6939 2.57661 17.2355 2.32664 18.1937C2.32664 18.2354 2.28498 18.277 2.20166 18.277Z" fill="#222222"/>
<path d="M22.5114 33.0878C22.4489 33.0878 22.3864 33.0253 22.3656 32.9628L21.1158 24.7139C21.095 24.6306 21.1366 24.5473 21.2199 24.5473C21.3033 24.5265 21.3866 24.5681 21.3866 24.6515V24.6723L22.6364 32.9212C22.6572 33.0045 22.5948 33.067 22.5114 33.0878Z" fill="#222222"/>
<path d="M12.2836 27.9422C12.2627 27.9422 12.2419 27.9422 12.2211 27.9422C12.1378 27.9213 12.1169 27.838 12.1378 27.7547L13.7001 23.7969C13.7209 23.7136 13.8042 23.6927 13.8875 23.7136C13.9708 23.7344 13.9917 23.8177 13.9709 23.901L12.4086 27.8588C12.3877 27.9005 12.3252 27.9422 12.2836 27.9422Z" fill="#222222"/>
<path d="M14.2208 25.2762C14.2 25.2762 14.2 25.2762 14.1792 25.2762L12.4919 24.6929C12.4086 24.6721 12.3669 24.5887 12.4086 24.5054C12.4294 24.4221 12.5127 24.3804 12.596 24.4221L14.2833 24.9845C14.3666 25.0054 14.4083 25.0887 14.3666 25.172C14.325 25.2345 14.2833 25.2553 14.2208 25.2762Z" fill="#222222"/>
<path d="M13.8459 26.6508C13.8251 26.6508 13.8042 26.6508 13.7834 26.6508L12.0545 25.9634C11.9711 25.9217 11.9503 25.8384 11.9711 25.7759C11.992 25.6926 12.0753 25.6717 12.1586 25.6926L13.8875 26.38C13.9709 26.4008 13.9917 26.505 13.9709 26.5675C13.95 26.6091 13.9084 26.6508 13.8459 26.6508Z" fill="#222222"/>
<path d="M51.9283 5.90371C51.9283 5.90371 54.7613 0.38362 55.2404 0.196145C55.7195 0.00867023 57.1151 0.571097 57.011 0.862725C56.9068 1.15435 56.3236 3.79983 56.3236 3.79983C56.3236 3.79983 57.8442 2.82079 58.0109 3.21657C58.1775 3.61235 56.3028 5.59126 56.3028 5.59126L53.7614 9.81986L51.9283 5.90371Z" fill="white"/>
<path d="M53.7614 9.96546C53.6989 9.96546 53.6572 9.9238 53.6364 9.88214L51.7825 5.966C51.7616 5.92434 51.7616 5.88268 51.7825 5.84102C52.449 4.52869 54.6779 0.258432 55.1779 0.0501264C55.6361 -0.137348 56.6985 0.237601 57.0318 0.57089C57.1359 0.654212 57.1776 0.779197 57.1568 0.90418C57.0943 1.09165 56.7401 2.59145 56.5527 3.48716C56.9901 3.2372 57.6567 2.88308 57.9691 2.98723C58.0525 3.00806 58.115 3.07056 58.1566 3.15388C58.3233 3.57049 57.1568 4.92447 56.4277 5.6952L53.8864 9.90297C53.8655 9.94463 53.8239 9.96546 53.7614 9.96546ZM52.0949 5.90351L53.7822 9.48636L56.1777 5.50773L56.1985 5.4869C57.0318 4.59118 57.9066 3.48717 57.865 3.25803C57.74 3.19554 57.0526 3.508 56.4069 3.92461C56.3652 3.96627 56.2819 3.96627 56.2402 3.92461C56.1985 3.88295 56.1569 3.82045 56.1777 3.75796C56.1985 3.65381 56.7401 1.19581 56.8651 0.820856C56.7401 0.695872 56.5943 0.59172 56.4069 0.508398C55.9694 0.320923 55.4903 0.21677 55.282 0.300092C54.9904 0.508398 53.4281 3.32052 52.0949 5.90351Z" fill="#222222"/>
<path d="M55.0361 7.73584L52 14.5708L51.9473 14.689L52.0557 14.7583L62.0947 21.1772L54.9639 26.1851L46.9717 18.3569L46.9658 18.3521L46.959 18.3462L46.8145 18.2202C46.1278 17.5622 46.0135 16.4913 46.2871 15.1792C46.5775 13.787 47.2945 12.1789 48.1279 10.647C48.9603 9.1171 49.9039 7.67229 50.6396 6.60986C51.0074 6.0789 51.3233 5.64358 51.5469 5.34131C51.6574 5.19181 51.745 5.07454 51.8057 4.99463L55.0361 7.73584Z" fill="#D1D3D4" stroke="black" stroke-width="0.3"/>
<path d="M61.7812 9.84059C61.7812 9.84059 62.0936 8.25747 63.8018 7.15345C65.5099 6.04943 70.2592 6.7785 71.1133 8.71574C71.9673 10.653 69.4468 15.7148 69.4468 15.7148L61.3438 17.902L61.7812 9.84059Z" fill="white"/>
<path d="M61.3437 18.0269C61.2604 18.0269 61.1979 17.9644 61.1979 17.8811C61.1979 17.8811 61.1979 17.8811 61.1979 17.8602L61.6353 9.81966V9.79882C61.6561 9.73633 61.9686 8.13238 63.7392 7.00753C64.7599 6.36179 66.8221 6.27846 68.676 6.84089C70.0092 7.23667 70.9257 7.88241 71.259 8.63231C72.1339 10.6112 69.6967 15.5481 69.5926 15.7564C69.5717 15.798 69.5301 15.8188 69.4884 15.8397L61.3853 18.0269C61.3645 18.0269 61.3645 18.0269 61.3437 18.0269ZM61.9269 9.86132L61.5103 17.6936L69.3426 15.5897C69.6134 15.0065 71.759 10.5279 70.9674 8.77813C70.6549 8.11155 69.8009 7.50746 68.5719 7.15335C66.8221 6.63258 64.8224 6.69507 63.885 7.29916C62.9268 7.86158 62.2394 8.77813 61.9269 9.86132Z" fill="#222222"/>
<path d="M69.051 32.9002C69.6343 28.5466 70.0092 24.2556 69.5301 23.4432C67.8845 20.631 60.448 22.36 59.0732 22.9849C58.5316 23.2349 58.8649 27.6301 57.99 32.9211H69.051V32.9002Z" fill="#222222"/>
<path d="M59.2075 21.3076C60.3777 21.2291 61.6945 21.2508 62.9321 21.3145C64.1693 21.3781 65.3244 21.4843 66.1704 21.5742C66.5934 21.6192 66.9395 21.6597 67.1792 21.6895C67.2988 21.7043 67.3923 21.7163 67.4556 21.7246C67.4868 21.7287 67.5107 21.7322 67.5269 21.7344C67.5348 21.7355 67.5413 21.7358 67.5454 21.7363C67.5474 21.7366 67.5493 21.7372 67.5503 21.7373H67.5513L67.5659 21.7393L67.5815 21.7383H67.5962C67.6062 21.7377 67.6215 21.7363 67.6411 21.7354C67.6807 21.7335 67.7395 21.7309 67.8149 21.7285C67.9664 21.7238 68.1861 21.7201 68.4565 21.7217C68.9978 21.7249 69.7428 21.7522 70.5571 21.8477C72.0941 22.0279 73.8441 22.4474 74.9604 23.3779L75.1743 23.5713C75.7082 24.0905 76.0327 24.9303 76.2095 25.9248C76.3855 26.9155 76.412 28.0382 76.3667 29.0977C76.3214 30.156 76.2047 31.1467 76.1001 31.873C76.0478 32.236 75.9987 32.5326 75.9624 32.7383C75.9484 32.8178 75.9358 32.8837 75.9263 32.9346L66.6958 32.7529L68.8433 23.2471L68.8833 23.0693L68.7017 23.0635L62.0356 22.8555L61.9097 22.8516L61.8843 22.9756L59.8677 32.7295H52.7427C53.3851 29.9374 54.0401 27.3715 54.6675 25.4258C54.9881 24.4315 55.3 23.6036 55.5972 22.9912C55.7458 22.685 55.8892 22.4364 56.0259 22.249C56.1637 22.0602 56.286 21.9436 56.3911 21.8887L56.3921 21.8896C57.0243 21.5661 58.0316 21.3865 59.2075 21.3076Z" fill="#D1D3D4" stroke="black" stroke-width="0.3"/>
<path d="M62.6352 19.1522L62.052 23.0267C62.052 23.0267 62.3228 25.5889 64.9058 25.2764C66.468 25.0681 67.8429 24.1724 68.6552 22.8392L69.4468 15.7152C69.4468 15.7152 67.697 14.507 68.6969 10.5076C66.3639 10.6325 64.0309 10.4034 61.7603 9.86182C61.7603 9.86182 60.3855 14.9445 60.4688 16.9442C60.5522 18.9439 62.6352 19.1522 62.6352 19.1522Z" fill="white"/>
<path d="M64.4891 25.4426C63.9267 25.4635 63.3643 25.276 62.9268 24.9427C62.0519 24.2553 61.927 23.0888 61.927 23.0471C61.927 23.0263 61.927 23.0263 61.927 23.0055L62.4894 19.2768C61.9895 19.1727 60.4272 18.6936 60.3438 16.923C60.2605 14.9232 61.5937 10.0072 61.6562 9.79891C61.677 9.71559 61.7603 9.67393 61.8436 9.69476C64.0933 10.2364 66.4055 10.4447 68.7177 10.3405C68.7594 10.3405 68.8219 10.3613 68.8427 10.3822C68.8844 10.4238 68.8844 10.4655 68.8635 10.5072C67.8845 14.34 69.5301 15.5481 69.5509 15.569C69.5926 15.6106 69.6134 15.6523 69.6134 15.7148L68.8219 22.8388C68.8219 22.8597 68.8219 22.8805 68.801 22.9013C67.9678 24.2761 66.5305 25.2135 64.9474 25.4218C64.7807 25.4426 64.6349 25.4426 64.4891 25.4426ZM62.2186 23.0263C62.2394 23.1721 62.3852 24.1303 63.1143 24.6927C63.5726 25.0677 64.1767 25.1927 64.9057 25.1094C66.4055 24.9011 67.7178 24.047 68.5302 22.7763L69.301 15.7564C68.9677 15.4648 67.697 14.1317 68.5302 10.6321C66.3014 10.7155 64.0725 10.5072 61.9061 10.0072C61.677 10.8404 60.573 15.1315 60.6563 16.9021C60.7396 18.7352 62.5935 18.9852 62.6769 18.9852C62.7185 18.9852 62.7602 19.006 62.781 19.0477C62.8018 19.0893 62.8227 19.131 62.8018 19.1518L62.2186 23.0263Z" fill="#222222"/>
<path d="M62.3436 21.1724C62.3436 21.1724 63.3227 21.4849 64.5725 20.5475C65.8223 19.6101 65.7807 18.9644 65.7807 18.9644C65.7807 18.9644 64.26 19.6726 62.6561 19.1518L62.3436 21.1724Z" fill="#222222"/>
<path d="M62.7603 21.3602C62.5936 21.3602 62.4478 21.3393 62.2812 21.2977C62.2187 21.2769 62.177 21.2144 62.177 21.131L62.4686 19.1105C62.4686 19.0688 62.4895 19.0272 62.5311 19.0063C62.5728 18.9855 62.6144 18.9855 62.6561 18.9855C64.1976 19.4854 65.6765 18.8188 65.6765 18.8188C65.7182 18.798 65.7599 18.798 65.8015 18.8188C65.8432 18.8397 65.864 18.8813 65.864 18.9438C65.864 19.0272 65.864 19.6729 64.5933 20.6519C64.1142 21.0894 63.4477 21.3393 62.7603 21.3602ZM62.5103 21.0685C62.8019 21.1102 63.5518 21.1519 64.4892 20.4436C65.1974 19.902 65.4682 19.4646 65.5724 19.2146C64.6767 19.5271 63.6976 19.5687 62.7603 19.3396L62.5103 21.0685Z" fill="#222222"/>
<path d="M64.9683 13.5068C64.9683 13.5068 63.5309 15.5899 63.8642 15.9648C64.1975 16.3398 65.1349 16.1107 65.1349 16.1107" fill="white"/>
<path d="M64.5308 16.3191C64.2392 16.34 63.9684 16.2566 63.7393 16.0483C63.3643 15.6317 64.385 14.0694 64.8225 13.4237C64.8641 13.3612 64.9683 13.3404 65.0308 13.382C65.0933 13.4237 65.1141 13.5278 65.0724 13.5903C64.3642 14.6319 63.8226 15.6942 63.9476 15.8609C64.1559 16.1108 64.8433 16.0067 65.0724 15.9442C65.1558 15.9234 65.2391 15.965 65.2599 16.0483C65.2807 16.1317 65.2391 16.215 65.1558 16.2358C64.9475 16.2775 64.7391 16.3191 64.5308 16.3191Z" fill="#222222"/>
<path d="M67.947 14.4859C68.2178 14.1317 68.5511 13.8193 68.9261 13.5901C69.1344 13.4443 69.3635 13.3818 69.6135 13.3818C69.8009 13.4027 69.9884 13.486 70.1551 13.611C70.6342 13.9651 70.9258 14.4859 70.9883 15.0899C71.0091 15.3607 70.9675 15.6315 70.8841 15.8815C70.6967 16.2565 70.3842 16.5689 69.9884 16.7356C69.5926 16.9022 69.1969 17.0272 68.7802 17.1105" fill="white"/>
<path d="M68.7594 17.2354C68.6761 17.2354 68.6136 17.1729 68.5928 17.0895C68.5928 17.0062 68.6344 16.9437 68.7178 16.9229C69.1135 16.8396 69.5093 16.7354 69.8843 16.5479C70.2384 16.3813 70.53 16.1105 70.6967 15.7564C70.78 15.5272 70.8216 15.2773 70.8008 15.0481C70.7383 14.5066 70.4675 14.0066 70.0301 13.6942C69.9051 13.59 69.7384 13.5275 69.5718 13.5067C69.3635 13.5067 69.1552 13.59 68.9885 13.6942C68.6344 13.9233 68.3011 14.2149 68.0512 14.5482C68.0095 14.6107 67.9054 14.6315 67.8429 14.5899C67.7804 14.5482 67.7595 14.4441 67.822 14.3816C68.0928 14.0066 68.447 13.6942 68.8427 13.4442C69.0719 13.2984 69.3427 13.1942 69.6135 13.2151C69.8426 13.2359 70.0509 13.3192 70.2384 13.465C70.7383 13.84 71.0716 14.4232 71.1341 15.0481C71.1549 15.3398 71.1133 15.6314 71.0091 15.9022C70.8008 16.3188 70.4675 16.6521 70.0509 16.8396C69.6551 17.027 69.2385 17.152 68.8219 17.2354H68.7594Z" fill="#222222"/>
<path d="M73.9671 28.6714C73.2172 29.6504 72.1965 31.171 71.1133 32.9H73.9671V28.6714Z" fill="#D1D3D4"/>
<path d="M71.1132 33.0462C71.0299 33.0462 70.9674 32.9837 70.9674 32.9003C70.9674 32.8795 70.9674 32.8587 70.9882 32.8378L73.842 26.3179C73.8837 26.2346 73.967 26.2137 74.0503 26.2346C74.1337 26.2762 74.1545 26.3595 74.1337 26.422L71.2799 32.942C71.2382 33.0045 71.1757 33.0462 71.1132 33.0462Z" fill="#222222"/>
<path d="M54.0323 4.77885C53.9906 4.77885 53.9698 4.77886 53.9489 4.75803C53.8865 4.71636 53.8656 4.61221 53.9281 4.54972C54.8447 3.32072 56.3028 3.65401 56.3653 3.65401C56.4486 3.67484 56.4903 3.73733 56.4903 3.82065C56.4694 3.90397 56.4069 3.94563 56.3236 3.94563C56.3236 3.94563 56.3236 3.94563 56.3028 3.94563C56.2403 3.9248 54.9488 3.65401 54.1781 4.71636C54.1364 4.75803 54.0739 4.77885 54.0323 4.77885Z" fill="#222222"/>
</svg>
