<svg width="17" height="14" viewBox="0 0 17 14" fill="none" xmlns="http://www.w3.org/2000/svg">
<path d="M3.16725 2.37256C3.01391 2.3719 2.86286 2.40972 2.72792 2.48256L2.39957 2.6598L3.16667 2.62256M3.16725 2.37256C3.16747 2.37256 3.16769 2.37256 3.16792 2.37256L3.16667 2.62256M3.16725 2.37256H3.16667V2.62256M3.16725 2.37256H13.8328M3.16667 2.62256H13.8333M13.8328 2.37256C13.8325 2.37256 13.8323 2.37256 13.8321 2.37256L13.8333 2.62256M13.8328 2.37256C13.9861 2.3719 14.1371 2.40972 14.2721 2.48256L14.6004 2.6598L14.3116 2.89606L9.29167 7.00269C9.29165 7.00271 9.29164 7.00272 9.29163 7.00273C9.06829 7.18549 8.78859 7.28535 8.5 7.28535C8.21141 7.28535 7.93171 7.18549 7.70837 7.00273C7.70836 7.00272 7.70835 7.00271 7.70833 7.00269L7.86667 6.80923L13.8333 2.62256M13.8328 2.37256H13.8333V2.62256M2.84667 2.70256L3.00496 2.50906L3.14404 2.62283C3.04016 2.62584 2.9383 2.6531 2.84667 2.70256ZM2.84667 2.70256L2.96542 2.92256C2.99786 2.90504 3.03236 2.89198 3.06798 2.88361L2.84667 2.70256ZM14.1533 2.70256L13.932 2.88361C13.9676 2.89198 14.0021 2.90504 14.0346 2.92256L14.1533 2.70256ZM14.1533 2.70256L13.995 2.50906L13.856 2.62283C13.9598 2.62584 14.0617 2.6531 14.1533 2.70256ZM2.25 4.47445L2.65846 4.8092L6.75833 8.16909L2.25 4.47445ZM2.25 4.47445V5.00256M2.25 4.47445V5.00256M2.25 5.00256V11.2892C2.25 11.5323 2.34658 11.7655 2.51849 11.9374C2.69039 12.1093 2.92355 12.2059 3.16667 12.2059H13.8333C14.0764 12.2059 14.3096 12.1093 14.4815 11.9374C14.6534 11.7655 14.75 11.5323 14.75 11.2892V5.00256V4.47445M2.25 5.00256L14.75 4.47445M14.75 4.47445L14.3415 4.8092M14.75 4.47445L14.3415 4.8092M14.3415 4.8092L10.2417 8.16909M14.3415 4.8092L10.2417 8.16909M10.2417 8.16909C9.75031 8.57121 9.13493 8.79092 8.5 8.79092M10.2417 8.16909L8.5 8.79092M8.5 8.79092C7.86512 8.79092 7.2498 8.57125 6.75846 8.1692L8.5 8.79092ZM0.75 3.28923C0.75 2.64829 1.00461 2.0336 1.45783 1.58038C1.91104 1.12717 2.52573 0.872559 3.16667 0.872559H13.8333C14.4743 0.872559 15.089 1.12717 15.5422 1.58038C15.9954 2.0336 16.25 2.64829 16.25 3.28923V11.2892C16.25 11.9302 15.9954 12.5449 15.5422 12.9981C15.089 13.4513 14.4743 13.7059 13.8333 13.7059H3.16667C2.52573 13.7059 1.91104 13.4513 1.45783 12.9981C1.00461 12.5449 0.75 11.9302 0.75 11.2892V3.28923Z" fill="#CDCDCD" stroke="white" stroke-width="0.5"/>
</svg>
