<svg width="27" height="16" viewBox="0 0 27 16" fill="none" xmlns="http://www.w3.org/2000/svg">
<path d="M3.97023 4.77734H4.01109V5.63667L3.80682 5.77656L3.48001 5.9764L3.19404 6.19623L2.96936 6.39607L2.80595 6.53596L2.58126 6.79576L2.39742 7.05556L2.23402 7.37531L2.13189 7.69506L2.09103 7.97484V8.15469L2.15231 8.51441L2.27487 8.85415L2.41785 9.11394L2.60169 9.35375L2.82637 9.61355L3.07149 9.85336L3.35745 10.0732L3.64342 10.273L4.05194 10.5128L4.54216 10.7726L5.13452 11.0324L5.72688 11.2523L6.46221 11.4921L7.19755 11.6919L7.89204 11.8518L8.60695 11.9917L9.62826 12.1516L9.8938 12.1915L9.91422 10.9925L10.0164 11.0324L10.9968 11.552L11.9364 12.0516L12.3041 12.2515L12.8352 12.5313L13.7748 13.0309L14.2241 13.2707L14.5509 13.4505V13.5105L13.9586 13.8302L12.9373 14.3698L12.5696 14.5697L12.0385 14.8494L11.5892 15.0893L10.6496 15.5889L10.1593 15.8487L9.9755 15.9486H9.91422L9.8938 14.7096L8.87249 14.5497L8.0146 14.3898L7.13628 14.19L6.46221 14.0101L5.62475 13.7503L5.01196 13.5305L4.48089 13.3107L3.8681 13.0309L3.35745 12.7711L2.8468 12.4713L2.4587 12.2115L2.13189 11.9717L1.84592 11.7319L1.60081 11.5121L1.31484 11.2323L1.13101 11.0125L0.906321 10.7127L0.722486 10.4129L0.518226 9.99325L0.416095 9.6735L0.334391 9.25383L0.313965 9.07397V8.81418L0.354817 8.45446L0.436521 8.11473L0.559078 7.77499L0.742913 7.39529L0.926747 7.11551L1.09016 6.89568L1.27399 6.67585L1.5191 6.41606L1.76422 6.17625L1.92763 6.03636L2.25444 5.77656L2.54041 5.57672L2.78552 5.41684L3.15319 5.19701L3.62299 4.93722L3.97023 4.77734Z" fill="#F87A08"/>
<path d="M22.7014 4.75781L23.0283 4.91769L23.5185 5.17748L23.9679 5.45726L24.3151 5.69708L24.5806 5.89692L24.8053 6.07678L25.0504 6.29661L25.3977 6.63634L25.6224 6.91612L25.8266 7.1959L26.0105 7.51565L26.1739 7.85538L26.2964 8.25507L26.3577 8.57482L26.3781 8.77466V9.07443L26.3169 9.51408L26.1943 9.93375L26.0922 10.1935L25.8675 10.5932L25.6428 10.913L25.459 11.1328L25.2343 11.3726L24.8462 11.7523L24.6215 11.9322L24.2743 12.192L23.9679 12.3918L23.6206 12.6117L23.253 12.8115L22.7832 13.0513L22.2725 13.2911L21.5167 13.5909L20.6997 13.8707L20.0256 14.0705L19.3107 14.2504L18.4937 14.4302L17.5949 14.5901L16.7575 14.71L15.8179 14.8099L15.3481 14.8499H15.1029L15.0825 14.8299V12.3718L15.1029 12.3519L16.4102 12.232L17.2273 12.132L18.2077 11.9722L19.086 11.7923L19.8826 11.5925L20.618 11.3726L21.2512 11.1528L21.7823 10.933L22.2316 10.7331L22.681 10.4933L23.0078 10.2935L23.3347 10.0736L23.6002 9.85382L23.8045 9.67396L24.0087 9.47411L24.2538 9.15436L24.4581 8.77466L24.5602 8.45491L24.6011 8.11518L24.5806 7.79543L24.4989 7.49567L24.3968 7.25585L24.2334 6.95609L24.0087 6.67631L23.7636 6.41651L23.3142 6.05679L22.967 5.81698L22.7423 5.67709L22.681 5.61714V4.7778L22.7014 4.75781Z" fill="#F87A08"/>
<path d="M18.6171 2.37891H19.0461L19.475 2.43886L19.8019 2.53878L20.1287 2.69866L20.3942 2.87851L20.5985 3.05837L20.8232 3.2782L20.9661 3.47804L21.15 3.77781L21.3542 4.19748L21.4768 4.57718L21.5789 5.07679L21.6402 5.63635V6.37577L21.5789 6.9753L21.4972 7.41496L21.3951 7.79466L21.2317 8.19435L21.0683 8.49411L20.864 8.77389L20.6189 9.03369L20.4146 9.21355L20.0878 9.43337L19.7406 9.61323L19.3321 9.73314L19.1074 9.77311H18.5763L18.1882 9.71315L17.8205 9.59325L17.5346 9.45336L17.1873 9.21355L16.8401 8.87381L16.6154 8.57405L16.4316 8.2543L16.2681 7.89458L16.1252 7.43494L16.0435 7.01527L16.0026 6.69552L15.9822 6.37577V6.11598L16.0026 5.63635L16.0843 5.03682L16.2069 4.53721L16.3498 4.13753L16.5337 3.75782L16.7379 3.43808L16.9218 3.21825L17.0443 3.07836H17.0852L17.1056 3.0184L17.3303 2.83855L17.5346 2.69866L17.8614 2.53878L18.2699 2.41887L18.6171 2.37891Z" fill="#F87A08"/>
<path d="M7.17778 2.35938H7.68843L8.09695 2.41933L8.5259 2.55922L8.87314 2.73908L9.11826 2.91894L9.32252 3.0988L9.50635 3.29864L9.66976 3.55843L9.79232 3.8582L9.83317 4.07803V4.55765L9.75147 4.89738L9.64933 5.1372L9.4655 5.41698L9.24081 5.67677L9.05698 5.85663L9.01613 5.87662L8.9957 5.93657L9.09783 5.97654L9.3838 6.19637L9.50635 6.29629L9.64933 6.45616L9.83317 6.69597L9.9353 6.9158L10.017 7.19558L10.0374 7.31549V7.79511L9.97615 8.15483L9.87402 8.47458L9.73104 8.75436L9.5472 8.99417L9.34294 9.214L9.05698 9.41384L8.85272 9.53375L8.42377 9.69362L8.01525 9.77356L7.81099 9.79354H7.40247L6.95309 9.73359L6.60585 9.63367L6.25861 9.47379L5.97264 9.27395L5.7071 9.03414L5.48241 8.75436L5.31901 8.47458L5.1556 8.05491L5.05347 7.61525V7.57528H6.565L6.70798 7.97497L6.83054 8.1948L7.01437 8.39464L7.19821 8.51455L7.42289 8.5745H7.72928L7.9744 8.49456L8.1378 8.37466L8.28079 8.23477L8.40334 7.97497L8.4442 7.77513V7.53532L8.36249 7.21557L8.23994 6.99574L8.11738 6.85585L7.89269 6.69597L7.668 6.61604L7.56587 6.59605L7.07565 6.57607V5.35702L7.09607 5.33704L7.48417 5.31706L7.81099 5.23712L8.01525 5.11721L8.17866 4.97732L8.30121 4.75749L8.34207 4.59762V4.25789L8.28079 4.05804L8.15823 3.83822L7.99482 3.67834L7.74971 3.55843L7.62715 3.53845H7.40247L7.15735 3.5984L6.95309 3.71831L6.81011 3.87818L6.70798 4.07803L6.62627 4.31784L6.58542 4.53767L6.565 4.55765H5.11475L5.13517 4.31784L5.21688 3.93814L5.33943 3.61839L5.50284 3.33861L5.7071 3.07881L5.87051 2.91894L6.13605 2.71909L6.46287 2.53923L6.83054 2.41933L7.17778 2.35938Z" fill="#F87A08"/>
<path d="M18.6164 3.79688H19.0454L19.2701 3.87681L19.4948 4.03669L19.6377 4.19656L19.8011 4.45636L19.9441 4.79609L20.0463 5.19578L20.1075 5.69539V6.55471L20.0667 6.91443L19.9646 7.3341L19.842 7.65385L19.6582 7.95362L19.5152 8.11349L19.2496 8.29335L19.0045 8.37329H18.6164L18.3713 8.29335L18.1262 8.11349L17.9219 7.87368L17.7585 7.57391L17.636 7.23418L17.5543 6.83449L17.5134 6.49476V5.77532L17.5747 5.25573L17.6768 4.81608L17.7994 4.51631L17.9628 4.23653L18.1875 3.99672L18.3917 3.87681L18.6164 3.79688Z" fill="white"/>
<path fill-rule="evenodd" clip-rule="evenodd" d="M14.55 2.48047H12.6708L12.5278 2.66033L12.2623 3.04003L11.9763 3.43972L11.7516 3.75947L11.4248 4.21911L11.1797 4.59881L10.9141 5.09842L10.669 5.61801L10.4852 6.11762L10.3626 6.63721L10.3218 7.03689V7.43658L10.3831 7.87624L10.4852 8.21597L10.5873 8.4358L10.7507 8.71558L10.9754 8.99536L11.2205 9.21519L11.4248 9.37506L11.7108 9.53494L12.058 9.67483L12.4052 9.75476L12.7525 9.79473H13.1406L13.3653 9.77475L13.6921 9.71479L14.121 9.5749L14.4478 9.41503L14.7338 9.23517L14.9789 9.01534L15.2036 8.77553L15.3874 8.51574L15.5509 8.19599L15.6734 7.7963L15.7347 7.37663V6.97694L15.6734 6.61722L15.5917 6.35743L15.4283 6.01769L15.2445 5.73791L15.0402 5.51809L14.8359 5.33823L14.6317 5.17835L14.3049 4.99849L13.9372 4.87859L13.6104 4.83862H13.2631L12.8342 4.87859L12.9976 4.65876L13.7329 3.63956L13.9985 3.27984L14.2436 2.94011L14.5091 2.58039L14.55 2.48047ZM13.2453 6.05514L12.9594 6.03516L12.6938 6.07512L12.4487 6.17505L12.2444 6.31494L12.081 6.4948L11.9381 6.73461L11.8563 7.01439V7.37411L11.9176 7.59393L12.0198 7.81376L12.1423 7.97364L12.3466 8.15349L12.5917 8.2734L12.8368 8.33335H13.184L13.4496 8.25342L13.7151 8.07356L13.899 7.85373L14.0011 7.65389L14.0828 7.35412V6.9944L14.0624 6.89448L13.9807 6.65467L13.8581 6.45483L13.6743 6.27497L13.47 6.13508L13.2453 6.05514Z" fill="#F87A08"/>
<path fill-rule="evenodd" clip-rule="evenodd" d="M22.0268 0.28125H21.7L21.4957 0.341203L21.2915 0.461109L21.128 0.620984L20.9851 0.820827L20.9034 1.02067L20.8217 1.34042V1.91996L20.8421 2.01989L20.9238 2.27968L21.0463 2.51949L21.2302 2.71934L21.4549 2.87921L21.7204 2.95915H22.0064L22.1085 2.93917L22.3128 2.85923L22.517 2.71934L22.66 2.55946L22.7826 2.35962L22.8643 2.13979L22.9255 1.82004V1.40037L22.9051 1.26048L22.8438 1.04065L22.7213 0.780858L22.5783 0.581015L22.4353 0.461109L22.2311 0.341203L22.0268 0.28125ZM21.947 0.820312H21.804L21.7019 0.860281L21.5385 1.00017L21.4363 1.18003L21.3751 1.45981V1.79954L21.3955 1.91945L21.4568 2.09931L21.5793 2.29915L21.7427 2.39907L21.9061 2.41906L22.0695 2.35911L22.2125 2.2392L22.3147 2.03936L22.3759 1.75958V1.4798L22.3351 1.27995L22.2329 1.04014L22.1104 0.90025L21.947 0.820312Z" fill="#F87A08"/>
</svg>
