<svg width="55" height="55" viewBox="0 0 55 55" fill="none" xmlns="http://www.w3.org/2000/svg">
<circle cx="27.5" cy="27.1406" r="27.1406" fill="#F87A08"/>
<path d="M25.6324 15.6061C24.941 15.9252 23.684 16.627 22.8355 17.2012C21.9556 17.7436 21.0442 18.1902 20.7928 18.1902C20.51 18.1902 19.5044 17.6798 18.5616 17.0736C16.6132 15.7976 14.8848 15.6061 14.0678 16.5313C13.3764 17.3289 12.9679 19.4025 12.7479 23.4541C12.6222 25.4001 12.4965 27.2823 12.4022 27.6651C12.2765 28.3351 12.3708 28.3989 13.4707 28.3989H14.6963L14.8848 24.794C15.1676 20.0724 15.4191 18.1902 15.8276 18.1902C16.0161 18.1902 16.8646 18.6687 17.7445 19.2111C19.9443 20.6467 21.8927 20.6786 23.904 19.2749C24.6896 18.7326 25.7581 18.0626 26.3237 17.7755L27.2979 17.2331L27.9579 19.2111C28.335 20.2958 28.6178 21.2847 28.6178 21.4442C28.6178 21.7952 26.3552 23.2946 25.7895 23.2946C25.5067 23.2946 24.5325 22.7841 23.5897 22.178C21.9242 21.0933 20.1643 20.7424 19.3158 21.3166C18.4045 21.9228 17.9017 24.4749 17.4617 30.8554L17.3046 33.5032H19.8186V31.1744C19.8186 28.7817 20.3529 23.5817 20.6357 23.3265C20.73 23.2308 21.1699 23.3903 21.6413 23.6774C24.2182 25.3044 24.9724 25.5915 26.198 25.432C26.8894 25.3363 27.8636 24.9535 28.3664 24.5706C28.8692 24.1878 29.3406 23.9326 29.372 23.9964C29.4349 24.0283 29.6549 24.9854 29.8748 26.0381L30.2519 28.0161L31.2261 27.729C31.729 27.6013 32.2318 27.4099 32.2946 27.3142C32.3575 27.2504 32.2003 26.3253 31.9489 25.2725C31.3204 22.9117 31.3204 22.7841 31.9175 22.5289C32.2632 22.4013 32.546 22.8798 33.0174 24.443C33.3631 25.6234 33.6459 26.6762 33.6459 26.8357C33.6459 26.9633 33.0174 27.4737 32.2632 27.9204C30.7233 28.8136 30.2205 28.7498 28.335 27.3142C26.0409 25.5915 23.904 26.0062 23.3069 28.3351C22.9926 29.5155 22.3327 35.8959 22.3327 37.8738C22.3327 38.8628 22.3955 38.9266 23.4012 38.9266H24.4696L24.6582 36.1192C24.941 32.3867 25.381 28.7179 25.601 28.4946C25.6952 28.3989 26.5437 28.8455 27.5179 29.5155C29.592 30.983 31.3518 31.1425 33.0803 30.0578C33.7088 29.675 34.2744 29.356 34.3687 29.356C34.4316 29.356 34.6201 30.0259 34.7458 30.8235C34.8401 31.6529 35.0286 32.4824 35.0915 32.6738C35.2486 33.0885 37.0085 32.9928 37.2599 32.5462C37.3227 32.4186 37.1342 31.3658 36.8199 30.1854C36.3171 28.3032 36.2857 28.0161 36.6942 27.8566C36.9456 27.7609 37.2913 27.8566 37.417 28.0799C37.7312 28.5903 39.5854 35.6407 39.8368 37.2358C40.0253 38.3205 40.0567 38.3205 41.1566 38.1291C41.7852 38.0014 42.3194 37.8738 42.3508 37.8419C42.4765 37.7462 40.6224 30.6959 39.8996 28.5265C39.0826 26.0062 38.454 25.4001 36.8199 25.6234C35.6257 25.7829 35.5943 25.751 35.3743 24.6982C35.0601 22.9117 34.0545 20.8062 33.3631 20.4234C32.986 20.232 32.2318 20.1681 31.6661 20.2639C30.9957 20.3915 30.4719 19.8066 30.0948 18.5092C29.4977 16.4356 28.3978 15 27.4551 15C27.1408 15 26.3237 15.2871 25.6324 15.6061ZM30.7862 21.0933C31.6975 21.4123 29.6077 20.2639 29.1678 20.7424C28.9164 21.0295 28.445 22.111 28.3193 22.5895C28.0993 23.4509 30.4405 24.2197 29.6234 23.7093C29.1521 23.4222 28.7121 23.135 28.6492 23.0712C28.5864 23.0074 28.7435 22.7203 29.0264 22.4013C29.3406 22.0823 29.4663 21.7314 29.372 21.6037C29.2149 21.4442 29.4663 20.7424 29.6863 20.7424C29.7491 20.7424 30.2205 20.9019 30.7862 21.0933ZM34.4881 28.2107C34.8652 28.4659 35.3995 29.0976 34.9595 29.608C34.6767 29.927 36.3548 28.8041 36.3988 28.8041L34.9595 28.0799L35.5315 26.9474C34.6515 26.2455 33.5831 28.1437 34.1173 27.3142C34.4316 26.8676 34.5573 26.4848 34.463 26.4848C34.3373 26.4848 34.3373 26.3253 34.4316 26.1657C34.6201 25.8467 33.294 27.4131 34.4881 28.2107Z" fill="white" fill-opacity="0.89"/>
</svg>
