<svg width="33" height="46" viewBox="0 0 33 46" fill="none" xmlns="http://www.w3.org/2000/svg">
<path d="M29.9403 25.0858H29.9517C29.9517 25.0858 25.6436 31.2902 22.0211 35.9014C18.89 39.8843 17.9758 43.295 17.713 44.9442C17.6101 45.5501 17.1073 45.9988 16.5017 45.9988C15.896 45.9988 15.3932 45.5501 15.2904 44.9442C15.0275 43.295 14.1133 39.8843 10.9822 35.9014C10.5023 35.2843 10.0109 34.6448 9.51953 33.9941L21.3469 20.1942L30.8659 9.10938C31.9172 11.2747 32.5 13.6981 32.5 16.2674C32.5 19.521 31.5515 22.539 29.9403 25.0858Z" fill="#999999"/>
<path d="M21.3429 20.1934L9.51556 33.9933C6.29304 29.7524 3.04766 25.0851 3.04766 25.0851H3.05909C2.71627 24.5466 2.40773 23.9968 2.1449 23.4246L11.6525 12.3398C10.7497 13.4057 10.2126 14.7745 10.2126 16.2666C10.2126 19.6773 13.0238 22.4373 16.4977 22.4373C18.4518 22.4373 20.2002 21.5622 21.3429 20.1934Z" fill="#999999"/>
<path d="M21.5272 0.830237L11.7339 12.2516L4.23755 5.8341C7.16296 2.26632 11.5739 0 16.4991 0C18.2589 0 19.9502 0.291705 21.5272 0.830237Z" fill="#999999"/>
<path d="M11.733 12.2495L11.653 12.3393L2.14542 23.4241C1.0941 21.2587 0.499878 18.8353 0.499878 16.2661C0.499878 12.2944 1.90545 8.64811 4.23663 5.83203L11.733 12.2495Z" fill="#999999"/>
<path d="M21.3429 20.1968C22.2456 19.1309 22.7827 17.7621 22.7827 16.27C22.7827 12.8593 19.9716 10.0993 16.4977 10.0993C14.5436 10.0993 12.7952 10.9744 11.6525 12.3432L21.5257 0.832031C25.6281 2.2008 28.9878 5.21883 30.8619 9.11197L21.3429 20.1968Z" fill="#999999"/>
<circle cx="16.4999" cy="16" r="11.5" fill="#999999" stroke="white"/>
<path d="M15.6945 11.2533C15.3718 11.3867 14.7851 11.68 14.3891 11.92C13.9785 12.1467 13.5531 12.3333 13.4358 12.3333C13.3038 12.3333 12.8345 12.12 12.3945 11.8667C11.4852 11.3333 10.6785 11.2533 10.2972 11.64C9.97452 11.9733 9.78386 12.84 9.68119 14.5333C9.62253 15.3467 9.56386 16.1333 9.51986 16.2933C9.46119 16.5733 9.50519 16.6 10.0185 16.6H10.5905L10.6785 15.0933C10.8105 13.12 10.9278 12.3333 11.1185 12.3333C11.2065 12.3333 11.6025 12.5333 12.0132 12.76C13.0398 13.36 13.9491 13.3733 14.8878 12.7867C15.2545 12.56 15.7531 12.28 16.0171 12.16L16.4718 11.9333L16.7798 12.76C16.9558 13.2133 17.0878 13.6267 17.0878 13.6933C17.0878 13.84 16.0318 14.4667 15.7678 14.4667C15.6358 14.4667 15.1811 14.2533 14.7411 14C13.9638 13.5467 13.1425 13.4 12.7465 13.64C12.3212 13.8933 12.0865 14.96 11.8812 17.6267L11.8078 18.7333H12.9812V17.76C12.9812 16.76 13.2305 14.5867 13.3625 14.48C13.4065 14.44 13.6118 14.5067 13.8318 14.6267C15.0345 15.3067 15.3865 15.4267 15.9585 15.36C16.2811 15.32 16.7358 15.16 16.9704 15C17.2051 14.84 17.4251 14.7333 17.4398 14.76C17.4691 14.7733 17.5718 15.1733 17.6744 15.6133L17.8504 16.44L18.3051 16.32C18.5398 16.2667 18.7744 16.1867 18.8038 16.1467C18.8331 16.12 18.7598 15.7333 18.6424 15.2933C18.3491 14.3067 18.3491 14.2533 18.6278 14.1467C18.7891 14.0933 18.9211 14.2933 19.1411 14.9467C19.3024 15.44 19.4344 15.88 19.4344 15.9467C19.4344 16 19.1411 16.2133 18.7891 16.4C18.0704 16.7733 17.8358 16.7467 16.9558 16.1467C15.8851 15.4267 14.8878 15.6 14.6091 16.5733C14.4625 17.0667 14.1545 19.7333 14.1545 20.56C14.1545 20.9733 14.1838 21 14.6531 21H15.1518L15.2398 19.8267C15.3718 18.2667 15.5771 16.7333 15.6798 16.64C15.7238 16.6 16.1198 16.7867 16.5744 17.0667C17.5424 17.68 18.3638 17.7467 19.1704 17.2933C19.4637 17.1333 19.7277 17 19.7717 17C19.8011 17 19.8891 17.28 19.9477 17.6133C19.9917 17.96 20.0797 18.3067 20.1091 18.3867C20.1824 18.56 21.0037 18.52 21.1211 18.3333C21.1504 18.28 21.0624 17.84 20.9157 17.3467C20.6811 16.56 20.6664 16.44 20.8571 16.3733C20.9744 16.3333 21.1357 16.3733 21.1944 16.4667C21.3411 16.68 22.2064 19.6267 22.3237 20.2933C22.4117 20.7467 22.4264 20.7467 22.9397 20.6667C23.233 20.6133 23.4824 20.56 23.497 20.5467C23.5557 20.5067 22.6904 17.56 22.353 16.6533C21.9717 15.6 21.6784 15.3467 20.9157 15.44C20.3584 15.5067 20.3437 15.4933 20.2411 15.0533C20.0944 14.3067 19.6251 13.4267 19.3024 13.2667C19.1264 13.1867 18.7744 13.16 18.5104 13.2C18.1975 13.2533 17.9531 13.0089 17.7771 12.4667C17.4984 11.6 16.9851 11 16.5451 11C16.3984 11 16.0171 11.12 15.6945 11.2533ZM18.0998 13.5467C18.5251 13.68 17.5498 13.2 17.3444 13.4C17.2271 13.52 17.0071 13.972 16.9484 14.172C16.8458 14.532 17.9384 14.8533 17.5571 14.64C17.3371 14.52 17.1318 14.4 17.1024 14.3733C17.0731 14.3467 17.1464 14.2267 17.2784 14.0933C17.4251 13.96 17.4838 13.8133 17.4398 13.76C17.3664 13.6933 17.4838 13.4 17.5864 13.4C17.6158 13.4 17.8358 13.4667 18.0998 13.5467ZM19.8275 16.5213C20.0035 16.628 20.2528 16.892 20.0475 17.1053C19.9155 17.2387 20.6987 16.7693 20.7192 16.7693L20.0475 16.4667L20.3144 15.9933C19.9037 15.7 19.4051 16.4933 19.6544 16.1467C19.8011 15.96 19.8597 15.8 19.8157 15.8C19.7571 15.8 19.7571 15.7333 19.8011 15.6667C19.8891 15.5333 19.2702 16.188 19.8275 16.5213Z" fill="white" fill-opacity="0.89"/>
</svg>
