<svg width="50" height="48" viewBox="0 0 50 48" fill="none" xmlns="http://www.w3.org/2000/svg">
<path fill-rule="evenodd" clip-rule="evenodd" d="M25.05 2.23901C17.567 2.23901 11.5015 8.30456 11.5015 15.7875C11.5088 20.519 13.9798 24.8691 17.9579 27.3109C18.5956 27.7028 19.2658 28.5574 19.4127 29.2911L19.7806 31.1326C19.9349 31.9028 20.6175 32.4625 21.4023 32.4625H28.6976C29.4824 32.4625 30.165 31.9028 30.3192 31.1326L30.6871 29.2911C30.834 28.5574 31.5042 27.7028 32.142 27.312C36.12 24.8691 38.591 20.519 38.5984 15.7875C38.5984 8.30456 32.5329 2.23901 25.05 2.23901Z" fill="#FDF0EA"/>
<path fill-rule="evenodd" clip-rule="evenodd" d="M19.7058 38.9553L30.3861 39.0095L29.4763 44.4685C29.3283 45.3554 28.554 46.0109 27.6556 46.0109H22.4446C21.5463 46.0109 20.7719 45.3554 20.6239 44.4685L19.7058 38.9553Z" fill="white"/>
<path fill-rule="evenodd" clip-rule="evenodd" d="M19.3181 36.6313H30.7821C31.0583 36.6313 31.3241 36.7408 31.519 36.9367C31.7149 37.1316 31.8244 37.3973 31.8244 37.6735V38.7157C31.8244 39.2878 31.3543 39.7578 30.7821 39.7578H19.3181C19.0419 39.7578 18.7761 39.6484 18.5813 39.4525C18.3853 39.2576 18.2759 38.9918 18.2759 38.7157V37.6735C18.2759 37.1013 18.746 36.6313 19.3181 36.6313Z" fill="#FDF0EA"/>
<path fill-rule="evenodd" clip-rule="evenodd" d="M25.0502 2.23901C22.4604 2.23901 20.3604 8.30456 20.3604 15.7875C20.3624 20.519 21.218 24.8691 22.5958 27.3109C22.8157 27.7028 23.0481 28.5574 23.0992 29.2911L23.2264 31.1326C23.2795 31.9028 23.516 32.4625 23.787 32.4625H26.3133C26.5843 32.4625 26.8209 31.9028 26.874 31.1326L27.0011 29.2911C27.0522 28.5574 27.2846 27.7028 27.5045 27.312C28.8823 24.8691 29.7379 20.519 29.74 15.7875C29.74 8.30456 27.64 2.23901 25.0502 2.23901Z" fill="white"/>
<path fill-rule="evenodd" clip-rule="evenodd" d="M9.56109 31.1744C8.99409 30.6773 8.26249 30.3782 7.46313 30.3782C5.66432 30.3782 4.2063 31.8946 4.2063 33.7653C4.2063 35.636 5.66432 37.1524 7.46313 37.1524H12.0227C13.4619 37.1524 14.6282 35.9393 14.6282 34.4427C14.6282 32.9461 13.4619 31.733 12.0227 31.733C11.4662 31.733 10.9493 31.9143 10.5261 32.2239L9.56109 31.1744Z" fill="#FDF0EA"/>
<path fill-rule="evenodd" clip-rule="evenodd" d="M43.1872 24.1093C43.5843 23.7612 44.097 23.5518 44.6567 23.5518C45.9157 23.5518 46.936 24.6138 46.936 25.9227C46.936 27.2317 45.9157 28.2937 44.6567 28.2937H41.4645C40.4577 28.2937 39.6406 27.4443 39.6406 26.3969C39.6406 25.3495 40.4577 24.5001 41.4645 24.5001C41.8543 24.5001 42.2159 24.6273 42.5119 24.844L43.1872 24.1093Z" fill="white"/>
<path fill-rule="evenodd" clip-rule="evenodd" d="M18.9512 40.7676L19.5964 44.6403C19.8277 46.0265 21.0387 47.053 22.4446 47.053H27.6556C29.0615 47.053 30.2726 46.0265 30.5039 44.6403L31.149 40.7666C32.1203 40.5915 32.8666 39.7337 32.8666 38.7155V37.6733C32.8666 37.121 32.6466 36.5905 32.2558 36.1997C31.865 35.8088 31.3345 35.589 30.7821 35.589H30.2611V33.0023C30.8051 32.6146 31.2032 32.0278 31.3408 31.3368L31.7097 29.4953C31.8066 29.0107 32.2662 28.4583 32.6873 28.1998C36.9717 25.5694 39.6335 20.8848 39.6407 15.7895V15.7874C39.6407 7.72917 33.1083 1.19678 25.0501 1.19678C16.9919 1.19678 10.4595 7.72917 10.4595 15.7874V15.7884C10.4606 16.2616 10.4835 16.7296 10.5293 17.1943C10.5856 17.7665 11.0952 18.1855 11.6685 18.1292C12.2406 18.0729 12.6596 17.5633 12.6033 16.9901C12.5647 16.593 12.5449 16.1918 12.5439 15.7863C12.5439 10.046 16.4114 5.21024 21.6828 3.73972C20.2863 6.2493 19.3181 10.7015 19.3181 15.7874V15.7884C19.3212 20.7326 20.2488 25.2713 21.687 27.8236C21.859 28.1269 22.0195 28.7939 22.0591 29.3629L22.1862 31.2045C22.1914 31.2785 22.1987 31.3504 22.206 31.4203H21.4025C21.1117 31.4203 20.8595 31.2138 20.8032 30.9283L20.4353 29.0868C20.2383 28.104 19.3577 26.9482 18.5031 26.4229C16.7783 25.3641 15.3599 23.9154 14.3406 22.225C14.0436 21.732 13.4016 21.5737 12.9096 21.8707C12.4167 22.1677 12.2583 22.8086 12.5553 23.3016C13.7445 25.2734 15.3995 26.9638 17.413 28.1998C17.834 28.4583 18.2936 29.0107 18.3906 29.4953L18.7595 31.3368C18.8971 32.0278 19.2951 32.6146 19.8392 33.0023V35.589H19.3181C18.1748 35.589 17.2337 36.5301 17.2337 37.6733V38.7155C17.2337 39.2679 17.4536 39.7983 17.8445 40.1892C18.1477 40.4924 18.5344 40.6926 18.9512 40.7676ZM29.0313 40.7999H28.6634C28.0881 40.7999 27.6212 40.333 27.6212 39.7578C27.6212 39.1824 28.0881 38.7155 28.6634 38.7155H30.7821V37.7568C30.7155 37.74 30.6206 37.6733 30.7821 37.6733H19.3181V38.6322C19.3848 38.6488 19.4796 38.7155 19.3181 38.7155H25.3148C25.8891 38.7155 26.3571 39.1824 26.3571 39.7578C26.3571 40.333 25.8891 40.7999 25.3148 40.7999H21.069L21.6526 44.2975C21.7161 44.6831 22.0538 44.9687 22.4446 44.9687H27.6556C28.0464 44.9687 28.3841 44.6831 28.4476 44.2975L29.0313 40.7999ZM24.008 35.589V33.5046H21.9236V35.589H24.008ZM28.1767 35.589V33.5046H26.0923V35.589H28.1767ZM25.0501 3.28115C25.3221 3.28115 25.565 3.44582 25.8099 3.68135C26.1996 4.0555 26.553 4.60994 26.8771 5.29779C27.9943 7.6625 28.6978 11.4821 28.6978 15.7874C28.6957 20.3063 27.912 24.4668 26.5967 26.7992C26.3268 27.2796 26.0236 28.3197 25.9621 29.2191L25.8338 31.0607C25.8266 31.1753 25.8026 31.3056 25.7766 31.4203H24.3237C24.2976 31.3056 24.2737 31.1753 24.2664 31.0607L24.1382 29.2191C24.0767 28.3197 23.7735 27.2796 23.5036 26.7992C22.1883 24.4668 21.4046 20.3063 21.4025 15.7874C21.4025 11.4821 22.106 7.6625 23.2231 5.29779C23.5473 4.60994 23.9006 4.0555 24.2904 3.68135C24.5353 3.44582 24.7781 3.28115 25.0501 3.28115ZM28.4175 3.73972C29.814 6.2493 30.7821 10.7015 30.7821 15.7874V15.7884C30.7801 20.7326 29.8515 25.2713 28.4132 27.8236C28.2413 28.1269 28.0808 28.7939 28.0412 29.3629L27.9141 31.2045C27.9088 31.2785 27.9016 31.3504 27.8942 31.4203H28.6978C28.9886 31.4203 29.2407 31.2138 29.2971 30.9283L29.665 29.0868C29.8619 28.104 30.7426 26.9482 31.5961 26.4229C35.2688 24.1687 37.5491 20.1542 37.5564 15.7863C37.5564 10.047 33.6888 5.21024 28.4175 3.73972Z" fill="#6CC383"/>
<path fill-rule="evenodd" clip-rule="evenodd" d="M10.3291 30.4699C10.303 30.4417 10.2769 30.4156 10.2489 30.3906C9.49636 29.7319 8.52403 29.3359 7.46308 29.3359C5.10045 29.3359 3.16406 31.3078 3.16406 33.7652C3.16406 36.2227 5.10045 38.1945 7.46308 38.1945H12.0226C14.0257 38.1945 15.6703 36.5259 15.6703 34.4426C15.6703 32.3593 14.0257 30.6908 12.0226 30.6908C11.5745 30.6908 11.1451 30.7741 10.748 30.9263L10.3291 30.4699ZM8.83561 31.9247L9.75903 32.9294C10.1175 33.3202 10.7126 33.3785 11.1409 33.0659C11.3911 32.8835 11.6944 32.7751 12.0226 32.7751C12.8981 32.7751 13.5859 33.5328 13.5859 34.4426C13.5859 35.3524 12.8981 36.1101 12.0226 36.1101H7.46308C6.22809 36.1101 5.24844 35.0492 5.24844 33.7652C5.24844 32.4813 6.22809 31.4203 7.46308 31.4203C7.98105 31.4203 8.45736 31.6089 8.83253 31.9226L8.83561 31.9247Z" fill="#6CC383"/>
<path fill-rule="evenodd" clip-rule="evenodd" d="M42.5003 23.3256L42.2637 23.5736C42.0105 23.4986 41.7416 23.4579 41.4644 23.4579C39.8928 23.4579 38.5984 24.7628 38.5984 26.3969C38.5984 28.0311 39.8928 29.3359 41.4644 29.3359H44.6566C46.4794 29.3359 47.9781 27.8184 47.9781 25.9228C47.9781 24.027 46.4794 22.5095 44.6566 22.5095C43.8354 22.5095 43.0819 22.8149 42.5003 23.3256ZM43.9136 24.8597C44.1188 24.694 44.3762 24.5939 44.6566 24.5939C45.3507 24.5939 45.8937 25.1994 45.8937 25.9228C45.8937 26.646 45.3507 27.2515 44.6566 27.2515H41.4644C41.0215 27.2515 40.6827 26.8576 40.6827 26.3969C40.6827 25.9363 41.0215 25.5424 41.4644 25.5424C41.6259 25.5424 41.775 25.5954 41.8969 25.6851C42.3252 25.9988 42.9203 25.9394 43.2799 25.5496L43.9104 24.8618L43.9136 24.8597Z" fill="#6CC383"/>
<path d="M12.1625 20.9656C12.7384 20.9656 13.2051 20.4988 13.2051 19.923C13.2051 19.3471 12.7384 18.8804 12.1625 18.8804C11.5867 18.8804 11.1199 19.3471 11.1199 19.923C11.1199 20.4988 11.5867 20.9656 12.1625 20.9656Z" fill="#6CC383"/>
</svg>
