<svg width="48" height="48" viewBox="0 0 48 48" fill="none" xmlns="http://www.w3.org/2000/svg">
<path d="M41 3.9248C43.7909 3.9248 46.0752 6.20906 46.0752 9V41C46.0752 43.7909 43.7909 46.0752 41 46.0752H9C6.20906 46.0752 3.9248 43.7909 3.9248 41V9C3.9248 6.20906 6.20906 3.9248 9 3.9248H41ZM9 6.0752C7.37294 6.0752 6.0752 7.37294 6.0752 9V41C6.0752 42.6271 7.37294 43.9248 9 43.9248H41C42.6271 43.9248 43.9248 42.6271 43.9248 41V9C43.9248 7.37294 42.6271 6.0752 41 6.0752H9ZM17 18.9248C17.2851 18.9248 17.5582 19.0386 17.7598 19.2402C17.9614 19.4418 18.0752 19.7149 18.0752 20V39C18.0752 39.2851 17.9614 39.5582 17.7598 39.7598C17.5582 39.9614 17.2851 40.0752 17 40.0752H11C10.7149 40.0752 10.4418 39.9614 10.2402 39.7598C10.0386 39.5582 9.92483 39.2851 9.9248 39V20L9.93066 19.8936C9.95516 19.6476 10.0639 19.4166 10.2402 19.2402C10.4418 19.0386 10.7149 18.9248 11 18.9248H17ZM26 18.9248C26.2851 18.9248 26.5582 19.0386 26.7598 19.2402C26.9614 19.4418 27.0752 19.7149 27.0752 20V20.29C28.1895 19.5912 29.764 18.9248 31.8125 18.9248C34.0417 18.9248 36.1541 19.7113 37.6738 21.3154C39.1935 22.9195 40.0752 25.2856 40.0752 28.2617V39C40.0752 39.2851 39.9614 39.5582 39.7598 39.7598C39.5582 39.9614 39.2851 40.0752 39 40.0752H33C32.7149 40.0752 32.4418 39.9614 32.2402 39.7598C32.0386 39.5582 31.9248 39.2851 31.9248 39V29C31.9248 28.1778 31.7067 27.4004 31.3242 26.8867C31.132 26.6286 30.9113 26.4208 30.6211 26.2744C30.3306 26.1279 29.9658 26.0406 29.4814 26.0322C29.0122 26.0239 28.6596 26.0994 28.3779 26.2393C28.0966 26.379 27.8799 26.5861 27.6855 26.8496C27.299 27.3737 27.0752 28.1816 27.0752 29V39C27.0752 39.2851 26.9614 39.5582 26.7598 39.7598C26.5582 39.9614 26.2851 40.0752 26 40.0752H20C19.7149 40.0752 19.4418 39.9614 19.2402 39.7598C19.0386 39.5582 18.9248 39.2851 18.9248 39V20L18.9307 19.8936C18.9552 19.6476 19.0639 19.4166 19.2402 19.2402C19.4418 19.0386 19.7149 18.9248 20 18.9248H26ZM21.0752 37.9248H24.9248V29C24.9248 27.8184 25.2112 26.5826 25.9551 25.5742C26.7012 24.5629 27.9722 23.8545 29.5186 23.8818C31.0553 23.9083 32.3062 24.6017 33.0508 25.6016C33.7932 26.5986 34.0752 27.8222 34.0752 29V37.9248H37.9248V28.2617C37.9248 25.7027 37.1958 23.9365 36.1133 22.7939C35.0309 21.6515 33.5484 21.0752 31.8125 21.0752C30.1076 21.0752 28.8683 21.6099 28.0557 22.1436C27.6492 22.4105 27.3493 22.6774 27.1514 22.877C27.0526 22.9766 26.9791 23.0595 26.9307 23.1172C26.9064 23.146 26.8878 23.1685 26.876 23.1836C26.8701 23.1912 26.8661 23.1974 26.8633 23.2012C26.862 23.2029 26.861 23.2042 26.8604 23.2051L26.8584 23.207C26.7228 23.387 26.5345 23.52 26.3193 23.5869C26.1041 23.6538 25.8729 23.6515 25.6592 23.5801C25.4454 23.5086 25.2597 23.3714 25.1279 23.1885C24.9962 23.0056 24.9249 22.786 24.9248 22.5605V21.0752H21.0752V37.9248ZM12.0752 37.9248H15.9248V21.0752H12.0752V37.9248ZM14 13.0635C13.3098 13.0635 12.8133 13.2662 12.5088 13.5225C12.2051 13.7781 12.0635 14.0722 12.0635 14.4668C12.0635 14.8648 12.2121 15.229 12.5234 15.4951C12.8359 15.7621 13.3195 15.9365 14 15.9365C14.7199 15.9365 15.1972 15.7734 15.4951 15.5166C15.7899 15.2624 15.9197 14.9071 15.9268 14.4971C15.8977 14.0707 15.7513 13.716 15.4521 13.4668C15.1515 13.2165 14.6858 13.0635 14 13.0635ZM18.0586 14.6514C17.9533 16.5447 16.2344 18.0635 14 18.0635H13.999C13.8883 18.0619 13.7787 18.0423 13.6738 18.0068C11.5904 17.8558 9.93652 16.379 9.93652 14.4668C9.93652 13.4616 10.3955 12.5233 11.1416 11.8955C11.887 11.2685 12.8903 10.9365 14 10.9365C16.2234 10.9365 17.9568 12.4633 18.0615 14.4092L18.0635 14.4658V14.4668L18.0586 14.6514Z" fill="#2D3130" stroke="#2D3130" stroke-width="0.15"/>
</svg>
