<svg width="37" height="36" viewBox="0 0 37 36" fill="none" xmlns="http://www.w3.org/2000/svg">
<path fill-rule="evenodd" clip-rule="evenodd" d="M15.4154 4.875H21.5846C24.3413 4.87498 26.5247 4.87496 28.2335 5.1047C29.9922 5.34114 31.4156 5.83932 32.5381 6.96187C33.6607 8.08441 34.1589 9.50783 34.3953 11.2665C34.625 12.9753 34.625 15.1587 34.625 17.9154V18.0846C34.625 20.8413 34.625 23.0247 34.3953 24.7335C34.1589 26.4922 33.6607 27.9156 32.5381 29.0381C31.4156 30.1607 29.9922 30.6589 28.2335 30.8953C26.5247 31.125 24.3413 31.125 21.5846 31.125H15.4154C12.6587 31.125 10.4753 31.125 8.76647 30.8953C7.00783 30.6589 5.58441 30.1607 4.46187 29.0381C3.33932 27.9156 2.84114 26.4922 2.6047 24.7335C2.37496 23.0247 2.37498 20.8413 2.375 18.0846V17.9154C2.37498 15.1587 2.37496 12.9753 2.6047 11.2665C2.84114 9.50783 3.33932 8.08441 4.46187 6.96187C5.58441 5.83932 7.00783 5.34114 8.76647 5.1047C10.4753 4.87496 12.6587 4.87498 15.4154 4.875ZM9.06627 7.33464C7.55714 7.53754 6.68767 7.91804 6.05286 8.55286C5.41804 9.18767 5.03754 10.0571 4.83464 11.5663C4.62739 13.1078 4.625 15.1398 4.625 18C4.625 20.8602 4.62739 22.8922 4.83464 24.4337C5.03754 25.9429 5.41804 26.8123 6.05286 27.4471C6.68767 28.082 7.55714 28.4625 9.06627 28.6654C10.6078 28.8726 12.6398 28.875 15.5 28.875H21.5C24.3602 28.875 26.3922 28.8726 27.9337 28.6654C29.4429 28.4625 30.3123 28.082 30.9471 27.4471C31.582 26.8123 31.9625 25.9429 32.1654 24.4337C32.3726 22.8922 32.375 20.8602 32.375 18C32.375 15.1398 32.3726 13.1078 32.1654 11.5663C31.9625 10.0571 31.582 9.18767 30.9471 8.55286C30.3123 7.91804 29.4429 7.53754 27.9337 7.33464C26.3922 7.12739 24.3602 7.125 21.5 7.125H15.5C12.6398 7.125 10.6078 7.12739 9.06627 7.33464ZM8.63575 11.2798C9.03351 10.8025 9.7429 10.738 10.2202 11.1358L13.4586 13.8344C14.858 15.0006 15.8296 15.8076 16.6499 16.3352C17.4439 16.8459 17.9824 17.0173 18.5 17.0173C19.0176 17.0173 19.5561 16.8459 20.3501 16.3352C21.1704 15.8076 22.142 15.0006 23.5415 13.8344L26.7798 11.1358C27.2571 10.738 27.9665 10.8025 28.3643 11.2798C28.762 11.7571 28.6975 12.4665 28.2202 12.8643L24.9255 15.6099C23.5959 16.7178 22.5183 17.6159 21.5672 18.2276C20.5765 18.8648 19.6116 19.2673 18.5 19.2673C17.3884 19.2673 16.4235 18.8648 15.4328 18.2276C14.4817 17.6159 13.4041 16.7179 12.0745 15.6099L8.77979 12.8643C8.30248 12.4665 8.23799 11.7571 8.63575 11.2798Z" fill="#A9ACAA"/>
</svg>
