<svg width="48" height="42" viewBox="0 0 48 42" fill="none" xmlns="http://www.w3.org/2000/svg">
<path d="M22.9409 6.5879C20.1158 6.56568 17.5017 7.53339 15.6735 9.27814C13.8454 11.0229 12.953 13.4018 13.1927 15.8915C13.6919 21.076 19.2163 31.9239 25.7746 36.02C26.3997 26.9535 34.3445 20.876 34.4967 16.0593C34.6598 10.9129 28.8242 6.63469 22.9409 6.5879Z" fill="#647B3B" fill-opacity="0.2"/>
<path d="M27.6967 16.7019C29.2738 15.7822 29.5294 13.9411 28.2675 12.5895C27.0056 11.238 24.7042 10.8879 23.1271 11.8075C21.55 12.7271 21.2944 14.5683 22.5563 15.9198C23.8182 17.2714 26.1196 17.6215 27.6967 16.7019Z" fill="white"/>
<path d="M13.8399 39.951C14.8729 39.3486 15.0402 38.1427 14.2137 37.2575C13.3873 36.3723 11.8799 36.143 10.8469 36.7453C9.81394 37.3476 9.64657 38.5536 10.4731 39.4388C11.2996 40.324 12.8069 40.5533 13.8399 39.951Z" fill="#647B3B" fill-opacity="0.2"/>
<path opacity="0.2" d="M27.8205 12.5529C28.2819 12.7151 28.7041 12.946 29.0626 13.2319C29.4211 13.5179 29.7086 13.8533 29.9084 14.2185C30.1082 14.5838 30.2162 14.9716 30.2263 15.3593C30.2363 15.7471 30.1482 16.127 29.9669 16.4769C29.7856 16.8269 29.5149 17.1399 29.1705 17.3977C28.8262 17.6555 28.415 17.8529 27.961 17.9784C27.507 18.1039 27.0193 18.1551 26.5263 18.1289C26.0334 18.1026 25.5449 17.9995 25.0895 17.8256C25.9702 17.9127 26.8391 17.7517 27.5408 17.3714C28.2426 16.9912 28.7313 16.4165 28.9194 15.7502C29.1076 15.084 28.9829 14.3696 28.5677 13.7351C28.1526 13.1006 27.4741 12.5873 26.6536 12.2872C27.0537 12.3265 27.4477 12.4162 27.8203 12.5528L27.8205 12.5529Z" fill="#222222"/>
<path opacity="0.2" d="M34.3498 16.5599C34.1228 21.2861 25.8627 27.225 25.0881 36.1203C24.4584 35.7362 23.8597 35.3159 23.2967 34.8627C24.5172 26.4596 32.2347 20.7609 32.4535 16.194C32.6497 12.1068 28.7971 8.56589 24.1138 7.32966C29.6027 8.00409 34.5719 11.9318 34.3498 16.5599Z" fill="#222222"/>
</svg>
