<svg width="46" height="47" viewBox="0 0 46 47" fill="none" xmlns="http://www.w3.org/2000/svg">
<path d="M20.8168 32.7919L20.5732 46.7262C19.9945 46.1932 19.4158 45.6602 18.8371 45.1424C18.2584 44.6246 17.634 44.0764 17.0401 43.5434L17.0096 43.5129C15.1061 41.8378 13.2177 40.1626 11.3141 38.4874C11.1618 38.3504 11.0095 38.2286 10.8572 38.0915C9.63892 37.0103 8.42062 35.9442 7.18709 34.863C6.41042 34.1777 5.64898 33.5076 4.87232 32.8223C3.9129 31.9543 2.95349 31.0863 2.02454 30.1878C2.81643 28.5126 4.82663 26.944 9.88258 26.7004C10.2938 26.6852 10.7354 26.6699 11.1923 26.6699C11.6491 26.6699 12.0908 26.6852 12.5019 26.7004C20.2991 27.0506 20.8625 30.6446 20.8168 32.7919Z" fill="white"/>
<path d="M20.5733 47.0001C20.4971 47.0001 20.4362 46.9697 20.3753 46.924C19.7052 46.2996 19.1418 45.7818 18.6392 45.3402C18.3346 45.0813 18.0301 44.8072 17.7407 44.5483L16.8422 43.7564L16.8118 43.7259C14.9082 42.0508 13.0198 40.3756 11.1162 38.7004L10.7964 38.4263L10.6593 38.3045L8.05521 36.0202L6.97397 35.076C6.19731 34.3907 5.43587 33.7206 4.6592 33.0353L4.64397 33.0201C3.57796 32.0607 2.649 31.2079 1.79619 30.3855C1.70482 30.2942 1.68959 30.1723 1.73527 30.0505C2.78606 27.8271 5.51201 26.6088 9.83698 26.3956C10.7355 26.3499 11.6035 26.3499 12.4868 26.3956C21.2129 26.7915 21.1215 31.2993 21.091 32.7917L20.8474 46.7412C20.8474 46.8478 20.7712 46.9544 20.6799 47.0001C20.6494 47.0001 20.619 47.0001 20.5733 47.0001ZM17.2229 43.3148L18.1214 44.1067C18.426 44.3808 18.7154 44.6397 19.0199 44.8986C19.4159 45.2488 19.8271 45.6143 20.2991 46.0559L20.5276 32.7612C20.5733 30.4312 19.7814 27.2941 12.4716 26.9591C11.5883 26.9286 10.7507 26.9286 9.86744 26.9591C5.89273 27.1418 3.36475 28.1926 2.34443 30.0962C3.15155 30.8576 4.03482 31.68 5.03992 32.5785L5.05515 32.5937C5.80136 33.2638 6.57802 33.9491 7.35469 34.6191L8.43593 35.5633L11.0401 37.8476L11.1771 37.9695C11.2837 38.0608 11.3903 38.1522 11.4969 38.2588C13.4005 39.934 15.3041 41.6091 17.1925 43.2843L17.0402 43.528L17.2229 43.3148Z" fill="#222222"/>
<path d="M12.4868 26.8525L12.4715 27.0505C12.4715 27.0657 12.4715 27.0657 12.4715 27.081L11.2989 38.4873C11.1466 38.3503 10.9943 38.2284 10.842 38.0914L9.8674 27.0353L9.85217 26.8525H12.4868Z" fill="white"/>
<path d="M11.2988 38.7467C11.2378 38.7467 11.1769 38.7163 11.1312 38.6858C11.0246 38.5944 10.918 38.503 10.8114 38.4117L10.6744 38.2898C10.6287 38.2442 10.5982 38.1832 10.583 38.1223L9.59314 26.8835C9.59314 26.8074 9.60837 26.7464 9.65405 26.6855C9.69974 26.6398 9.77588 26.6094 9.85203 26.6094H12.4866C12.5628 26.6094 12.6237 26.6398 12.6846 26.6855C12.7303 26.7464 12.7607 26.8074 12.7455 26.8835L12.7303 27.0815C12.7303 27.0967 12.7303 27.1119 12.7303 27.1272L11.5729 38.5183C11.5577 38.6096 11.4967 38.701 11.4054 38.7315C11.3597 38.7315 11.3292 38.7467 11.2988 38.7467ZM10.1414 27.1119L11.1008 37.9396L12.1973 27.1119H10.1414Z" fill="#222222"/>
<path d="M9.85217 25.3447H12.4868V27.3854C12.4868 27.7052 12.2279 27.9793 11.8928 27.9793H10.4461C10.1263 27.9793 9.85217 27.7204 9.85217 27.3854V25.3447Z" fill="white"/>
<path d="M11.375 28.2538H10.979C10.2024 28.2538 9.578 27.6294 9.578 26.8528V25.3299C9.578 25.1776 9.69983 25.0405 9.86735 25.0405H12.5019C12.6542 25.0405 12.7913 25.1624 12.7913 25.3299V26.8528C12.776 27.6294 12.1364 28.2538 11.375 28.2538ZM10.1415 25.6344V26.868C10.1415 27.3248 10.507 27.6903 10.9638 27.6903H11.3598C11.8166 27.6903 12.1821 27.3248 12.1821 26.868V25.6344H10.1415Z" fill="#222222"/>
<path d="M2.08549 18.0352C0.867192 17.5783 0.943336 16.6342 0.760591 15.4463C0.577846 14.2585 0.471243 13.0706 0.425557 11.8676C0.379871 10.5122 0.425557 9.11114 0.943336 7.84715C1.6134 6.21768 2.92308 5.16689 4.67438 5.31918C4.6287 2.92826 6.0602 0.674402 8.60341 0.537343C12.6847 0.324141 15.0299 4.6948 17.3143 4.37499C19.5986 4.05519 20.2077 3.03486 20.2077 3.03486C20.2077 3.03486 21.5631 5.36486 19.7204 7.64918C19.7204 7.64918 21.5174 7.1314 21.7306 9.52232C21.9438 11.9132 20.5123 18.2789 20.5123 18.2789L18.8828 17.9895C18.1975 17.8677 17.3447 18.0352 16.6594 18.0504L11.5578 18.2179C8.99936 18.2789 4.85713 19.086 2.08549 18.0352Z" fill="#648A33"/>
<path d="M5.75554 18.8578C4.41541 18.8578 3.0905 18.7207 1.9788 18.3095C0.775731 17.8527 0.653901 16.939 0.53207 15.9795C0.516842 15.8273 0.486384 15.6597 0.471155 15.4922C0.28841 14.2892 0.166579 13.0861 0.136121 11.883C0.0904351 10.6038 0.120894 9.09614 0.684358 7.74078C1.38488 6.01993 2.75547 5.01483 4.36972 5.01483H4.38495C4.46109 2.70006 5.87737 0.400516 8.58809 0.248228C10.9638 0.126398 12.8065 1.51222 14.2837 2.62392C15.4106 3.49196 16.3852 4.20771 17.2685 4.10111C19.3548 3.79653 19.9488 2.89803 19.9488 2.89803C20.0249 2.76097 20.2076 2.71529 20.3447 2.80666C20.3904 2.83712 20.4208 2.86758 20.4361 2.89803C20.4513 2.92849 21.6848 5.09098 20.2838 7.32961C20.5731 7.36006 20.8472 7.45144 21.0909 7.61895C21.6087 7.96921 21.9133 8.60882 21.9894 9.50732C22.2026 11.9135 20.832 18.0811 20.7711 18.3552C20.7406 18.5075 20.5884 18.5989 20.4361 18.5684L18.8066 18.2791C18.3345 18.2182 17.8472 18.2334 17.3751 18.2943C17.1162 18.3096 16.8725 18.34 16.6441 18.3552L11.5425 18.5075C10.9029 18.5228 10.1567 18.5989 9.36476 18.6598C8.26829 18.7512 7.0043 18.8578 5.75554 18.8578ZM4.35449 5.5783C2.95344 5.5783 1.82651 6.43111 1.20214 7.93876C0.684357 9.20275 0.6539 10.619 0.699587 11.8526C0.745273 13.0404 0.851874 14.2282 1.03462 15.4009C1.06508 15.5684 1.08031 15.7359 1.09553 15.9034C1.21736 16.8628 1.29351 17.4263 2.17678 17.7613C4.18697 18.5228 7.03476 18.2639 9.3343 18.0659C10.1262 17.9897 10.8876 17.9288 11.5425 17.8984L16.6441 17.7461C16.8573 17.7309 17.0857 17.7156 17.3446 17.7004C17.8776 17.6547 18.4411 17.5938 18.9284 17.6852C19.0198 17.7004 19.3091 17.7461 20.2838 17.9288C20.5579 16.6953 21.6239 11.5784 21.4412 9.53778C21.3803 8.82203 21.1518 8.3347 20.7863 8.07582C20.4818 7.89307 20.1315 7.83216 19.7812 7.92353C19.6594 7.95399 19.5376 7.9083 19.4614 7.8017C19.3853 7.6951 19.4005 7.55804 19.4767 7.46666C20.4056 6.37019 20.6493 4.86254 20.1163 3.53764C19.7203 3.90313 18.8827 4.43614 17.3446 4.64934C16.2177 4.81686 15.1517 4.00973 13.9334 3.08078C12.4562 1.96908 10.7963 0.705091 8.61855 0.811692C6.15149 0.948751 4.91795 3.17215 4.96364 5.28895C4.96364 5.36509 4.93319 5.45647 4.87227 5.50215C4.81136 5.56307 4.73521 5.5783 4.65907 5.5783C4.55246 5.5783 4.44586 5.5783 4.35449 5.5783Z" fill="#222222"/>
<path d="M3.65402 20.7157C5.067 20.7157 6.21245 19.727 6.21245 18.5075C6.21245 17.2879 5.067 16.2993 3.65402 16.2993C2.24103 16.2993 1.09558 17.2879 1.09558 18.5075C1.09558 19.727 2.24103 20.7157 3.65402 20.7157Z" fill="white"/>
<path d="M3.65381 20.9897C2.08525 20.9897 0.80603 19.878 0.80603 18.4921C0.80603 17.1063 2.08525 15.9946 3.65381 15.9946C5.22238 15.9946 6.50159 17.1063 6.50159 18.4921C6.50159 19.878 5.22238 20.9897 3.65381 20.9897ZM3.65381 16.5886C2.40505 16.5886 1.38472 17.4414 1.38472 18.5074C1.38472 19.5734 2.40505 20.4262 3.65381 20.4262C4.90257 20.4262 5.9229 19.5734 5.9229 18.5074C5.9229 17.4414 4.90257 16.5886 3.65381 16.5886Z" fill="#222222"/>
<path d="M18.5478 20.7157C19.9608 20.7157 21.1062 19.727 21.1062 18.5075C21.1062 17.2879 19.9608 16.2993 18.5478 16.2993C17.1348 16.2993 15.9894 17.2879 15.9894 18.5075C15.9894 19.727 17.1348 20.7157 18.5478 20.7157Z" fill="white"/>
<path d="M18.5479 20.9897C16.9793 20.9897 15.7001 19.878 15.7001 18.4921C15.7001 17.1063 16.9793 15.9946 18.5479 15.9946C20.1164 15.9946 21.3956 17.1063 21.3956 18.4921C21.3956 19.878 20.1164 20.9897 18.5479 20.9897ZM18.5479 16.5886C17.2991 16.5886 16.2788 17.4414 16.2788 18.5074C16.2788 19.5734 17.2991 20.4262 18.5479 20.4262C19.7966 20.4262 20.8169 19.5734 20.8169 18.5074C20.8169 17.4414 19.8118 16.5886 18.5479 16.5886Z" fill="#222222"/>
<path d="M11.1617 25.6801C6.89764 25.6801 3.45593 22.2232 3.45593 17.9744V12.3702C3.9128 13.1164 5.40521 12.8118 7.59816 9.05029C15.8065 13.2077 18.8827 10.8321 18.8827 10.8321V17.9744C18.8827 22.2384 15.4257 25.6801 11.1617 25.6801Z" fill="white"/>
<path d="M11.1617 25.9691C6.74539 25.9691 3.16663 22.3904 3.16663 17.974V12.3698C3.16663 12.248 3.258 12.1262 3.37983 12.0957C3.50166 12.0653 3.63872 12.1109 3.69963 12.2175C3.77578 12.3394 3.89761 12.4155 4.0499 12.4003C4.33924 12.4003 5.46617 12.1414 7.33931 8.89768C7.41545 8.76062 7.58297 8.71493 7.72003 8.79108C11.8623 10.8926 14.6339 11.2581 16.2329 11.2125C17.9385 11.1515 18.7 10.6033 18.7 10.6033C18.8218 10.5119 19.0045 10.5424 19.0959 10.6642C19.1264 10.7099 19.1568 10.7708 19.1568 10.8317V17.974C19.1568 22.3904 15.5781 25.9691 11.1617 25.9691ZM3.74532 12.9485V17.974C3.74532 22.0706 7.08042 25.1163 11.1617 25.1163C15.243 25.1163 18.5934 22.0706 18.5934 17.974V11.3191C17.4664 11.8368 14.1618 12.644 7.7048 9.43069C6.33421 11.715 5.05499 12.979 4.0499 12.979C3.95852 12.9942 3.85192 12.979 3.74532 12.9485Z" fill="#222222"/>
<path d="M4.85706 32.8073L4.79614 31.3301C4.81137 31.7869 4.8266 32.2895 4.85706 32.8073Z" fill="white"/>
<path d="M4.8571 33.0968C4.79618 33.0968 4.72004 33.0663 4.67435 33.0359C4.59821 32.975 4.56775 32.8988 4.56775 32.8075L4.50684 31.3455C4.50684 31.1932 4.6439 31.0562 4.79618 31.0562C4.94847 31.0562 5.0703 31.1628 5.08553 31.315L5.16167 32.7922C5.16167 32.9141 5.10076 33.0207 4.99416 33.0663C4.93324 33.0968 4.88756 33.0968 4.8571 33.0968Z" fill="#222222"/>
<path d="M16.9944 43.5128L17.436 33.7969C17.299 36.7513 17.1619 40.2996 17.0248 43.5281L16.9944 43.5128Z" fill="white"/>
<path d="M17.5426 31.8169L17.4817 33.2484C17.4969 32.7611 17.5121 32.2738 17.5426 31.8169Z" fill="white"/>
<path d="M17.8167 31.8325C17.8319 31.6802 17.7253 31.5279 17.5578 31.5127C17.3903 31.4974 17.2532 31.604 17.238 31.7716C17.238 31.7868 17.238 31.7868 17.238 31.802L17.2228 32.1675C17.2075 32.4873 17.1771 33.3554 17.1618 33.7665V33.7818L16.7202 43.4977C16.7202 43.5891 16.7659 43.6805 16.8268 43.7414L16.8573 43.7718C16.903 43.8023 16.9639 43.8327 17.0248 43.8327C17.0705 43.8327 17.1162 43.8175 17.1466 43.8023C17.238 43.7566 17.2989 43.6652 17.3141 43.5586C17.3903 41.8835 17.4664 40.1169 17.5273 38.3809C17.5883 36.8275 17.6492 35.3046 17.7101 33.9036V33.8884L17.8167 31.8325Z" fill="#222222"/>
<path d="M11.1465 19.4361C10.8876 19.4361 10.6288 19.4209 10.3699 19.3752C10.2176 19.3448 10.111 19.1925 10.1567 19.025C10.1871 18.8727 10.3242 18.7813 10.4765 18.7965C10.8572 18.8574 11.2379 18.8727 11.6034 18.8117C11.6186 18.5529 11.3293 17.7457 10.9333 16.9843C10.8572 16.8472 10.9181 16.6645 11.0552 16.5883C11.1922 16.5122 11.375 16.5731 11.4511 16.7102C11.7252 17.2432 12.3648 18.5529 12.1212 19.0706C12.0603 19.2077 11.9537 19.2991 11.8014 19.3295C11.5882 19.4057 11.375 19.4361 11.1465 19.4361Z" fill="#222222"/>
<path d="M13.842 21.2793C13.842 21.2793 11.7252 22.3453 8.84692 21.2793H13.842Z" fill="white"/>
<path d="M45.1371 28.9698C44.5736 29.5485 43.9949 30.1119 43.4162 30.6449C42.8375 31.1779 42.2436 31.7414 41.6497 32.2744C41.467 32.4419 41.269 32.6094 41.0862 32.777C39.7309 33.98 38.3755 35.1679 37.0202 36.3405C36.4567 36.4776 35.878 36.5842 35.2841 36.6451C32.7409 36.904 30.0758 36.4166 27.9286 35.046C27.7611 34.9547 27.6088 34.8328 27.4565 34.7262C26.6646 34.1476 25.9793 33.4623 25.4158 32.6551C24.3803 31.1932 23.8016 29.4419 23.9082 27.6601C23.9995 26.0611 24.6239 24.5534 25.0656 23.0153C25.6747 20.9137 25.9793 18.736 25.9641 16.5583C25.9641 16.406 25.9641 16.2385 25.9641 16.0862C25.9184 14.1065 25.2179 12.3247 25.7661 10.3754C26.4971 7.74086 27.6849 5.51746 30.7307 5.47177C30.8068 5.47177 30.883 5.47177 30.9439 5.44132C31.0505 5.39563 31.1418 5.31948 31.2028 5.21288C34.7968 0.811769 41.2081 4.75602 43.1726 8.83733C43.8731 10.3298 44.2843 11.944 44.3909 13.5887C44.4822 14.7613 44.4061 15.9035 44.33 17.0761C44.3147 17.3198 44.2995 17.5482 44.2843 17.7919C44.269 18.4924 44.3452 19.1777 44.5279 19.8477C44.665 20.4264 44.8325 21.0051 44.9696 21.599C45.533 24.0204 45.7919 26.5789 45.1371 28.9698Z" fill="#648A33"/>
<path d="M33.9896 37.0105C31.7053 37.0105 29.5428 36.4166 27.7762 35.3049C27.624 35.2135 27.4564 35.1069 27.2889 34.9699C26.4818 34.3759 25.766 33.6602 25.1874 32.8378C24.0757 31.2541 23.5122 29.4266 23.634 27.6601C23.7102 26.4113 24.0909 25.2082 24.4716 24.0508C24.5934 23.6854 24.7 23.3199 24.8066 22.9544C25.4158 20.8833 25.7051 18.736 25.7051 16.5735C25.7051 16.406 25.7051 16.2537 25.7051 16.1014C25.6747 15.4314 25.6138 14.7765 25.5072 14.1217C25.3396 12.9034 25.1569 11.6394 25.5224 10.2993C26.2077 7.80174 27.3803 5.24331 30.7611 5.18239C30.8068 5.18239 30.8372 5.1824 30.8829 5.16717C30.9438 5.13671 30.9895 5.09102 31.02 5.03011C32.2687 3.492 33.9591 2.80671 35.9236 3.03514C38.8323 3.37017 42.0913 5.80677 43.4923 8.70024C44.1929 10.1317 44.5888 11.7308 44.7259 13.5582C44.7868 14.6547 44.7716 15.7664 44.6802 16.8629L44.6649 17.0761C44.6497 17.3045 44.6345 17.5329 44.6193 17.7614V17.7918C44.604 18.4619 44.6802 19.1319 44.8477 19.7716C44.9086 20.0152 44.9695 20.2436 45.0304 20.4873C45.1218 20.8223 45.2132 21.1726 45.2893 21.5229C45.9442 24.5382 45.9899 26.9291 45.4264 29.0154C45.4112 29.0611 45.3959 29.1068 45.3502 29.1373C44.7563 29.7312 44.1776 30.2946 43.6294 30.8276C43.0812 31.3607 42.5025 31.8784 41.8476 32.4571C41.7106 32.579 41.5735 32.7008 41.4364 32.8378L41.2842 32.9597C39.944 34.1475 38.5734 35.3354 37.2485 36.4927L37.2181 36.508C37.1876 36.5384 37.1419 36.5689 37.0962 36.5841C36.5176 36.7212 35.9236 36.8278 35.3297 36.8887C34.8728 36.9801 34.4312 37.0105 33.9896 37.0105ZM35.1927 3.58337C33.7155 3.58337 32.4362 4.20775 31.4616 5.41083C31.3702 5.54788 31.2332 5.65449 31.0809 5.73063C30.9743 5.76109 30.8677 5.77632 30.7611 5.77632C27.761 5.822 26.7102 8.16723 26.0706 10.4668C25.7356 11.6851 25.9031 12.8272 26.0706 14.0455C26.1772 14.7156 26.2534 15.4009 26.2838 16.0862C26.2838 16.2537 26.2838 16.406 26.2838 16.5735C26.2991 18.7817 25.9945 20.9899 25.3701 23.1219C25.2635 23.4874 25.1417 23.8681 25.0198 24.2336C24.6543 25.3605 24.2889 26.5331 24.2127 27.7057C24.1213 29.3352 24.6391 31.0409 25.6747 32.518C26.2229 33.2947 26.8777 33.9648 27.6392 34.513C27.8067 34.6348 27.9438 34.7262 28.096 34.8176C30.091 36.0816 32.6342 36.645 35.2688 36.3862C35.817 36.3252 36.3653 36.2339 36.8983 36.0968C38.2232 34.9546 39.5785 33.7516 40.9187 32.579L41.071 32.4419C41.208 32.3201 41.3451 32.1982 41.4821 32.0764C42.137 31.4977 42.7004 30.9647 43.2487 30.4469C43.7969 29.9292 44.3451 29.3961 44.9086 28.8327C45.4264 26.8529 45.3807 24.5686 44.7411 21.6904C44.6649 21.3401 44.5736 21.0051 44.4974 20.6701C44.4365 20.4264 44.3756 20.1827 44.3147 19.9391C44.1319 19.2386 44.0406 18.5228 44.071 17.807V17.7766C44.0863 17.5482 44.1015 17.3197 44.1167 17.0913L44.1319 16.8781C44.2233 15.8121 44.2385 14.7308 44.1776 13.6496C44.0863 12.0353 43.6751 10.4515 42.9898 8.98959C41.6649 6.26364 38.6039 3.96409 35.8779 3.64429C35.6191 3.5986 35.4059 3.58337 35.1927 3.58337Z" fill="#222222"/>
<path d="M43.4317 30.6594C42.853 31.2077 42.259 31.7559 41.6651 32.2889C41.4824 32.4564 41.2844 32.624 41.1017 32.7915C39.7463 33.9945 38.3909 35.1824 37.0356 36.355C34.8122 38.2891 32.604 40.2231 30.3958 42.1724C29.9847 42.5379 29.5887 42.9034 29.1775 43.2689C28.0354 44.3044 26.9084 45.34 25.7815 46.3755L25.2333 34.4514C25.2333 31.8168 26.6496 29.3802 28.9491 28.0706C29.0252 28.0249 29.1166 27.9792 29.1928 27.9335H29.208C29.6039 27.7203 30.0303 27.5528 30.4567 27.4309C31.1116 27.233 31.7969 27.1416 32.4669 27.1416H37.2488C37.9341 27.1416 38.6194 27.233 39.2742 27.4309C39.6549 27.5375 40.0052 27.6898 40.3554 27.8574C40.4011 27.8726 40.4468 27.903 40.4925 27.9335C40.5839 27.9792 40.6753 28.0249 40.7666 28.0858C41.8631 28.6949 42.7768 29.5782 43.4317 30.6594Z" fill="white"/>
<path d="M25.766 46.6651C25.7356 46.6651 25.6899 46.6651 25.6594 46.6499C25.5528 46.6042 25.4919 46.5128 25.4767 46.391L24.9285 34.4668C24.9132 31.7257 26.3904 29.1824 28.7813 27.8271C28.8575 27.7814 28.9336 27.7357 29.025 27.69L29.0555 27.6748C29.4666 27.4616 29.9083 27.2789 30.3499 27.157H30.3651C31.0352 26.959 31.7357 26.8677 32.4515 26.8677H37.2333C37.9491 26.8677 38.6496 26.9743 39.3349 27.1723C39.7156 27.2941 40.0963 27.4311 40.4618 27.6139C40.5227 27.6291 40.5684 27.6596 40.6141 27.69C40.7055 27.7357 40.7968 27.7814 40.8882 27.8423C42.0304 28.4819 42.9746 29.4109 43.6446 30.5226C43.7208 30.6444 43.6903 30.7815 43.5989 30.8728C43.0507 31.3906 42.472 31.9236 41.8172 32.5023C41.6801 32.6242 41.5431 32.746 41.406 32.883L41.2537 33.0049C39.9136 34.1927 38.543 35.3806 37.2181 36.5379L37.1876 36.5532L36.6698 37.01C34.6596 38.7613 32.5733 40.5736 30.5479 42.3858C30.1367 42.7513 29.7408 43.1015 29.3296 43.4823C28.1874 44.5178 27.03 45.5686 25.9336 46.5889C25.8879 46.6499 25.827 46.6651 25.766 46.6651ZM29.3296 28.1774C29.3143 28.1926 29.2991 28.1926 29.2839 28.1926C29.2077 28.223 29.1316 28.2687 29.0555 28.3144C26.8473 29.5632 25.4919 31.9084 25.4919 34.4364L26.0249 45.7361C26.9843 44.8529 27.9894 43.9391 28.9793 43.0406C29.3905 42.6751 29.7864 42.3097 30.1976 41.9442C32.223 40.1319 34.3094 38.3197 36.3196 36.5684L36.8374 36.1268H36.8526L36.883 36.0963C38.208 34.9389 39.5785 33.7511 40.9187 32.5632L41.071 32.4262C41.208 32.3043 41.3451 32.1825 41.4821 32.0607C42.0608 31.5429 42.5786 31.0708 43.0812 30.5987C42.4568 29.6545 41.6344 28.8779 40.6446 28.3144C40.5532 28.2687 40.477 28.223 40.3857 28.1774C40.34 28.1469 40.2943 28.1317 40.2638 28.1164C39.9288 27.9489 39.5633 27.8119 39.1978 27.7053C38.5734 27.5225 37.9186 27.4311 37.2485 27.4311H32.4667C31.8119 27.4311 31.157 27.5225 30.5326 27.7053H30.487C30.091 27.8271 29.6951 27.9794 29.3296 28.1774Z" fill="#222222"/>
<path d="M41.6648 32.2897C41.4821 32.4573 41.2841 32.6248 41.1014 32.7923C39.746 33.9954 38.3907 35.1832 37.0353 36.3558C34.8119 38.2899 32.6037 40.2239 30.3956 42.1732C29.9844 42.5387 29.5884 42.9042 29.1773 43.2697C29.0706 40.7417 28.8118 38.1224 28.1265 36.1578C28.0351 35.7924 27.9742 35.4269 27.9437 35.0614C27.7914 32.9141 28.3549 29.6856 28.9031 28.1627C28.9945 28.0866 29.0859 28.0257 29.1773 27.9495H29.1925C29.5884 27.6906 30.0148 27.4927 30.4565 27.3404C30.5174 27.3252 30.5783 27.2947 30.6392 27.2795L30.8372 27.2186C31.5834 26.9901 32.3601 26.8378 33.1367 26.7617L33.4413 26.7312C33.4718 26.7312 33.487 26.7312 33.5175 26.7312C33.7154 26.716 33.9134 26.7008 34.1266 26.7008C34.218 26.7008 34.3093 26.7008 34.4007 26.6855C34.553 26.6855 34.7053 26.6855 34.8576 26.6855C35.0099 26.6855 35.1774 26.6855 35.3144 26.6855C35.4058 26.6855 35.4972 26.6855 35.5886 26.7008C35.8018 26.7008 36.015 26.716 36.1977 26.7312C36.2282 26.7312 36.2434 26.7312 36.2739 26.7312L36.5784 26.7617C37.1724 26.8226 37.7511 26.9292 38.3297 27.0663C38.3907 27.0815 38.4363 27.0967 38.4973 27.112C38.6039 27.1424 38.7105 27.1729 38.8171 27.2033L38.9694 27.249C39.0607 27.2795 39.1673 27.3099 39.2587 27.3404C39.7003 27.4927 40.1115 27.6906 40.5075 27.9495C40.6141 28.0105 40.7207 28.0866 40.812 28.178C41.1318 29.0917 41.4821 30.6907 41.6648 32.2897Z" fill="white"/>
<path d="M29.1621 43.5588C29.1316 43.5588 29.086 43.5588 29.0555 43.5436C28.9489 43.4979 28.888 43.4065 28.8728 43.2847C28.7357 40.1323 28.4159 37.8937 27.8372 36.249C27.7306 35.8683 27.6697 35.4723 27.6392 35.0764C27.4869 32.9748 28.0199 29.6854 28.6139 28.0559C28.6291 28.0102 28.6596 27.9798 28.69 27.9493C28.7814 27.858 28.888 27.7818 28.9946 27.7209L29.0098 27.7057C29.421 27.4316 29.8626 27.2183 30.3347 27.0661C30.3804 27.0508 30.4413 27.0204 30.5022 27.0051L30.7307 26.929C31.4921 26.7006 32.284 26.5483 33.0911 26.4721L33.3957 26.4417H33.4566C33.6698 26.4265 33.883 26.4112 34.0962 26.4112L34.3703 26.396C34.6901 26.396 35.01 26.396 35.2993 26.396C35.4059 26.396 35.4973 26.396 35.5886 26.4112C35.8018 26.4112 36.0151 26.4265 36.213 26.4417H36.2892L36.5937 26.4721C37.2029 26.5331 37.7968 26.6397 38.3907 26.7767C38.4517 26.7919 38.5126 26.8072 38.5735 26.8224C38.6801 26.8529 38.8019 26.8833 38.9085 26.9138L39.0608 26.9595C39.1369 26.9747 39.2131 27.0051 39.3045 27.0356L39.3502 27.0508C39.807 27.2183 40.2486 27.4163 40.6598 27.6904C40.7817 27.7666 40.9035 27.858 41.0101 27.9493C41.0405 27.9798 41.071 28.0255 41.0862 28.0559C41.4365 29.061 41.7868 30.7057 41.9695 32.2591C41.9847 32.3504 41.939 32.4418 41.8781 32.5027L41.467 32.8682L41.3147 32.9901C39.9745 34.1779 38.6039 35.3657 37.279 36.5231L37.2486 36.5384L36.7308 36.9952C34.7206 38.7465 32.6343 40.5588 30.6088 42.371C30.1977 42.7365 29.8017 43.0867 29.3905 43.4674C29.2992 43.5284 29.2382 43.5588 29.1621 43.5588ZM29.1316 28.3148C28.5834 29.9138 28.0656 33.0205 28.2179 35.0307C28.2332 35.381 28.2941 35.7312 28.3854 36.0815C28.9337 37.6501 29.2687 39.7516 29.421 42.6603C29.6799 42.4319 29.9235 42.2035 30.1824 41.975C32.2079 40.1628 34.2942 38.3506 36.3044 36.5993L36.8222 36.1576H36.8374L36.8679 36.1272C38.1928 34.9698 39.5634 33.782 40.9035 32.5941L41.0558 32.457C41.1624 32.3657 41.2537 32.2743 41.3603 32.1829C41.1928 30.7514 40.8883 29.259 40.5532 28.3301C40.4771 28.2691 40.4162 28.2235 40.34 28.1778C39.9745 27.9493 39.5634 27.7514 39.1522 27.5991L39.1065 27.5838C39.0303 27.5534 38.9694 27.5382 38.8933 27.5077L38.741 27.462C38.6344 27.4316 38.5278 27.4011 38.4364 27.3706C38.3755 27.3554 38.3298 27.3402 38.2841 27.325C37.7207 27.1879 37.142 27.0965 36.5633 27.0356L36.2587 27.0051C36.2283 27.0051 36.1978 27.0051 36.1673 27.0051C35.9846 26.9899 35.7866 26.9747 35.5734 26.9747C35.482 26.9747 35.3907 26.9595 35.2993 26.9595C34.9947 26.9595 34.6901 26.9595 34.4008 26.9595C34.3094 26.9595 34.2181 26.9595 34.1419 26.9747C33.9287 26.9899 33.7307 26.9899 33.5328 27.0051C33.5023 27.0051 33.4871 27.0051 33.4566 27.0051L33.152 27.0356C32.3906 27.1118 31.6444 27.2488 30.9134 27.4772L30.7307 27.5382L30.5632 27.5991C30.1367 27.7361 29.7408 27.9341 29.3601 28.1778L29.3448 28.193C29.2382 28.2387 29.1773 28.2844 29.1316 28.3148Z" fill="#222222"/>
<path d="M39.274 27.6899C39.274 29.6849 37.2943 31.3144 34.8425 31.3144C32.3906 31.3144 30.4109 29.6849 30.4109 27.6899C30.4109 27.5681 30.4109 27.4311 30.4261 27.3092C31.3703 26.9742 32.8018 26.6392 34.8272 26.6392C36.8527 26.6392 38.2842 26.959 39.2283 27.294C39.2588 27.4463 39.274 27.5681 39.274 27.6899Z" fill="white"/>
<path d="M34.8425 31.6196C32.2384 31.6196 30.1216 29.8683 30.1216 27.7059C30.1216 27.5688 30.1368 27.4317 30.152 27.2947C30.1673 27.1881 30.2434 27.0967 30.3348 27.051C31.5835 26.5942 33.0912 26.3657 34.8425 26.3657C36.5938 26.3657 38.0862 26.5942 39.3502 27.051C39.4568 27.0815 39.533 27.1728 39.533 27.2947C39.5482 27.4317 39.5634 27.5688 39.5634 27.7059C39.5634 29.8531 37.4466 31.6196 34.8425 31.6196ZM30.7155 27.5383C30.7155 27.5993 30.7155 27.6449 30.7155 27.7059C30.7155 29.5485 32.5734 31.041 34.8577 31.041C37.142 31.041 39 29.5485 39 27.7059C39 27.6449 39 27.5993 39 27.5383C37.8426 27.1576 36.4415 26.9596 34.8577 26.9596C33.2739 26.9596 31.8577 27.1424 30.7155 27.5383Z" fill="#222222"/>
<path d="M33.5023 27.1417V25.5884H36.1978V27.1417" fill="white"/>
<path d="M36.1979 27.4309C36.0456 27.4309 35.9085 27.309 35.9085 27.1415V25.8775H33.7917V27.1415C33.7765 27.2938 33.6395 27.4156 33.4872 27.4004C33.3501 27.3852 33.2283 27.2786 33.2283 27.1415V25.5882C33.2283 25.4359 33.3501 25.2988 33.5176 25.2988H36.2131C36.3654 25.2988 36.5025 25.4207 36.5025 25.5882V27.1415C36.472 27.2938 36.3502 27.4309 36.1979 27.4309Z" fill="#222222"/>
<path d="M27.1368 20.8378C28.5834 20.8378 29.7562 19.8287 29.7562 18.5839C29.7562 17.3392 28.5834 16.3301 27.1368 16.3301C25.6902 16.3301 24.5175 17.3392 24.5175 18.5839C24.5175 19.8287 25.6902 20.8378 27.1368 20.8378Z" fill="white"/>
<path d="M27.1366 21.1274C25.5376 21.1274 24.2279 19.9853 24.2279 18.5842C24.2279 17.1832 25.5376 16.041 27.1366 16.041C28.7356 16.041 30.0453 17.1832 30.0453 18.5842C30.0453 19.9853 28.7356 21.1274 27.1366 21.1274ZM27.1366 16.6197C25.8574 16.6197 24.8066 17.503 24.8066 18.5842C24.8066 19.6655 25.8574 20.5487 27.1366 20.5487C28.4158 20.5487 29.4666 19.6655 29.4666 18.5842C29.4666 17.503 28.431 16.6197 27.1366 16.6197Z" fill="#222222"/>
<path d="M42.4112 20.8378C43.8578 20.8378 45.0306 19.8287 45.0306 18.5839C45.0306 17.3392 43.8578 16.3301 42.4112 16.3301C40.9646 16.3301 39.7919 17.3392 39.7919 18.5839C39.7919 19.8287 40.9646 20.8378 42.4112 20.8378Z" fill="white"/>
<path d="M42.4113 21.1274C40.8122 21.1274 39.5026 19.9853 39.5026 18.5842C39.5026 17.1832 40.8122 16.041 42.4113 16.041C44.0103 16.041 45.32 17.1832 45.32 18.5842C45.32 19.9853 44.0103 21.1274 42.4113 21.1274ZM42.4113 16.6197C41.1168 16.6197 40.0813 17.503 40.0813 18.5842C40.0813 19.6655 41.132 20.5487 42.4113 20.5487C43.6905 20.5487 44.7413 19.6655 44.7413 18.5842C44.7413 17.503 43.6905 16.6197 42.4113 16.6197Z" fill="#222222"/>
<path d="M39.6549 11.898C38.6955 11.8675 37.7361 11.6543 36.8528 11.2584C35.4822 10.6188 34.3096 9.61368 33.1979 8.57812C32.4669 10.5579 30.472 11.7305 28.5988 12.7356C28.2029 12.9488 27.6851 13.162 27.3348 12.8726C26.9541 14.5326 26.9389 16.36 26.9389 18.0504C26.878 22.4211 30.3654 25.9998 34.736 26.0608C39.1067 26.1217 42.6854 22.6343 42.7464 18.2636C42.7464 18.1875 42.7464 18.1113 42.7464 18.0504V11.9132C41.7108 11.898 40.6752 11.9589 39.6549 11.898Z" fill="white"/>
<path d="M34.8425 26.2281C30.3196 26.2281 26.6646 22.558 26.6494 18.035C26.6494 16.4817 26.6494 14.5324 27.0454 12.7963C27.0758 12.644 27.2433 12.5527 27.3956 12.5831C27.4413 12.5983 27.4718 12.6136 27.5022 12.6288C27.6697 12.7659 27.9895 12.7202 28.4616 12.4613C30.4262 11.3953 32.2536 10.2988 32.9237 8.45612C32.9541 8.36475 33.0303 8.2886 33.1216 8.27337C33.213 8.25814 33.3196 8.27337 33.3805 8.34952C34.3704 9.27847 35.5582 10.3293 36.9593 10.9841C37.7207 11.3344 38.5735 11.5323 39.6548 11.5932C40.3249 11.6389 41.0101 11.6237 41.665 11.6085C42.0305 11.6085 42.3807 11.5932 42.731 11.5932C42.8833 11.5932 43.0203 11.7303 43.0203 11.8826V18.0198C43.0203 22.558 39.3654 26.2281 34.8425 26.2281ZM27.5479 13.2684C27.2281 14.8522 27.2281 16.6187 27.2281 18.0502C27.2281 22.2534 30.6394 25.6646 34.8425 25.6646C39.0456 25.6646 42.4569 22.2534 42.4569 18.0502V12.1872C42.198 12.1872 41.9391 12.1872 41.6802 12.2024C41.0101 12.2176 40.3096 12.2329 39.6243 12.1872C38.4669 12.1263 37.5532 11.9131 36.7156 11.5171C35.3907 10.8927 34.2486 9.94854 33.2892 9.06527C32.4516 10.847 30.6546 11.9435 28.7205 12.9791C28.5378 13.0857 28.0352 13.3598 27.5479 13.2684Z" fill="#222222"/>
<path d="M34.8121 19.6346C34.5685 19.6346 34.3248 19.6194 34.0812 19.5737C33.9289 19.5585 33.8223 19.4062 33.8375 19.2539C33.8527 19.1016 34.005 18.995 34.1573 19.0103H34.1725C34.5076 19.0712 34.8578 19.0712 35.1929 19.0255C35.1929 18.7818 34.934 18.0508 34.5837 17.3655C34.5076 17.2285 34.5685 17.0457 34.7055 16.9848C34.8426 16.9087 35.0101 16.9696 35.0863 17.1067C35.3452 17.6092 35.9238 18.8123 35.7106 19.3148C35.6497 19.4367 35.5431 19.5433 35.4061 19.5737C35.2233 19.6194 35.0101 19.6499 34.8121 19.6346Z" fill="#222222"/>
<path d="M25.3246 20.9746C25.7703 20.9746 26.1317 20.6132 26.1317 20.1675C26.1317 19.7217 25.7703 19.3604 25.3246 19.3604C24.8788 19.3604 24.5175 19.7217 24.5175 20.1675C24.5175 20.6132 24.8788 20.9746 25.3246 20.9746Z" fill="white"/>
<path d="M25.3244 21.2637C24.7152 21.2637 24.2279 20.7764 24.2279 20.1673C24.2279 19.5581 24.7152 19.0708 25.3244 19.0708C25.9335 19.0708 26.4208 19.5581 26.4208 20.1673C26.4208 20.7612 25.9335 21.2485 25.3244 21.2637ZM25.3244 19.6343C25.035 19.6343 24.8066 19.8627 24.8066 20.152C24.8066 20.4414 25.035 20.6698 25.3244 20.6698C25.6137 20.6698 25.8422 20.4414 25.8422 20.152C25.8422 19.8627 25.6137 19.6343 25.3244 19.6343Z" fill="#222222"/>
<path d="M44.2386 20.9746C44.6844 20.9746 45.0458 20.6132 45.0458 20.1675C45.0458 19.7217 44.6844 19.3604 44.2386 19.3604C43.7929 19.3604 43.4315 19.7217 43.4315 20.1675C43.4315 20.6132 43.7929 20.9746 44.2386 20.9746Z" fill="white"/>
<path d="M44.2387 21.2637C43.6295 21.2637 43.1422 20.7764 43.1422 20.1673C43.1422 19.5581 43.6295 19.0708 44.2387 19.0708C44.8478 19.0708 45.3352 19.5581 45.3352 20.1673C45.3352 20.7612 44.8478 21.2637 44.2387 21.2637ZM44.2387 19.6343C43.9493 19.6343 43.7209 19.8627 43.7209 20.152C43.7209 20.4414 43.9493 20.6698 44.2387 20.6698C44.528 20.6698 44.7565 20.4414 44.7565 20.152C44.7565 19.8627 44.528 19.6343 44.2387 19.6343Z" fill="#222222"/>
</svg>
