<svg width="30" height="40" viewBox="0 0 30 40" fill="none" xmlns="http://www.w3.org/2000/svg">
<path d="M26.9141 7.42223H24.9609V2.73363C24.9609 1.85887 24.5377 1.03059 23.8289 0.518008C23.1201 0.00542957 22.2009 -0.137149 21.3701 0.136914L2.22938 6.44988C1.10617 6.82043 0.351562 7.86402 0.351562 9.04668V30.8854V37.2656C0.351562 38.7733 1.5782 40 3.08594 40H26.9141C28.4218 40 29.6484 38.7733 29.6484 37.2656V10.1566C29.6484 8.64895 28.4218 7.42223 26.9141 7.42223ZM27.3047 37.2656C27.3047 37.481 27.1295 37.6562 26.9141 37.6562H3.08594C2.87055 37.6562 2.69531 37.481 2.69531 37.2656V29.7136V10.1566C2.69531 9.94121 2.87055 9.76598 3.08594 9.76598H26.9141C27.1295 9.76598 27.3047 9.94121 27.3047 10.1566V37.2656ZM22.1042 2.36269C22.2692 2.30832 22.3951 2.37348 22.4555 2.41715C22.5159 2.46082 22.6173 2.55996 22.6173 2.73363V7.4223H6.7639L22.1042 2.36269Z" fill="#43C46E"/>
<path d="M7.18752 23.319H8.60802H22.8125C23.4597 23.319 23.9844 22.7943 23.9844 22.1471C23.9844 21.4999 23.4597 20.9752 22.8125 20.9752H22.473C21.9679 17.741 19.4061 15.1792 16.1719 14.6741V14.0869C16.1719 13.4397 15.6472 12.915 15 12.915C14.3528 12.915 13.8281 13.4397 13.8281 14.0869V14.6741C10.5939 15.1792 8.03213 17.741 7.52703 20.9752H7.18752C6.54032 20.9752 6.01562 21.4999 6.01562 22.1471C6.01562 22.7943 6.54032 23.319 7.18752 23.319ZM15 16.9269C17.4756 16.9269 19.5542 18.6593 20.0876 20.9752H9.91243C10.4458 18.6593 12.5245 16.9269 15 16.9269Z" fill="#43C46E"/>
<path d="M7.64065 26.4849C6.99345 26.4849 6.46875 27.0096 6.46875 27.6568C6.46875 28.304 6.99345 28.8287 7.64065 28.8287H13.2656C13.9128 28.8287 14.4375 28.304 14.4375 27.6568C14.4375 27.0096 13.9128 26.4849 13.2656 26.4849H7.64065Z" fill="#43C46E"/>
<path d="M22.5234 31.1724H7.4844C6.8372 31.1724 6.3125 31.6971 6.3125 32.3443C6.3125 32.9915 6.8372 33.5162 7.4844 33.5162H22.5234C23.1706 33.5162 23.6953 32.9915 23.6953 32.3443C23.6953 31.6971 23.1706 31.1724 22.5234 31.1724Z" fill="#43C46E"/>
</svg>
