<svg width="40" height="38" viewBox="0 0 40 38" fill="none" xmlns="http://www.w3.org/2000/svg">
<path d="M38.8281 35.3067C37.5348 35.3067 36.9513 35.0161 36.2126 34.6483C35.9077 34.4965 35.588 34.3376 35.2188 34.1959L39.177 23.7833C39.485 22.9728 39.4339 22.0661 39.0366 21.2954C38.6394 20.5248 37.9304 19.9572 37.0916 19.738L34.3662 19.0259V10.8519C34.3662 9.13652 32.9705 7.74086 31.2551 7.74086H25.8761V4.71633C25.8761 2.30851 23.9172 0.349609 21.5094 0.349609H18.4907C16.0829 0.349609 14.124 2.30851 14.124 4.71633V7.74078H8.745C7.02953 7.74078 5.63391 9.13642 5.63391 10.8519V19.0259L2.90844 19.738C2.06961 19.9572 1.36063 20.5248 0.963437 21.2954C0.56625 22.0661 0.515 22.9728 0.823125 23.7833L4.78125 34.1961C4.41219 34.3377 4.0925 34.4965 3.78773 34.6483C3.04891 35.0161 2.46539 35.3068 1.17188 35.3068C0.524687 35.3068 0 35.8315 0 36.4786C0 37.1258 0.524687 37.6505 1.17188 37.6505C3.01656 37.6505 3.98125 37.1702 4.83234 36.7465C5.57117 36.3786 6.15469 36.088 7.4482 36.088C8.74172 36.088 9.32524 36.3786 10.0641 36.7465C10.9152 37.1702 11.8798 37.6505 13.7245 37.6505C15.5691 37.6505 16.5337 37.1702 17.3849 36.7465C18.1237 36.3786 18.7072 36.088 20.0005 36.088C21.2939 36.088 21.8773 36.3786 22.6161 36.7465C23.4672 37.1702 24.4318 37.6505 26.2764 37.6505C28.121 37.6505 29.0856 37.1702 29.9367 36.7465C30.6755 36.3786 31.259 36.088 32.5523 36.088C33.8457 36.088 34.4291 36.3786 35.1679 36.7465C36.019 37.1702 36.9836 37.6505 38.8282 37.6505C39.4754 37.6505 40.0001 37.1258 40.0001 36.4786C40.0001 35.8315 39.4753 35.3067 38.8281 35.3067ZM16.4677 4.71633C16.4677 3.60086 17.3752 2.69336 18.4907 2.69336H21.5094C22.6248 2.69336 23.5323 3.60086 23.5323 4.71633V7.74078H16.4677V4.71633ZM7.97758 10.8519C7.97758 10.4288 8.3218 10.0846 8.74492 10.0846H31.255C31.6781 10.0846 32.0223 10.4288 32.0223 10.8519V18.4136L20.2962 15.3497C20.102 15.299 19.8979 15.299 19.7037 15.3497L7.9775 18.4136L7.97758 10.8519ZM28.892 34.6483C28.1532 35.0161 27.5697 35.3067 26.2764 35.3067C24.9831 35.3067 24.3996 35.0161 23.6609 34.6483C22.8098 34.2245 21.8452 33.7442 20.0005 33.7442C18.1559 33.7442 17.1913 34.2245 16.3402 34.6483C15.6014 35.0161 15.0179 35.3067 13.7245 35.3067C12.4311 35.3067 11.8475 35.0161 11.1088 34.6483C10.2577 34.2245 9.29297 33.7442 7.44828 33.7442C7.33523 33.7442 7.22555 33.7461 7.11891 33.7495L3.01383 22.9504C2.91531 22.6913 2.99211 22.4752 3.04664 22.3694C3.10117 22.2636 3.23266 22.0758 3.50086 22.0057L20 17.6947L36.4991 22.0058C36.7673 22.0758 36.8988 22.2636 36.9534 22.3694C37.0079 22.4752 37.0847 22.6913 36.9862 22.9505L32.8812 33.7496C32.7747 33.7461 32.6652 33.7443 32.5523 33.7443C30.7077 33.7442 29.743 34.2246 28.892 34.6483Z" fill="#43C46E"/>
<path d="M30.8332 23.6918L20.2953 20.9384C20.1011 20.8877 19.8971 20.8877 19.7028 20.9384L9.16498 23.6918C8.53881 23.8554 8.16381 24.4957 8.3274 25.1219C8.49099 25.7481 9.13131 26.123 9.75748 25.9595L19.9991 23.2835L30.2407 25.9595C30.34 25.9855 30.4397 25.9978 30.5378 25.9978C31.058 25.9978 31.5332 25.6488 31.6707 25.1219C31.8344 24.4957 31.4594 23.8554 30.8332 23.6918Z" fill="#43C46E"/>
</svg>
