<svg width="37" height="32" viewBox="0 0 37 32" fill="none" xmlns="http://www.w3.org/2000/svg">
<path d="M29.4461 19.906C28.967 20.3287 28.7469 20.9401 28.856 21.5396L30.5004 29.8254C30.6392 30.5276 30.3136 31.2383 29.668 31.6442C29.0354 32.0652 28.1938 32.1158 27.5038 31.7789L19.3112 27.8887C19.0264 27.7506 18.7101 27.6765 18.3864 27.668H17.8851C17.7112 27.6916 17.541 27.7421 17.3856 27.8196L9.19122 31.7284C8.78612 31.9137 8.32738 31.9793 7.87789 31.9137C6.78283 31.725 6.05218 30.7752 6.23161 29.7732L7.87789 21.4874C7.98703 20.8828 7.76691 20.2681 7.28782 19.8387L0.608341 13.9443C0.0497138 13.4509 -0.144511 12.7099 0.110756 12.0413C0.358623 11.3744 0.991241 10.8877 1.75519 10.7782L10.9485 9.56399C11.6477 9.49831 12.2618 9.11097 12.5763 8.53838L16.6272 0.976777C16.7234 0.808367 16.8474 0.65343 16.9972 0.52207L17.1637 0.404184C17.2506 0.31661 17.3505 0.244194 17.4615 0.185251L17.6631 0.117887L17.9776 0H18.7563C19.4518 0.0656798 20.0641 0.444602 20.3841 1.01046L24.4887 8.53838C24.7847 9.08908 25.36 9.47137 26.024 9.56399L35.2173 10.7782C35.9942 10.8793 36.6435 11.3677 36.9006 12.0413C37.1429 12.7166 36.9339 13.4576 36.3642 13.9443L29.4461 19.906Z" fill="#DEA31A"/>
</svg>
