<svg width="40" height="37" viewBox="0 0 40 37" fill="none" xmlns="http://www.w3.org/2000/svg">
<path d="M31.8336 23.0164C31.3157 23.5051 31.0777 24.212 31.1957 24.9052L32.9734 34.4856C33.1234 35.2976 32.7715 36.1193 32.0736 36.5886C31.3897 37.0754 30.4798 37.1338 29.7339 36.7444L20.877 32.2463C20.5691 32.0866 20.2271 32.0009 19.8772 31.9912H19.3352C19.1472 32.0184 18.9633 32.0769 18.7953 32.1664L9.93645 36.686C9.49851 36.9002 9.00257 36.9761 8.51664 36.9002C7.33279 36.6821 6.5429 35.5838 6.73687 34.4252L8.51664 24.8448C8.63462 24.1458 8.39665 23.435 7.87872 22.9385L0.657666 16.1231C0.0537446 15.5526 -0.156228 14.6958 0.119736 13.9228C0.387701 13.1516 1.07161 12.5889 1.8975 12.4623L11.8362 11.0584C12.5921 10.9824 13.256 10.5346 13.596 9.8725L17.9754 1.1294C18.0794 0.934674 18.2134 0.755529 18.3754 0.603644L18.5553 0.467337C18.6493 0.366081 18.7573 0.28235 18.8773 0.214196L19.0953 0.136307L19.4352 0H20.2771C21.029 0.0759423 21.6909 0.514071 22.0369 1.16834L26.4743 9.8725C26.7943 10.5092 27.4162 10.9513 28.1341 11.0584L38.0728 12.4623C38.9127 12.5792 39.6146 13.1439 39.8925 13.9228C40.1545 14.7036 39.9285 15.5604 39.3126 16.1231L31.8336 23.0164Z" fill="#DEA31A"/>
</svg>
