<svg width="36" height="34" viewBox="0 0 36 34" fill="none" xmlns="http://www.w3.org/2000/svg">
<path d="M32.375 8.25H31.75V7C31.75 3.55375 28.9463 0.75 25.5 0.75H10.5C7.05375 0.75 4.25 3.55375 4.25 7V8.25H3.625C1.90125 8.25 0.5 9.6525 0.5 11.375V14.5C0.5 15.19 1.05875 15.75 1.75 15.75C2.44125 15.75 3 15.19 3 14.5V11.375C3 11.03 3.28125 10.75 3.625 10.75H4.25V23.25C4.25 25.2838 5.24125 27.0763 6.75 28.2175V30.75C6.75 32.1287 7.87125 33.25 9.25 33.25H11.75C13.1287 33.25 14.25 32.1287 14.25 30.75V29.5H21.75V30.75C21.75 32.1287 22.8713 33.25 24.25 33.25H26.75C28.1287 33.25 29.25 32.1287 29.25 30.75V28.2175C30.7588 27.075 31.75 25.2825 31.75 23.25V10.75H32.375C32.7188 10.75 33 11.03 33 11.375V14.5C33 15.19 33.5588 15.75 34.25 15.75C34.9412 15.75 35.5 15.19 35.5 14.5V11.375C35.5 9.6525 34.0988 8.25 32.375 8.25ZM6.75 8.25H29.25V17.4562C28.1187 17.9688 26.8813 18.25 25.6388 18.25H10.3612C9.12 18.25 7.88125 17.9688 6.75 17.4562V8.25ZM10.5 3.25H25.5C27.1275 3.25 28.5025 4.29875 29.02 5.75H6.98C7.4975 4.29875 8.8725 3.25 10.5 3.25ZM11.75 30.75H9.25V29.3738C9.6538 29.4563 10.0725 29.5 10.5 29.5H11.75V30.75ZM26.75 30.75H24.25V29.5H25.5C25.9275 29.5 26.3463 29.4563 26.75 29.3738V30.75ZM25.5 27H10.5C8.4325 27 6.75 25.3175 6.75 23.25V20.1425C7.9125 20.535 9.1362 20.75 10.3612 20.75H25.64C26.865 20.75 28.0887 20.535 29.2512 20.1425V23.25C29.2512 25.3175 27.5675 27 25.5 27Z" fill="#43C46E"/>
</svg>
