<svg width="36" height="36" viewBox="0 0 36 36" fill="none" xmlns="http://www.w3.org/2000/svg">
<path d="M27.5355 2.42136C27.8552 1.88858 28.5462 1.71582 29.079 2.03549L28.5002 3.00017C29.079 2.03549 29.0785 2.03519 29.079 2.03549L29.0811 2.03674L29.0834 2.03817L29.089 2.04155L29.1034 2.05043C29.1144 2.05729 29.1283 2.06605 29.1448 2.07672C29.1778 2.09807 29.2215 2.12713 29.2743 2.16408C29.3797 2.23791 29.5222 2.34366 29.6892 2.4828C30.0223 2.76043 30.458 3.17517 30.8919 3.73925C31.7662 4.87585 32.6252 6.61119 32.6252 9.00017C32.6252 11.3892 31.7662 13.1245 30.8919 14.2611C30.458 14.8252 30.0223 15.2399 29.6892 15.5175C29.5222 15.6567 29.3797 15.7624 29.2743 15.8363C29.2215 15.8732 29.1778 15.9023 29.1448 15.9236C29.1283 15.9343 29.1144 15.9431 29.1034 15.9499L29.089 15.9588L29.0834 15.9622L29.0811 15.9636C29.0806 15.9639 29.079 15.9648 28.5002 15.0002L29.079 15.9648C28.5462 16.2845 27.8552 16.1118 27.5355 15.579C27.2172 15.0484 27.3872 14.361 27.9147 14.0395L27.923 14.0342C27.9339 14.0272 27.9547 14.0135 27.984 13.993C28.0426 13.952 28.1345 13.8843 28.2487 13.789C28.4781 13.5979 28.7924 13.3002 29.1085 12.8892C29.7342 12.0758 30.3752 10.8112 30.3752 9.00017C30.3752 7.18915 29.7342 5.92449 29.1085 5.11109C28.7924 4.70017 28.4781 4.40241 28.2487 4.21129C28.1345 4.11605 28.0426 4.04837 27.984 4.00735C27.9547 3.98688 27.9339 3.97317 27.923 3.9661L27.9147 3.9608C27.3872 3.63938 27.2172 2.9519 27.5355 2.42136Z" fill="#A9ACAA"/>
<path fill-rule="evenodd" clip-rule="evenodd" d="M15.0002 1.87517C11.0652 1.87517 7.8752 5.06514 7.8752 9.00017C7.8752 12.9352 11.0652 16.1252 15.0002 16.1252C18.9352 16.1252 22.1252 12.9352 22.1252 9.00017C22.1252 5.06514 18.9352 1.87517 15.0002 1.87517ZM10.1252 9.00017C10.1252 6.30778 12.3078 4.12517 15.0002 4.12517C17.6926 4.12517 19.8752 6.30778 19.8752 9.00017C19.8752 11.6926 17.6926 13.8752 15.0002 13.8752C12.3078 13.8752 10.1252 11.6926 10.1252 9.00017Z" fill="#A9ACAA"/>
<path fill-rule="evenodd" clip-rule="evenodd" d="M15.0002 18.3752C11.5299 18.3752 8.33259 19.164 5.96338 20.4967C3.62943 21.8095 1.8752 23.7993 1.8752 26.2502L1.8751 26.4031C1.87341 28.1459 1.87128 30.3331 3.78982 31.8955C4.73402 32.6644 6.05492 33.2111 7.83952 33.5724C9.62909 33.9346 11.9615 34.1252 15.0002 34.1252C18.0389 34.1252 20.3713 33.9346 22.1609 33.5724C23.9455 33.2111 25.2664 32.6644 26.2106 31.8955C28.1291 30.3331 28.127 28.1459 28.1253 26.4031L28.1252 26.2502C28.1252 23.7993 26.371 21.8095 24.037 20.4967C21.6678 19.164 18.4705 18.3752 15.0002 18.3752ZM4.1252 26.2502C4.1252 24.9732 5.05727 23.5879 7.06646 22.4577C9.0404 21.3474 11.8431 20.6252 15.0002 20.6252C18.1573 20.6252 20.96 21.3474 22.9339 22.4577C24.9431 23.5879 25.8752 24.9732 25.8752 26.2502C25.8752 28.2119 25.8147 29.3162 24.7898 30.1508C24.234 30.6034 23.3049 31.0452 21.7145 31.3671C20.1291 31.688 17.9615 31.8752 15.0002 31.8752C12.0389 31.8752 9.87131 31.688 8.28589 31.3671C6.69549 31.0452 5.76638 30.6034 5.21058 30.1508C4.18567 29.3162 4.1252 28.2119 4.1252 26.2502Z" fill="#A9ACAA"/>
<path d="M26.079 5.03549C25.5462 4.71582 24.8552 4.88858 24.5355 5.42136L24.9079 6.9566L24.9195 6.96458C24.9371 6.97688 24.9704 7.00121 25.0144 7.03786C25.1031 7.11179 25.2299 7.23142 25.3585 7.39859C25.6092 7.72449 25.8752 8.23915 25.8752 9.00017C25.8752 9.76119 25.6092 10.2758 25.3585 10.6017C25.2299 10.7689 25.1031 10.8886 25.0144 10.9625C24.9704 10.9991 24.9371 11.0235 24.9195 11.0358L24.9079 11.0437C24.3857 11.3669 24.2186 12.0507 24.5355 12.579C24.8552 13.1118 25.5462 13.2845 26.079 12.9648L25.5002 12.0002C26.079 12.9648 26.0785 12.9651 26.079 12.9648L26.081 12.9636L26.0832 12.9623L26.0879 12.9595L26.0991 12.9526L26.1279 12.9342C26.15 12.92 26.1775 12.9016 26.2098 12.879C26.2743 12.8339 26.3581 12.7715 26.4548 12.691C26.6473 12.5305 26.8955 12.2939 27.1419 11.9736C27.6412 11.3245 28.1252 10.3392 28.1252 9.00017C28.1252 7.66119 27.6412 6.67585 27.1419 6.02675C26.8955 5.70642 26.6473 5.4698 26.4548 5.30936C26.3581 5.22882 26.2743 5.16643 26.2098 5.12131C26.1775 5.09871 26.15 5.08035 26.1279 5.0661L26.0991 5.04778L26.0879 5.04089L26.0832 5.038L26.081 5.0367C26.0805 5.0364 26.079 5.03549 25.5002 6.00017L26.079 5.03549Z" fill="#A9ACAA"/>
</svg>
