<svg width="120" height="32" viewBox="0 0 120 32" fill="none" xmlns="http://www.w3.org/2000/svg">
<path d="M71.3484 10.3727C71.14 10.3727 70.9249 10.3206 70.7425 10.2214L55.4898 1.90966L40.2435 10.2214C39.8787 10.4249 39.3965 10.4249 39.0317 10.2214L23.7854 1.90966L8.53922 10.2214C8.17436 10.4249 7.69221 10.4249 7.32734 10.2214L-8.53133 1.58095C-9.02651 1.31485 -9.15031 0.777427 -8.81802 0.380883C-8.48573 -0.0104424 -7.80812 -0.114796 -7.31946 0.156523L7.92677 8.46828L23.173 0.156523C23.5379 -0.0469661 24.02 -0.0469661 24.3849 0.156523L39.6311 8.46828L54.8773 0.156523C55.2422 -0.0469661 55.7243 -0.0469661 56.0892 0.156523L71.3354 8.46828L86.5816 0.156523C86.9465 -0.0469661 87.4287 -0.0469661 87.7935 0.156523L103.046 8.46828L118.299 0.156523C118.794 -0.109578 119.465 -0.0104424 119.798 0.386101C120.13 0.782644 120.006 1.32006 119.511 1.59138L103.646 10.2319C103.281 10.4301 102.799 10.4301 102.434 10.2319L87.2006 1.90966L71.9544 10.2214C71.772 10.3206 71.5569 10.3727 71.3484 10.3727Z" fill="#647B3B" fill-opacity="0.2"/>
<path d="M71.3484 21.0484C71.14 21.0484 70.9249 20.9962 70.7425 20.897L55.4963 12.5853L40.2501 20.897C39.8852 21.0953 39.4031 21.0953 39.0382 20.897L23.792 12.5853L8.54574 20.897C8.18087 21.0953 7.69873 21.0953 7.33386 20.897L-8.53133 12.2566C-9.02651 11.9853 -9.15031 11.4478 -8.81802 11.0565C-8.48573 10.66 -7.80812 10.5556 -7.31946 10.8269L7.92677 19.1387L23.173 10.8269C23.5379 10.6287 24.02 10.6287 24.3849 10.8269L39.6311 19.1387L54.8773 10.8269C55.2422 10.6287 55.7243 10.6287 56.0892 10.8269L71.3354 19.1387L86.5816 10.8269C86.9465 10.6287 87.4287 10.6287 87.7935 10.8269L103.046 19.1387L118.299 10.8269C118.794 10.5608 119.465 10.66 119.798 11.0565C120.13 11.4531 120.006 11.9905 119.511 12.2566L103.646 20.9023C103.281 21.1005 102.799 21.1005 102.434 20.9023L87.1811 12.5905L71.9348 20.9023C71.772 21.0014 71.5569 21.0484 71.3484 21.0484Z" fill="#647B3B" fill-opacity="0.2"/>
<path d="M71.3484 32.0008C71.14 32.0008 70.9249 31.9487 70.7425 31.8495L55.4963 23.5378L40.2501 31.8495C39.8852 32.0478 39.4031 32.0478 39.0382 31.8495L23.792 23.5378L8.54574 31.8495C8.18087 32.0478 7.69873 32.0478 7.33386 31.8495L-8.53133 23.2038C-9.02651 22.9377 -9.15031 22.4003 -8.81802 22.0038C-8.48573 21.6072 -7.80812 21.5029 -7.31946 21.7742L7.92677 30.086L23.173 21.7742C23.5379 21.5759 24.02 21.5759 24.3849 21.7742L39.6311 30.086L54.8773 21.7742C55.2422 21.5759 55.7243 21.5759 56.0892 21.7742L71.3354 30.086L86.5816 21.7742C86.9465 21.5759 87.4287 21.5759 87.7935 21.7742L103.046 30.086L118.299 21.7742C118.794 21.5029 119.465 21.6072 119.798 22.0038C120.13 22.3951 120.006 22.9325 119.511 23.2038L103.646 31.8443C103.281 32.0426 102.799 32.0426 102.434 31.8443L87.1811 23.5326L71.9348 31.8443C71.772 31.9487 71.5569 32.0008 71.3484 32.0008Z" fill="#647B3B" fill-opacity="0.2"/>
</svg>
